<svg xmlns="http://www.w3.org/2000/svg" viewBox="0 0 701.6 353.17">
  <defs>
    <style>
      .white {
        fill: #fff;
      }

      .blue {
        fill: #29abe2;
      }

      .yellow {
        fill: #ff0;
      }

      .orange {
        fill: #f26522;
      }
    </style>
    <filter id="glow" x="-50%" y="-50%" width="200%" height="200%">
      <feGaussianBlur
        result="blurred"
        in="SourceGraphic"
        stdDeviation="12"
      />
    </filter>

    <filter id="shadow" x="0" y="0" width="200%" height="200%">
      <feOffset result="offOut" in="SourceAlpha" dx="20" dy="20" />
      <feColorMatrix
        result="matrixOut"
        in="offOut"
        type="matrix"
        values="1 0 0 0 0
                0 1 0 0 0
                0 0 1 0.05 0
                0 0 0 0.2 0"
      />
      <feGaussianBlur result="blurOut" in="matrixOut" stdDeviation="10" />
    </filter>
    <g id="yellow" class="yellow">
      <g>
        <path class="cls-1" d="M513.85,298c0-4.16,0-8.32,0-12.47a18.56,18.56,0,0,1,.51-4.2,11.38,11.38,0,0,1,22.2.34,22.37,22.37,0,0,1,.45,4.47q.08,11.94,0,23.88a21.17,21.17,0,0,1-.42,4.21,11.36,11.36,0,0,1-22.25.43,19,19,0,0,1-.49-4.19C513.81,306.26,513.85,302.11,513.85,298Zm16.61.2c0-4,0-8,0-11.94a15.8,15.8,0,0,0-.25-3.16,4.82,4.82,0,0,0-9.46-.18,13.85,13.85,0,0,0-.38,3.15q0,11.93,0,23.87a13.84,13.84,0,0,0,.43,3.4,4.64,4.64,0,0,0,4.68,3.57,4.69,4.69,0,0,0,4.66-3.62,14.48,14.48,0,0,0,.31-3.42C530.48,305.93,530.46,302,530.46,298.15Z"/>
        <path class="cls-1" d="M453.08,297.85c0-4.07,0-8.14,0-12.2a18.7,18.7,0,0,1,.34-4,11.36,11.36,0,0,1,12-9.12A11.58,11.58,0,0,1,476,283a3.27,3.27,0,0,1,0,.53c0,9.64.19,19.28-.07,28.91a11.41,11.41,0,0,1-22.81,0c-.24-4.85,0-9.73,0-14.59Zm16.6.29c0-4.16,0-8.31,0-12.47a11.11,11.11,0,0,0-.63-3.62,4.74,4.74,0,0,0-8.73-.16,9.09,9.09,0,0,0-.68,3.33q-.09,12.73,0,25.47a9,9,0,0,0,.65,3.35A4.78,4.78,0,0,0,469,314a10.82,10.82,0,0,0,.64-3.62C469.72,306.28,469.68,302.21,469.68,298.14Z"/>
        <path class="cls-1" d="M432.17,316.93h8a18,18,0,0,1,2.65.09,3.22,3.22,0,0,1,2.83,3,3.3,3.3,0,0,1-2.59,3.28,8,8,0,0,1-1.84.13c-4.78,0-9.56,0-14.34,0a6.92,6.92,0,0,1-2.09-.24,3.11,3.11,0,0,1-1.9-4.48,16.26,16.26,0,0,1,1.31-2,117.43,117.43,0,0,0,11-18.47,59.27,59.27,0,0,0,3.37-9.2,16.27,16.27,0,0,0,.26-6,4.68,4.68,0,0,0-4.62-4,4.88,4.88,0,0,0-4.81,3.82c-.22.85-.26,1.75-.41,2.62a3.23,3.23,0,0,1-3.42,3,3.33,3.33,0,0,1-3-3.16,12,12,0,0,1,9-12.48,11.33,11.33,0,0,1,13.12,7,15.46,15.46,0,0,1,.32,10.43,85.26,85.26,0,0,1-4.34,11.65c-2,4.23-4.54,8.2-6.84,12.28C433.36,314.9,432.92,315.64,432.17,316.93Z"/>
        <path class="cls-1" d="M492.92,316.93h7.62a24,24,0,0,1,3.18.11,3,3,0,0,1,2.68,2.84,3.13,3.13,0,0,1-2.34,3.41,8.17,8.17,0,0,1-2.1.18c-4.69,0-9.37,0-14.06,0a8.77,8.77,0,0,1-1.85-.1,3.21,3.21,0,0,1-2.3-4.7,12.5,12.5,0,0,1,1.17-1.76,114.12,114.12,0,0,0,11.52-19.64,65,65,0,0,0,3.24-9.77,10.35,10.35,0,0,0-.15-4.69A4.67,4.67,0,0,0,495,279a4.92,4.92,0,0,0-4.81,3.83c-.25.92-.21,1.92-.4,2.87a3.25,3.25,0,0,1-3.4,2.73,3.09,3.09,0,0,1-3-3.14c-.14-4.43,1.31-8.21,5.07-10.78a10.83,10.83,0,0,1,11.33-.87c4.13,2,6.11,5.48,6.56,9.91a24,24,0,0,1-1.42,9.9c-2.41,7.37-6.2,14.05-10.27,20.59C494.18,314.87,493.7,315.67,492.92,316.93Z"/>
      </g>
    </g>
    <g id="blue" class="blue">
      <g>
        <path class="cls-2" d="M346.43,286.34a5,5,0,0,1-.56-6.48c.87-1.43,1.42-3,2.22-4.51,1.11-2,3-2.7,4.88-1.8a3.58,3.58,0,0,1,1.69,4.94c-.85,2-1.84,4-2.84,6-1.22,2.4-3.3,2.3-5.5,1.8Z"/>
        <path class="cls-2" d="M346.32,286.26c.37.24.75.46,1.1.73a3.7,3.7,0,0,1,1.4,4.88q-4.2,11-8.41,22.07c-.09.25-.2.49-.29.74-.39,1.16-1.2,2.52-.12,3.46,1.3,1.15,2.76.18,3.84-.68a44.3,44.3,0,0,0,5.73-5.12Q360,300.63,370.13,288.7c2.41-2.82,4.59-3,6.94-.15a4.2,4.2,0,0,1,.36.56c1.9-.83,3.55-1.72,5.3-2.28,6.95-2.21,12.55,1.79,12.67,9.09a20.46,20.46,0,0,1-.74,5.49c-1.17,4.44-2.53,8.84-3.81,13.26-.24.83-.47,1.66-.85,3a20.8,20.8,0,0,0,5.06-4c1.06-1.07,2-2.27,3.05-3.32a3.56,3.56,0,0,1,4.82-.37,3.48,3.48,0,0,1,.74,5A33,33,0,0,1,392,325.12c-5.23,2.53-9.48-.29-9.4-6.13a18.74,18.74,0,0,1,.75-4.69c1.36-4.94,2.85-9.85,4.25-14.79a12.36,12.36,0,0,0,.53-3.12c0-2.5-1-3.28-3.31-2.51a11.25,11.25,0,0,0-3.3,1.66,35.62,35.62,0,0,0-11.57,14.6c-1.75,4.16-3.22,8.43-4.84,12.64-1.09,2.8-2.84,3.86-5,3.09-2.28-.83-3-2.84-1.9-5.72,1.17-3.14,2.37-6.26,3.29-9.61-.47.42-1,.81-1.38,1.26-2.44,2.57-4.77,5.25-7.32,7.7a46.24,46.24,0,0,1-5.78,4.64,10.49,10.49,0,0,1-7.61,1.64,7.61,7.61,0,0,1-6.72-5.58,10.39,10.39,0,0,1,.15-7,12,12,0,0,0,.91-3.69c-.66.64-1.29,1.31-2,1.91-4.2,3.66-8.3,7.44-12.67,10.88a20.19,20.19,0,0,1-6.58,3.31c-5.83,1.74-10.88-1.46-12.17-7.38-.11-.52-.17-1-.3-1.91-.95.64-1.73,1.16-2.49,1.69a49,49,0,0,1-16.75,7.79,14.75,14.75,0,0,1-11.43-2,14.6,14.6,0,0,1-6-6,46.17,46.17,0,0,1-3.71,3.5A30.68,30.68,0,0,1,254,325c-4.31,2-7.75.62-10-3.54-.15-.29-.33-.58-.59-1-.79.64-1.44,1.2-2.12,1.72a15.22,15.22,0,0,1-13.23,3.11,11,11,0,0,1-8.21-13.61c.21-.84.45-1.67.79-2.89-.75.5-1.18.74-1.55,1.05-5.45,4.49-11.24,8.33-18.33,9.71a2,2,0,0,0-1.65,1.49,15.77,15.77,0,0,1-.88,2.22,3.74,3.74,0,0,1-4.29,2.31c-1.88-.47-2.91-2.11-2.67-4.29.05-.52.21-1,.33-1.62-9-3.83-15.76-10.14-21-18.51-.79.7-1.49,1.33-2.21,1.95-6.62,5.73-13.18,11.55-19.91,17.16-3.34,2.79-7.05,5-11.52,5.71a11.87,11.87,0,0,1-9.53-2.2,8.39,8.39,0,0,1-2.07-2.37,3.43,3.43,0,0,1,.79-4.34c1.26-1.12,3.19-1.45,4.38-.27,3.46,3.43,7,2.16,10.08-.06A175,175,0,0,0,155.32,305c8.56-7.69,16.79-15.73,25.28-23.51,7-6.4,14.12-12.64,22.21-17.65a47.75,47.75,0,0,1,6.19-3,7.25,7.25,0,0,1,2.59-.47c3.58-.13,5.93,2.24,5.59,5.81a40.3,40.3,0,0,1-1.25,6.5c-3.17,11.8-7.47,23.23-11.66,34.69-.42,1.14-.8,2.29-1.37,3.94,1.31-.57,2.18-.9,3-1.32A49.26,49.26,0,0,0,217,301.84a87.14,87.14,0,0,0,11-12.56,16.35,16.35,0,0,1,1.3-1.68,3.62,3.62,0,0,1,6.06,3.74c-.53,1.5-1.25,2.92-1.81,4.41q-3,7.94-6,15.9a10.53,10.53,0,0,0-.64,2,3.68,3.68,0,0,0,3.51,4.6,7.78,7.78,0,0,0,7-2.52,28.78,28.78,0,0,0,4.31-6c3.17-6.32,6.08-12.77,9.09-19.17a25.13,25.13,0,0,1,1.14-2.4,3.64,3.64,0,0,1,4.81-1.55,3.69,3.69,0,0,1,1.9,4.48,24.89,24.89,0,0,1-1.23,2.93,101.27,101.27,0,0,0-6.31,17.72,28.26,28.26,0,0,0-.68,3.65,26.13,26.13,0,0,0,.15,3.28,25.2,25.2,0,0,0,3.46-2.29c2.08-2,4.06-4.18,6-6.33,4.79-5.22,9.46-10.54,14.34-15.66a43.25,43.25,0,0,1,10.43-7.71,11.3,11.3,0,0,1,2.92-1.22,3.86,3.86,0,0,1,4.26,2.42,3.64,3.64,0,0,1-1.73,4.53c-2.71,1.6-2.73,1.61-1.93,4.75.3,1.2.66,2.39,1,3.57,1.17,3.89,2.38,7.77,1.86,12,5.19-1.76,15.92-12.22,17.4-18.8-1.35,0-2.64,0-3.93,0-2.55-.09-4-1.43-4-3.6s1.46-3.55,4-3.67a59.3,59.3,0,0,1,6.11,0,2.7,2.7,0,0,0,3-2c1.08-2.62,2.31-5.17,3.47-7.75.19-.41.35-.82.54-1.22,1.16-2.4,3.13-3.29,5.13-2.34s2.57,2.92,1.63,5.2c-1,2.52-2.18,5-3.42,7.84,1.58.11,2.87.12,4.13.31a3.55,3.55,0,0,1,3.05,4.66,3.51,3.51,0,0,1-3.63,2.52c-2.38.06-4.76,0-7,0-2.72,4.57-5.47,8.81-7.78,13.27a24.46,24.46,0,0,0-2.3,7.56c-.57,3.82,1,4.9,4.4,3.13a36.76,36.76,0,0,0,6-3.93c6.95-5.55,12.86-12.15,18.67-18.84,1.68-1.94,3.41-3.86,4.9-5.94a6,6,0,0,1,4.81-2.84Zm-165.81,5.58c7.3,2.83,11.65,8.62,16.18,14.86,4.61-12.71,9.32-24.9,12.64-37.83C204.06,270.86,186.43,285,180.51,291.84Zm100.68,6.69c-4.65,3.45-12.94,12.51-13.82,14.78,1.2.81,2.35,1.56,3.48,2.35a20.37,20.37,0,0,0,3.23,2.25,6.48,6.48,0,0,0,3.53.57c3.56-.66,7.07-5.68,6.35-9.22S282.18,302.29,281.19,298.53Zm-102.9.27c1.72,4,8.63,10.52,11.58,11.14C186.84,305.44,183.58,301.44,178.29,298.8Z"/>
      </g>
    </g>
    <g id="white" class="white">
      <g>
        <path class="cls-3" d="M656.33,213.84h-.05c-.21,5.22-.46,10.44-.62,15.66q-.36,11.1-10.52,15.47a28.19,28.19,0,0,1-14.82,2,16.51,16.51,0,0,1-12.12-7.3A23.55,23.55,0,0,1,614,226.5c0-4,0-8,0-11.95a10.44,10.44,0,0,0-.18-2.37,3.15,3.15,0,0,0-3.26-2.55,3.26,3.26,0,0,0-3.16,2.7,11.5,11.5,0,0,0-.09,2.12c0,3.8,0,7.61,0,11.42a30.67,30.67,0,0,0,4.17,15.71A23.28,23.28,0,0,0,626.14,253c7.2,1.95,14.25,1,21.05-1.67,9.24-3.69,14.51-10.59,15.07-20.58.6-10.6.82-21.23,1.16-31.84a16.73,16.73,0,0,0-3.57-11.15,81.49,81.49,0,0,0-7.25-8.45c-8-7.68-16.11-15.16-24.19-22.72-2.65-2.48-5.33-4.92-7.92-7.46a18.36,18.36,0,0,1-5.8-13.27c-.11-9.82-.29-19.65-.11-29.47.11-6.13,3.47-10.36,9.25-12.3a31.28,31.28,0,0,1,21.84.5c7,2.74,11,9,11,16.59v13.27a11.5,11.5,0,0,0,.12,2.12,3.25,3.25,0,0,0,3,2.54,3.16,3.16,0,0,0,3.34-2.44,10.41,10.41,0,0,0,.21-2.37c0-4.52.08-9,0-13.54-.2-9.71-4.69-16.88-13.21-21.44-5.62-3-11.75-3.7-18-3.48a31,31,0,0,0-13.09,3c-7,3.55-10.93,9.33-11.16,17.11-.29,9.91-.17,19.83,0,29.74a24.88,24.88,0,0,0,7.38,17.69c2.69,2.69,5.49,5.27,8.27,7.87,7.95,7.43,16,14.78,23.83,22.31a82.06,82.06,0,0,1,7.09,8.24,10.54,10.54,0,0,1,2.24,7.19C656.54,203.93,656.45,208.88,656.33,213.84Z"/>
        <path class="cls-3" d="M656.33,213.84c.12-5,.21-9.91.4-14.87a10.54,10.54,0,0,0-2.24-7.19,82.06,82.06,0,0,0-7.09-8.24c-7.85-7.53-15.88-14.88-23.83-22.31-2.78-2.6-5.58-5.18-8.27-7.87a24.88,24.88,0,0,1-7.38-17.69c-.19-9.91-.31-19.83,0-29.74.23-7.78,4.16-13.56,11.16-17.11a31,31,0,0,1,13.09-3c6.28-.22,12.41.46,18,3.48,8.52,4.56,13,11.73,13.21,21.44.09,4.51,0,9,0,13.54a10.41,10.41,0,0,1-.21,2.37,3.16,3.16,0,0,1-3.34,2.44,3.25,3.25,0,0,1-3-2.54,11.5,11.5,0,0,1-.12-2.12V111.17c0-7.56-4.06-13.85-11-16.59a31.28,31.28,0,0,0-21.84-.5c-5.78,1.94-9.14,6.17-9.25,12.3-.18,9.82,0,19.65.11,29.47a18.36,18.36,0,0,0,5.8,13.27c2.59,2.54,5.27,5,7.92,7.46,8.08,7.56,16.22,15,24.19,22.72a81.49,81.49,0,0,1,7.25,8.45,16.73,16.73,0,0,1,3.57,11.15c-.34,10.61-.56,21.24-1.16,31.84-.56,10-5.83,16.89-15.07,20.58-6.8,2.71-13.85,3.62-21.05,1.67a23.28,23.28,0,0,1-14.68-11.41,30.67,30.67,0,0,1-4.17-15.71c.05-3.81,0-7.62,0-11.42a11.5,11.5,0,0,1,.09-2.12,3.26,3.26,0,0,1,3.16-2.7,3.15,3.15,0,0,1,3.26,2.55,10.44,10.44,0,0,1,.18,2.37c0,4,0,8,0,11.95a23.55,23.55,0,0,0,4.19,13.21,16.51,16.51,0,0,0,12.12,7.3,28.19,28.19,0,0,0,14.82-2q10.14-4.35,10.52-15.47c.16-5.22.41-10.44.62-15.66Z"/>
        <path class="cls-3" d="M435.46,183c-.52,1.36-.9,2.25-1.22,3.15q-10.42,30.08-20.86,60.13a14.6,14.6,0,0,1-1,2.46,3.26,3.26,0,0,1-4.1,1.49,3.22,3.22,0,0,1-2-3.64,12.39,12.39,0,0,1,.6-2q12.42-35.83,24.84-71.66c.63-1.83,1.27-3.57,3.58-3.69,1.81-.09,2.81.91,3.8,3.76q12.67,36.3,25.34,72.61a13,13,0,0,1,.61,2,3.18,3.18,0,0,1-2.2,3.75,3.22,3.22,0,0,1-4-1.73,17.09,17.09,0,0,1-.85-2.23q-10.67-30.54-21.32-61.09C436.38,185.37,436,184.42,435.46,183Z"/>
        <path class="cls-3" d="M436.16,153.44q3-8.5,5.89-17l15.83-45.89a14.17,14.17,0,0,1,.86-2.22,3.26,3.26,0,0,1,3.87-1.54,3.34,3.34,0,0,1,2.26,3.75,12.43,12.43,0,0,1-.61,2q-12.27,35.6-24.55,71.2a11.87,11.87,0,0,1-.89,2.21,3.27,3.27,0,0,1-5.69,0,11.84,11.84,0,0,1-.91-2.2q-12.83-35.26-25.64-70.55a10.32,10.32,0,0,1-.67-2.55,3.17,3.17,0,0,1,2.34-3.41,3.2,3.2,0,0,1,3.68,1.45,14.56,14.56,0,0,1,1,2.44q10.85,29.78,21.67,59.57c.33.9,1,2.68,1,2.68Z"/>
        <path class="cls-3" d="M326.52,95.43v70.22h30.85a15.63,15.63,0,0,1,2.65.11,3.15,3.15,0,0,1,2.62,3.2,3.19,3.19,0,0,1-2.64,3.2,12.45,12.45,0,0,1-2.12.1H324.42a11.53,11.53,0,0,1-1.86-.08,3.06,3.06,0,0,1-2.72-2.81,19,19,0,0,1-.07-2.39V94c0-.62,0-1.24,0-1.86a3.26,3.26,0,0,1,3.35-3.36c.62,0,1.24,0,1.86,0h39.3a13.77,13.77,0,0,1,2.65.11,3.26,3.26,0,0,1,2.59,3.26,3.11,3.11,0,0,1-2.42,3.1,13.27,13.27,0,0,1-2.89.22q-17.13,0-34.26,0Z"/>
        <path class="cls-3" d="M326,242.26h37.89a13.51,13.51,0,0,1,2.38.09,3.25,3.25,0,0,1,2.71,3.16,3.17,3.17,0,0,1-2.56,3.26,10.44,10.44,0,0,1-2.37.18H324.24a14.07,14.07,0,0,1-1.59,0,3.35,3.35,0,0,1-3.29-3.47c-.05-.61,0-1.24,0-1.86V180.12c0-.62,0-1.24,0-1.86.15-2.1,1.43-3.42,3.29-3.44s3.15,1.27,3.36,3.39c.07.79,0,1.59,0,2.39v61.66Z"/>
        <path class="cls-3" d="M160.28,216.71v27.35a21.14,21.14,0,0,1-.05,2.39,3.31,3.31,0,0,1-6.62,0c-.07-.8,0-1.6,0-2.39q0-27,0-53.92a16.45,16.45,0,0,0-.67-4.68Q139.28,140,125.59,94.7a17,17,0,0,1-.62-2.3,3.27,3.27,0,0,1,2.25-3.74,3.23,3.23,0,0,1,4,1.75,12.51,12.51,0,0,1,.68,2q13.85,46,27.64,92a17.64,17.64,0,0,1,.72,4.95C160.32,198.47,160.28,207.59,160.28,216.71Z"/>
        <path class="cls-3" d="M161.31,175.85a3.32,3.32,0,0,1-3.67-3.59,13.73,13.73,0,0,1,.65-2.56q11.78-38.43,23.57-76.86a12.46,12.46,0,0,1,.94-2.47,3.21,3.21,0,0,1,3.64-1.53,3.3,3.3,0,0,1,2.45,3.38,11.11,11.11,0,0,1-.56,2.31q-11.85,38.68-23.72,77.37a13.93,13.93,0,0,1-.7,2A3.11,3.11,0,0,1,161.31,175.85Z"/>
        <path class="cls-3" d="M561.43,211.48h-3q-15.81,0-31.6,0a12.54,12.54,0,0,1-2.38-.11,3.23,3.23,0,0,1-2.61-3.24,3.1,3.1,0,0,1,2.4-3.11,12.63,12.63,0,0,1,2.89-.23q15.13,0,30.27,0h3.13c-5.16-34.92-10.27-69.45-15.4-104.14H535c-.29,1.63-.63,3.33-.88,5q-5.31,36-10.6,71.92-4.63,31.5-9.24,63L513.18,248l0,.26c-.47,2.58-2,3.93-4,3.56s-3-2-2.63-4.49.68-4.73,1-7.09q4.15-27.94,8.3-55.9T524,128.39q2.25-15.36,4.59-30.7c.47-3.15,1.37-3.92,4.54-3.94q6.9-.06,13.81,0c3.09,0,4.06.93,4.52,4q4.6,31.23,9.19,62.48,4.36,29.52,8.78,59.05,1.94,13,3.84,26a16.74,16.74,0,0,1,.27,2.9,3.24,3.24,0,0,1-2.79,3.09,3.29,3.29,0,0,1-3.58-2.14,9,9,0,0,1-.35-1.82q-2.32-15.6-4.66-31.22C562,214.7,561.72,213.3,561.43,211.48Z"/>
        <path class="cls-3" d="M251.88,95.13h-3.33q-9.17,0-18.32,0a13.58,13.58,0,0,1-2.12-.07,3.28,3.28,0,0,1-2.78-3.1,3.16,3.16,0,0,1,2.49-3.32,12.08,12.08,0,0,1,2.63-.21q11.42,0,22.83,0c4.45,0,5.29.83,5.31,5.27q.14,46.06.26,92.12.09,28.94.24,57.88a19.69,19.69,0,0,1-.11,3.17,3.22,3.22,0,0,1-3.31,2.84,3.26,3.26,0,0,1-3.21-3,15,15,0,0,1-.06-2.12q-.27-73-.52-146Z"/>
        <path class="cls-3" d="M273.43,88.73c3.07,0,6.14,0,9.2,0a3.23,3.23,0,0,1,3,1.53A3.31,3.31,0,0,1,284,95.17a8.44,8.44,0,0,1-2.46.25c-5.3,0-10.61,0-15.91,0a11.21,11.21,0,0,1-1.74-.07A3.22,3.22,0,0,1,261,92a3.12,3.12,0,0,1,3-3.22c1.74-.12,3.48,0,5.22,0h4.23Z"/>
        <path class="cls-3" d="M37.23,170.32V96.25a19.51,19.51,0,0,1,.06-2.65,3.18,3.18,0,0,1,3-2.81,3.11,3.11,0,0,1,3.44,2.63,11.76,11.76,0,0,1,.15,2.38q0,74.59,0,149.2a11.66,11.66,0,0,1-.16,2.37,3.19,3.19,0,0,1-3.23,2.6,3.26,3.26,0,0,1-3.24-2.92,21.43,21.43,0,0,1-.06-2.66Z"/>
        <path class="cls-3" d="M91.4,131.66c0,5.57.37,11.17-.07,16.71-.81,10.09-5.43,17.85-15.19,21.79A20.39,20.39,0,0,1,70,171.54c-5.38.35-10.78.44-16.17.62a7,7,0,0,1-1.59-.07,3.3,3.3,0,0,1-2.73-3.15A3.16,3.16,0,0,1,52,165.66a15.3,15.3,0,0,1,2.63-.2c5.13-.22,10.26-.27,15.37-.69,5.31-.42,9.25-3.27,11.94-7.82a19.2,19.2,0,0,0,2.7-8.79,286.31,286.31,0,0,0-.18-35c-.58-8.69-6.65-15.2-15.75-16.89A60,60,0,0,0,60,95.68c-2.48-.09-5,0-7.44-.05a3.27,3.27,0,0,1-3.35-3.09,3.15,3.15,0,0,1,3.2-3.49c6.18,0,12.42-.72,18.51.79,10.32,2.57,17.22,8.74,19.66,19.32a35.83,35.83,0,0,1,.79,7.1c.11,5.13,0,10.26,0,15.4Z"/>
      </g>
    </g>
    <g id="orange" class="orange">
      <g>
        <path class="cls-4" d="M676.43,214c0,5.05.07,10.1,0,15.14a44.87,44.87,0,0,1-2.07,12.26c-3.64,11.92-11.51,19.51-23.51,22.65a58.24,58.24,0,0,1-28.91.19c-13.62-3.3-22-12-25.12-25.55a66.38,66.38,0,0,1-1.55-12.88c-.24-8.05-.08-16.12-.07-24.17,0-3.56,1-4.6,4.57-4.6q11.82,0,23.64,0c3.49,0,4.55,1.07,4.56,4.63,0,7.53,0,15.06,0,22.58a17.92,17.92,0,0,0,.65,5c1,3.16,3.41,4.33,8,4.17,3.87-.13,6-1.54,6.78-4.72a16.89,16.89,0,0,0,.51-3.94c.05-6.81,0-13.63,0-20.45a16.2,16.2,0,0,0-2.85-8.71,47.72,47.72,0,0,0-9.81-11.11c-3.5-3-7.14-5.81-10.83-8.56a73.38,73.38,0,0,1-14.74-14.07A49.44,49.44,0,0,1,595.17,131c0-5.84,0-11.69,0-17.53A56.18,56.18,0,0,1,597.31,98c3.49-11.8,11.11-19.57,23-22.86A58.31,58.31,0,0,1,650,74.74c14.1,3.42,22.43,12.57,25.28,26.64a75.37,75.37,0,0,1,1.23,12.91c.2,7.61.06,15.23.06,22.85,0,.44,0,.88,0,1.32-.2,2.25-1.28,3.3-3.58,3.42-1.24.06-2.48,0-3.72,0-6.91,0-13.81,0-20.72,0-3.59,0-4.58-1-4.59-4.56,0-7.44,0-14.88,0-22.31a33.28,33.28,0,0,0-.4-4.22,6.23,6.23,0,0,0-.56-1.76c-1.55-3.31-4.56-3.64-7.65-3.57-3.92.09-5.86,1.37-6.75,4.4a15.9,15.9,0,0,0-.57,4.18c-.06,5.49,0,11,0,16.47a9.81,9.81,0,0,0,1.45,5.57,71.48,71.48,0,0,0,5.76,7.92,83.77,83.77,0,0,0,14.65,12.64,76.1,76.1,0,0,1,15.65,14.27c7.28,9.09,11.22,19.37,11.12,31.1,0,4,0,8,0,11.95Zm-74.32-10.2c-.07.65-.17,1.17-.17,1.68,0,7.34-.09,14.69.09,22a48.48,48.48,0,0,0,1.18,9.45c2.52,11.14,9.3,18.24,20.53,20.84a53,53,0,0,0,24.72,0q15.27-3.69,19.63-18.83A51.49,51.49,0,0,0,669.91,225c.05-7.61,0-15.22,0-22.83a41.57,41.57,0,0,0-8.79-25.9,72.52,72.52,0,0,0-13.79-13.15c-4.77-3.66-9.46-7.45-14-11.37a42.87,42.87,0,0,1-8.7-10.31,22.69,22.69,0,0,1-3.47-12.35c.08-4.86,0-9.73,0-14.6a25.73,25.73,0,0,1,.55-5.26c1.19-5.31,4.32-9,9.79-9.94a24.53,24.53,0,0,1,7.88-.17c5.74.89,9.35,4.4,10.58,10.11a28.86,28.86,0,0,1,.54,5.8c.07,5.66,0,11.33,0,17v3h19.14a18.5,18.5,0,0,0,.21-1.91c0-6.82.1-13.64,0-20.45a56.91,56.91,0,0,0-1-9.48c-2.3-11.85-9.16-19.5-21.12-22.15a53.14,53.14,0,0,0-25,.31c-9.94,2.55-16.3,8.87-19.09,18.74A46.84,46.84,0,0,0,601.94,113c0,6.28,0,12.57,0,18.85a41.49,41.49,0,0,0,7.44,23.69,60.75,60.75,0,0,0,13.71,14c3.24,2.46,6.51,4.88,9.67,7.45A68.17,68.17,0,0,1,645,189.35a26.59,26.59,0,0,1,5.59,17.05c-.19,5.66,0,11.33-.05,17a34.49,34.49,0,0,1-.25,4.77c-.79,5.41-3.43,9.43-8.87,11.16a18.28,18.28,0,0,1-11,0,11.53,11.53,0,0,1-8.18-8,25.5,25.5,0,0,1-1-6.78c-.15-5.93-.05-11.86-.05-17.79v-3Z"/>
        <path class="cls-4" d="M435.57,220.36c-.32.88-.66,1.76-1,2.65l-12,36c-1.19,3.57-1.72,3.93-5.55,3.93H394.47c-.53,0-1.07,0-1.59,0-2.65-.23-3.91-2-3.28-4.61.17-.68.44-1.34.66-2q14.06-42.3,28.13-84.59a6.82,6.82,0,0,0,0-4.59q-14.11-42.28-28.13-84.59a14.77,14.77,0,0,1-.78-2.8A3.18,3.18,0,0,1,392.38,76a14.4,14.4,0,0,1,1.86-.05h23.1c3.51,0,4.08.41,5.18,3.7q6.06,18.11,12.1,36.23c.3.89.64,1.77,1.16,3.19.49-1.35.8-2.14,1.07-2.94q6-18.12,12-36.24c1.19-3.56,1.67-3.93,5.27-3.94h23.1c.53,0,1.07,0,1.59,0A3.22,3.22,0,0,1,482,80a17.87,17.87,0,0,1-.73,2.54q-13.89,41.79-27.84,83.57a9.77,9.77,0,0,0,0,6.64q14,41.76,27.84,83.56a20.7,20.7,0,0,1,.63,2c.61,2.65-.64,4.35-3.32,4.56-.44,0-.88,0-1.32,0H454.14c-3.43,0-4.09-.48-5.17-3.72Q442.9,241,436.85,222.7l-.76-2.25ZM397.49,82.81c.36,1.18.59,2,.87,2.85q13.45,40.55,26.95,81.09a8,8,0,0,1,0,5.38q-13.53,40.53-27,81.08c-.29.89-.58,1.79-.92,2.86h19c.38-1,.78-2,1.11-3q7.23-21.65,14.43-43.3a14.72,14.72,0,0,1,.93-2.48,3.26,3.26,0,0,1,5.82,0,13.81,13.81,0,0,1,.83,2.23l14.64,44.07c.28.82.6,1.62.91,2.44h19c-.35-1.1-.63-2-.93-2.91Q459.78,213,446.39,172.84a10.3,10.3,0,0,1,0-6.93q13.4-40,26.65-80.07c.3-.91.59-1.82,1-3H455c-.43,1.26-.84,2.42-1.22,3.59q-7.11,21.4-14.21,42.81c-.23.67-.42,1.36-.7,2a3.2,3.2,0,0,1-3.12,2.07,3.25,3.25,0,0,1-3.06-2.16c-.29-.65-.47-1.34-.7-2q-7.22-21.64-14.42-43.3c-.34-1-.73-2-1.12-3Z"/>
        <path class="cls-4" d="M339,108.32V153c.94,0,1.86.12,2.79.12h26.82c.62,0,1.24,0,1.86,0,2.83.14,4,1.3,4.05,4.13.05,4.16,0,8.32,0,12.48v10.36c0,4.7-.72,5.44-5.32,5.45H339.11v45H375c.71,0,1.42,0,2.12,0a3.34,3.34,0,0,1,3.2,3,12.62,12.62,0,0,1,.06,1.85q0,11.29,0,22.57c0,3.82-1.07,4.88-4.9,4.88-21.33,0-42.66-.05-64,.05-4.38,0-5.36-1.76-5.35-5.3q.09-70.91,0-141.81V81.61c0-.71,0-1.42,0-2.12A3.4,3.4,0,0,1,309.72,76c.53,0,1.06,0,1.59,0h64c.53,0,1.06,0,1.59,0a3.4,3.4,0,0,1,3.43,3.35,18.71,18.71,0,0,1,0,2.12c0,7.08-.12,14.17.05,21.25.1,4.56-1.45,5.71-5.54,5.66-10.89-.12-21.78,0-32.67,0ZM313.09,82.85V256h60.36V237.31H337.79a18.87,18.87,0,0,1-2.38-.06,3.36,3.36,0,0,1-3.21-3.3,14,14,0,0,1,0-1.59v-48.6a11.53,11.53,0,0,1,.06-1.86,3.24,3.24,0,0,1,3-2.87,21,21,0,0,1,2.38-.05h30v-19H337.79c-.62,0-1.24,0-1.86,0-2.48-.14-3.63-1.31-3.76-3.85,0-.44,0-.89,0-1.33V106.67a16.46,16.46,0,0,1,0-1.86,3.43,3.43,0,0,1,3.3-3.22,18.71,18.71,0,0,1,2.12,0h35.85V82.85Z"/>
        <path class="cls-4" d="M157.16,135.29c.46-1.43.8-2.3,1-3.2q6.48-25.59,12.92-51.19c.06-.26.1-.52.17-.78.94-3.63,1.59-4.15,5.29-4.16H201c.53,0,1.06,0,1.59,0a3.24,3.24,0,0,1,3.12,4,13.42,13.42,0,0,1-.56,2q-15.32,49.7-30.59,99.4a19.71,19.71,0,0,0-.87,5.71q-.09,34.78,0,69.58c0,.8,0,1.6,0,2.39-.16,2.52-1.33,3.75-3.85,3.76q-12.5.07-25,0c-2.65,0-3.81-1.28-3.91-4,0-.79,0-1.59,0-2.39q0-34.26,0-68.52a22.52,22.52,0,0,0-1-6.75Q127,139.86,114.3,98.39q-2.51-8.11-5-16.23c-.16-.5-.32-1-.45-1.52-.71-2.74.57-4.63,3.38-4.65q13.41-.09,26.82,0c2.37,0,3.24.86,3.91,3.51q3.72,14.66,7.41,29.32,3,11.84,6,23.67C156.52,133.23,156.77,134,157.16,135.29Zm9.75,120.78v-3.43q0-33.33,0-66.66a18.62,18.62,0,0,1,.82-5.18q14.7-47.94,29.48-95.85c.2-.64.29-1.3.46-2.11H177.58c-.24.89-.47,1.64-.66,2.41L160.81,149c-.7,2.77-1.81,3.92-3.62,3.9s-2.88-1.17-3.58-4Q147.19,123.51,140.77,98c-1.27-5-2.57-10.07-3.83-15-3.31-.6-18.37-.45-20.23.19.23.84.45,1.69.71,2.52q6.66,21.69,13.34,43.36c5.16,16.74,10.24,33.49,15.52,50.18a30.21,30.21,0,0,1,1.39,9.36q-.06,32.15,0,64.27v3.17Z"/>
        <path class="cls-4" d="M550.35,224.83H529.89c-.34,2.23-.72,4.46-1,6.7q-1.73,12.75-3.4,25.51c-.62,4.84-.81,6-6.59,5.93-7.08-.14-14.16,0-21.24,0-.53,0-1.06,0-1.59,0-2.76-.14-4.07-1.61-3.73-4.29q1.23-9.73,2.54-19.47c1.5-11.31,3-22.62,4.57-33.92,1.44-10.24,3-20.47,4.56-30.7,2.17-14.07,4.42-28.13,6.64-42.19s4.43-28.13,6.66-42.19c.56-3.58,1.1-7.17,1.73-10.74.47-2.66,1.42-3.45,4.13-3.46q17,0,34,0c2.92,0,3.93.91,4.39,3.85q3.81,24.24,7.58,48.49c2.57,16.34,5.24,32.66,7.72,49,2,12.93,3.76,25.9,5.55,38.86,1.76,12.71,3.41,25.42,5.1,38.14.19,1.4.4,2.8.56,4.2.31,2.69-1,4.37-3.65,4.39q-12.75.09-25.49,0c-2.31,0-3.38-1-3.72-3.31-.91-6.39-1.74-12.8-2.59-19.2-.59-4.47-1.16-8.94-1.76-13.41C550.73,226.3,550.53,225.62,550.35,224.83Zm-25.16-142c-8.85,57.7-18.93,115.08-25.63,173.15h19.23c.29-2.06.59-4.05.86-6.05,1.27-9.47,2.52-18.94,3.81-28.4.35-2.54,1.5-3.57,4.1-3.58q12.62-.08,25.22,0c2.6,0,3.71,1.07,4.05,3.61,1.09,8.15,2.15,16.31,3.23,24.46.44,3.32.92,6.63,1.38,10h19.32c-6.66-58.07-16.71-115.45-25.55-173.15Z"/>
        <path class="cls-4" d="M239.25,108.32h-18.2c-5.52,0-6.1-.58-6.1-6.06V81.55a21,21,0,0,1,.06-2.38A3.25,3.25,0,0,1,218.29,76c.7-.06,1.41,0,2.12,0h70.36c.71,0,1.42,0,2.13,0a3.41,3.41,0,0,1,3.46,3.32,9.81,9.81,0,0,1,0,1.33q0,11.41,0,22.83c0,3.79-1.09,4.85-4.93,4.86-5.49,0-11,0-16.47,0h-3V256.85c0,.8,0,1.6,0,2.39-.14,2.35-1.32,3.57-3.66,3.67-1.77.09-3.54,0-5.31,0H244.19c-3.85,0-4.92-1-4.93-4.85q0-15.79,0-31.6V108.32Zm-17.49-6.76H229c4.34,0,8.68,0,13,0,2.68,0,3.85,1.26,3.95,3.91,0,.8,0,1.6,0,2.39V256h19.25V106.82c0-4.33.94-5.26,5.32-5.26h16.2c.86,0,1.72-.08,2.54-.12.53-3.18.42-16.69-.11-18.57-4.25-.47-65.39-.27-67.45.26Z"/>
        <path class="cls-4" d="M57.79,185.57v71.21c0,5.61-.56,6.16-6.28,6.16H30.27a15.12,15.12,0,0,1-2.13-.05,3.35,3.35,0,0,1-3.06-3.15,21.15,21.15,0,0,1,0-2.39q0-87.9-.05-175.8c0-4.47,1.18-5.67,5.52-5.62,12.21.13,24.43,0,36.64,0A46,46,0,0,1,80,77.74c12.3,3.56,19.57,12,22.46,24.19a63.69,63.69,0,0,1,1.66,13.12c.23,10.44.09,20.89.07,31.34a41.65,41.65,0,0,1-1.92,12.54c-4.44,14.1-14.4,22.15-28.44,25.35-4.19,1-8.6.91-12.92,1.28C60,185.64,59,185.57,57.79,185.57Zm-6.74,70.6V209.06q0-12.88,0-25.76c0-3.21,1.1-4.27,4.31-4.32,2.12,0,4.25,0,6.37,0,7.15-.19,14.06-1.26,20.44-4.87A27.59,27.59,0,0,0,96,156.41a34.53,34.53,0,0,0,1.28-8.1q.23-17.79,0-35.58a41.67,41.67,0,0,0-1.17-8.66C93.67,93.13,87.2,86,76,83.67a55.34,55.34,0,0,0-10.29-1c-10.26-.12-20.53,0-30.8,0-1,0-1.9.07-2.93.12V256.17H51.05Z"/>
        <path class="cls-4" d="M540,199c-3,0-6,0-9,0-3.2-.07-4.35-1.31-4-4.51.92-7.64,2-15.26,3-22.89q2.26-17.1,4.53-34.19c.74-5.52,1.44-11,2.19-16.57.31-2.23,1.52-3.4,3.37-3.42s3.13,1.16,3.42,3.35c1.28,9.56,2.52,19.12,3.79,28.67q2.26,17.1,4.54,34.19c.47,3.6,1,7.19,1.36,10.79.36,3.33-.75,4.53-4.15,4.59C546,199,543,199,540,199Zm6.19-6.83c-2-14.84-3.91-29.49-5.86-44.14l-.47,0c-1.94,14.66-3.88,29.33-5.84,44.12Z"/>
        <path class="cls-4" d="M51.05,130.7q0-12.21,0-24.41c0-3.66,1.06-4.71,4.73-4.73,2.83,0,5.66-.07,8.49,0,8.2.25,13.31,5.21,13.86,13.41.07,1.06.07,2.12.07,3.18,0,8.75,0,17.51,0,26.26a16.3,16.3,0,0,1-1.54,7.45c-2.1,4.25-5.4,7.09-10.16,7.58a112.22,112.22,0,0,1-12.17.4c-2.1,0-3.24-1.4-3.27-3.7-.07-3.89,0-7.78,0-11.67Zm6.87,22.47c1.11,0,1.9,0,2.68,0,1.42,0,2.83,0,4.24-.16a6.83,6.83,0,0,0,6.41-6,27.67,27.67,0,0,0,.3-4q0-12.47,0-24.92a24,24,0,0,0-.38-4.48c-.51-2.79-2.15-4.77-5-5.07-2.68-.27-5.4-.06-8.21-.06Z"/>
      </g>
    </g>
     </defs>
  <title>neon</title>
  <use href="#blue"/>
  <use href="#blue" filter="url(#shadow)" />
  <use
    href="#blue"
    fill="var(--color-neon-glow)"
    filter="url(#glow)"
    style="transition: 'fill 0.5s ease-in'"
  />
  <use
    href="#blue"
    fill="var(--color-neon-fill)"
    style="transition: 'fill 0.3s ease-in'"
  />

  <use href="#yellow"/>
  <use href="#yellow" filter="url(#shadow)" />
  <use
    href="#yellow"
    fill="var(--color-neon-glow)"
    filter="url(#glow)"
    style="transition: 'fill 0.5s ease-in'"
  />
  <use
    href="#yellow"
    fill="var(--color-neon-fill)"
    style="transition: 'fill 0.3s ease-in'"
  />

  <use href="#orange" class="orange"/>
  <use href="#orange" filter="url(#shadow)" class="orange"/>
  <use
    href="#orange"
    fill="var(--color-neon-glow)"
    filter="url(#glow)"
    style="transition: 'fill 0.5s ease-in'"
    class="orange"
  />
  <use
    href="#orange"
    fill="var(--color-neon-fill)"
    style="transition: 'fill 0.3s ease-in'"
    class="orange"
  />

  <use href="#white" class="white"/>
  <use href="#white" filter="url(#shadow)" class="white"/>
  <use
    href="#white"
    fill="var(--color-neon-glow)"
    filter="url(#glow)"
    style="transition: 'fill 0.5s ease-in'"
    class="white"
  />
  <use
    href="#white"
    fill="var(--color-neon-fill)"
    style="transition: 'fill 0.3s ease-in'"
    class="white"
  />

</svg>
