<svg xmlns="http://www.w3.org/2000/svg" viewBox="0 0 851.27 583.82">
  <defs>
    <style>
      .white {
        fill: #fff;
        animation: whiteflicker 6s linear infinite;
      }

      .blue {
        fill: #29abe2;
        animation: blueflicker 6s linear infinite;
      }

      .yellow {
        fill: #ff0;
        animation: yellowflicker 6s linear infinite;
      }

      .orange {
        fill: #f26522;
        animation: orangeflicker 6s linear infinite;
      }

      @keyframes whiteflicker {
        0%, 3.5%, 95%, 100% {
          opacity: 0.15;
        }
        4%, 19.999%, 22%, 94.999% {
          opacity: .99;
        }
        20%, 21.999% {
          opacity: 0.4;
        }
      }
      @keyframes blueflicker {
        0%, 7.5%, 95%, 100% {
          opacity: 0.07;
        }
        8%, 62.999%, 64%, 64.999%, 66%, 94.999% {
          opacity: .99;
        }
        63%, 63.999%, 65%, 65.999% {
          opacity: 0.4;
        }
      }
      @keyframes yellowflicker {
        0%, 6%, 95%, 100% {
          opacity: 0.04;
        }
        6.5%, 29.999%, 32%, 94.999% {
          opacity: .99;
        }
        30%, 31.999% {
          opacity: 0.4;
        }
      }
      @keyframes orangeflicker {
        0%, 0.5%, 95%, 100% {
          opacity: 0.18;
        }
        1%, 89.999%, 92%, 94.999% {
          opacity: .99;
        }
        90%, 91.999% {
          opacity: 0.4;
        }
      }
    </style>
    <filter id="glow" x="-50%" y="-50%" width="200%" height="200%">
      <feGaussianBlur
        result="blurred"
        in="SourceGraphic"
        stdDeviation="12"
      />
    </filter>

    <filter id="shadow" x="0" y="0" width="200%" height="200%">
      <feOffset result="offOut" in="SourceAlpha" dx="20" dy="20" />
      <feColorMatrix
        result="matrixOut"
        in="offOut"
        type="matrix"
        values="1 0 0 0 0
                0 1 0 0 0
                0 0 1 0.05 0
                0 0 0 0.2 0"
      />
      <feGaussianBlur result="blurOut" in="matrixOut" stdDeviation="10" />
    </filter>

    <g id="yellow" class="yellow">
      <g>
        <path class="cls-1" d="M488.85,378.15c0-4.16,0-8.31,0-12.47a18.41,18.41,0,0,1,.51-4.19,11.37,11.37,0,0,1,22.2.33,22.37,22.37,0,0,1,.45,4.47q.06,11.94,0,23.89a22.1,22.1,0,0,1-.42,4.21,11.36,11.36,0,0,1-22.25.43,19.13,19.13,0,0,1-.49-4.2C488.81,386.46,488.85,382.31,488.85,378.15Zm16.61.2c0-4,0-8,0-11.94a15.92,15.92,0,0,0-.25-3.16,4.9,4.9,0,0,0-4.66-4,4.85,4.85,0,0,0-4.8,3.82,12.87,12.87,0,0,0-.38,3.15q0,11.92,0,23.87a13.37,13.37,0,0,0,.43,3.4,4.64,4.64,0,0,0,4.68,3.57,4.69,4.69,0,0,0,4.66-3.62,15,15,0,0,0,.31-3.42C505.48,386.13,505.46,382.24,505.46,378.35Z" transform="translate(99.68 68.37)"/>
        <path class="cls-1" d="M428.08,378.05c0-4.07,0-8.13,0-12.2a18.55,18.55,0,0,1,.34-4,11.35,11.35,0,0,1,12-9.12A11.56,11.56,0,0,1,451,363.22a4.57,4.57,0,0,1,0,.52c0,9.64.19,19.29-.07,28.92a11.41,11.41,0,0,1-22.81,0c-.25-4.85,0-9.73,0-14.59Zm16.6.29c0-4.16,0-8.31,0-12.47a11,11,0,0,0-.64-3.61,4.74,4.74,0,0,0-8.73-.17,8.89,8.89,0,0,0-.67,3.34q-.09,12.74,0,25.47a8.91,8.91,0,0,0,.65,3.34,4.77,4.77,0,0,0,8.74-.08,10.78,10.78,0,0,0,.65-3.62C444.72,386.48,444.67,382.41,444.68,378.34Z" transform="translate(99.68 68.37)"/>
        <path class="cls-1" d="M407.17,397.13h8a18,18,0,0,1,2.65.09,3.23,3.23,0,0,1,2.83,3,3.32,3.32,0,0,1-2.59,3.28,8.68,8.68,0,0,1-1.84.14q-7.17,0-14.35,0a7,7,0,0,1-2.09-.24,3.11,3.11,0,0,1-1.89-4.48,15.18,15.18,0,0,1,1.31-2,117.43,117.43,0,0,0,11-18.47,57.86,57.86,0,0,0,3.36-9.2,16,16,0,0,0,.27-6,4.68,4.68,0,0,0-4.62-4,4.88,4.88,0,0,0-4.81,3.82c-.22.85-.26,1.75-.42,2.62a3.23,3.23,0,0,1-3.42,3,3.33,3.33,0,0,1-3-3.16,12,12,0,0,1,9-12.48,11.34,11.34,0,0,1,13.13,7,15.52,15.52,0,0,1,.32,10.43,84,84,0,0,1-4.35,11.65c-2,4.23-4.53,8.2-6.84,12.28C408.36,395.1,407.92,395.84,407.17,397.13Z" transform="translate(99.68 68.37)"/>
        <path class="cls-1" d="M467.92,397.13h7.62a22.44,22.44,0,0,1,3.18.12,3,3,0,0,1,2.68,2.83,3.13,3.13,0,0,1-2.35,3.41,8.06,8.06,0,0,1-2.09.18c-4.69,0-9.38,0-14.06,0a8.73,8.73,0,0,1-1.85-.11,3.22,3.22,0,0,1-2.31-4.7,13.52,13.52,0,0,1,1.18-1.76,114.12,114.12,0,0,0,11.52-19.64,65,65,0,0,0,3.24-9.77,10.35,10.35,0,0,0-.15-4.69,4.67,4.67,0,0,0-4.54-3.76,4.91,4.91,0,0,0-4.81,3.82c-.26.92-.21,1.93-.4,2.87a3.25,3.25,0,0,1-3.4,2.73,3.09,3.09,0,0,1-3-3.14c-.14-4.43,1.31-8.21,5.07-10.78a10.81,10.81,0,0,1,11.33-.86c4.13,2,6.11,5.47,6.56,9.9a24,24,0,0,1-1.42,9.9c-2.41,7.37-6.2,14.05-10.27,20.59C469.18,395.07,468.69,395.87,467.92,397.13Z" transform="translate(99.68 68.37)"/>
      </g>
    </g>
    <g id="blue" class="blue">
      <g>
        <path class="cls-2" d="M321.43,366.55a5,5,0,0,1-.56-6.49c.87-1.42,1.42-3,2.22-4.51,1.11-2,3-2.7,4.88-1.8a3.58,3.58,0,0,1,1.69,4.94c-.86,2-1.85,4-2.84,6-1.22,2.4-3.3,2.3-5.5,1.8Z" transform="translate(99.68 68.37)"/>
        <path class="cls-2" d="M321.32,366.46c.37.24.75.46,1.09.73a3.72,3.72,0,0,1,1.41,4.89l-8.41,22.06c-.09.25-.2.49-.29.74-.39,1.16-1.2,2.52-.13,3.47,1.31,1.14,2.77.17,3.85-.69a43.56,43.56,0,0,0,5.72-5.12q10.4-11.71,20.56-23.64c2.42-2.82,4.59-3,6.95-.15a5,5,0,0,1,.36.56c1.9-.83,3.55-1.72,5.3-2.28,6.94-2.21,12.55,1.79,12.67,9.09a20.46,20.46,0,0,1-.74,5.49c-1.17,4.44-2.53,8.84-3.81,13.26-.24.83-.47,1.66-.85,3a20.55,20.55,0,0,0,5.05-4c1.06-1.07,2-2.27,3.06-3.32a3.56,3.56,0,0,1,4.82-.37,3.48,3.48,0,0,1,.74,5A33,33,0,0,1,367,405.32c-5.23,2.53-9.47-.28-9.39-6.13a18.74,18.74,0,0,1,.75-4.69c1.36-4.94,2.85-9.85,4.25-14.79a12.82,12.82,0,0,0,.53-3.12c0-2.5-1-3.28-3.31-2.51a11.63,11.63,0,0,0-3.3,1.66,35.69,35.69,0,0,0-11.57,14.6c-1.75,4.16-3.22,8.43-4.85,12.64-1.08,2.8-2.83,3.86-5,3.09s-3-2.84-1.89-5.72c1.17-3.14,2.37-6.26,3.28-9.61-.46.42-.95.81-1.38,1.26-2.43,2.57-4.76,5.25-7.31,7.7a47,47,0,0,1-5.78,4.64,10.49,10.49,0,0,1-7.61,1.64,7.6,7.6,0,0,1-6.72-5.58,10.36,10.36,0,0,1,.15-7,11.75,11.75,0,0,0,.9-3.7c-.65.64-1.28,1.31-2,1.91-4.2,3.66-8.3,7.44-12.67,10.88a20.16,20.16,0,0,1-6.59,3.32c-5.82,1.73-10.87-1.47-12.16-7.39-.11-.52-.17-1-.31-1.91-.94.65-1.72,1.16-2.49,1.7A49.08,49.08,0,0,1,255.81,406a14.75,14.75,0,0,1-11.43-2,14.54,14.54,0,0,1-6-6,47.91,47.91,0,0,1-3.71,3.5,31,31,0,0,1-5.72,3.79c-4.31,2-7.75.62-10-3.54-.16-.29-.33-.57-.59-1-.79.64-1.44,1.2-2.13,1.72a15.19,15.19,0,0,1-13.22,3.11,11,11,0,0,1-8.21-13.61c.21-.84.45-1.67.79-2.89-.75.5-1.18.74-1.55,1.05-5.45,4.49-11.24,8.34-18.33,9.72a1.94,1.94,0,0,0-1.65,1.49,14.58,14.58,0,0,1-.89,2.21,3.72,3.72,0,0,1-4.28,2.31,3.65,3.65,0,0,1-2.68-4.28,16.42,16.42,0,0,1,.34-1.63c-9-3.83-15.76-10.14-21-18.5l-2.21,1.94c-6.63,5.73-13.18,11.55-19.91,17.16-3.34,2.79-7.06,5-11.52,5.71a11.86,11.86,0,0,1-9.53-2.2,8.25,8.25,0,0,1-2.07-2.37,3.42,3.42,0,0,1,.79-4.33c1.25-1.12,3.19-1.46,4.38-.28,3.46,3.43,7,2.16,10.08-.06a173.28,173.28,0,0,0,14.72-11.74c8.56-7.69,16.8-15.73,25.29-23.51,7-6.39,14.12-12.64,22.21-17.65a46.31,46.31,0,0,1,6.18-3,7.1,7.1,0,0,1,2.6-.48c3.57-.13,5.93,2.24,5.59,5.81a40.1,40.1,0,0,1-1.25,6.5c-3.17,11.8-7.47,23.23-11.66,34.7-.42,1.13-.8,2.28-1.38,3.93,1.32-.57,2.19-.9,3-1.32a49,49,0,0,0,11.1-8.14,87.76,87.76,0,0,0,11-12.57,16.26,16.26,0,0,1,1.29-1.68,3.62,3.62,0,0,1,6.07,3.74c-.54,1.5-1.25,2.93-1.82,4.41q-3,7.95-6,15.9a11.32,11.32,0,0,0-.65,2,3.68,3.68,0,0,0,3.52,4.6,7.75,7.75,0,0,0,7-2.52,28.07,28.07,0,0,0,4.31-6c3.17-6.32,6.09-12.77,9.1-19.17.38-.8.68-1.65,1.13-2.4a3.68,3.68,0,0,1,6.72,2.93,24.89,24.89,0,0,1-1.23,2.93A101.27,101.27,0,0,0,226.15,392a26.94,26.94,0,0,0-.68,3.65,24.34,24.34,0,0,0,.15,3.28,24.31,24.31,0,0,0,3.46-2.29c2.08-2,4.06-4.18,6-6.33,4.79-5.21,9.46-10.53,14.34-15.66a43.32,43.32,0,0,1,10.43-7.71,11.3,11.3,0,0,1,2.92-1.22,3.86,3.86,0,0,1,4.26,2.42,3.66,3.66,0,0,1-1.73,4.54c-2.71,1.59-2.73,1.6-1.94,4.74.31,1.2.67,2.39,1,3.57,1.17,3.89,2.37,7.78,1.86,12,5.19-1.76,15.92-12.22,17.4-18.79-1.35,0-2.64,0-3.93,0-2.55-.09-4-1.43-4-3.6s1.45-3.55,4-3.67a59.1,59.1,0,0,1,6.1,0,2.71,2.71,0,0,0,3-2c1.08-2.62,2.31-5.17,3.47-7.75.18-.41.34-.82.54-1.22,1.16-2.4,3.12-3.29,5.13-2.33s2.57,2.91,1.63,5.19c-1,2.52-2.18,5-3.42,7.84,1.58.11,2.87.12,4.13.31a3.56,3.56,0,0,1,3.05,4.66,3.51,3.51,0,0,1-3.63,2.52c-2.38.06-4.76,0-7,0-2.71,4.57-5.46,8.81-7.77,13.27a24.55,24.55,0,0,0-2.3,7.56c-.57,3.82,1,4.9,4.4,3.13a36.76,36.76,0,0,0,6-3.93c6.94-5.55,12.86-12.15,18.67-18.84,1.68-1.93,3.4-3.85,4.89-5.94a6,6,0,0,1,4.82-2.83ZM155.51,372c7.3,2.84,11.65,8.62,16.18,14.86,4.61-12.71,9.32-24.9,12.64-37.83C179.06,351.06,161.42,365.17,155.51,372Zm100.67,6.69c-4.64,3.45-12.93,12.51-13.81,14.78,1.2.81,2.35,1.56,3.47,2.35a21.12,21.12,0,0,0,3.23,2.26,6.52,6.52,0,0,0,3.54.56c3.56-.65,7.06-5.68,6.35-9.22S257.17,382.5,256.18,378.73ZM153.29,379c1.71,4,8.63,10.52,11.58,11.14C161.83,385.64,158.58,381.64,153.29,379Z" transform="translate(99.68 68.37)"/>
        <path class="cls-2" d="M596.9,57.38c-1.91,0-2.94-.61-3.57-1.81a3,3,0,0,1,.15-3.26A7.46,7.46,0,0,1,595,50.83Q604.5,43.44,614,36.06a8.17,8.17,0,0,1,1.31-.89,3.3,3.3,0,0,1,3.87,5.23,11.6,11.6,0,0,1-1.41,1.2q-9.22,7.14-18.45,14.27A24.09,24.09,0,0,1,596.9,57.38Z" transform="translate(99.68 68.37)"/>
        <path class="cls-2" d="M617,62.78c-.79,1.13-1.24,2.28-2.08,2.88q-9.63,6.84-19.4,13.48c-1.87,1.28-3.86.94-4.93-.62s-.71-3.53,1.15-4.83c6.44-4.53,12.92-9,19.4-13.48,1.18-.81,2.54-1.13,3.71-.21A14.74,14.74,0,0,1,617,62.78Z" transform="translate(99.68 68.37)"/>
        <path class="cls-2" d="M614.18,85.33a3.38,3.38,0,0,1-1.55,2.91c-5.81,4.17-11.6,8.36-17.45,12.47a3.32,3.32,0,1,1-3.87-5.38c5.78-4.21,11.57-8.4,17.45-12.48C611.21,81.14,614.12,82.57,614.18,85.33Z" transform="translate(99.68 68.37)"/>
        <path class="cls-2" d="M591.1,87.87c-.12,3-2.66,4.48-4.86,3.37A8.49,8.49,0,0,1,584.57,90l-8.69-7.82c-.26-.24-.54-.46-.78-.72-1.57-1.63-1.7-3.54-.36-4.94a3.26,3.26,0,0,1,4.76,0q5.21,4.53,10.25,9.25A8.28,8.28,0,0,1,591.1,87.87Z" transform="translate(99.68 68.37)"/>
        <path class="cls-2" d="M595.06,42.74c0,2.95-2.73,4.53-4.94,3.29a6.1,6.1,0,0,1-1.39-1.2c-2.57-2.79-5.14-5.57-7.66-8.39a6.19,6.19,0,0,1-1.32-2.23,3.09,3.09,0,0,1,1.69-3.53,3,3,0,0,1,3.87.61c3,3.18,6,6.44,8.94,9.73A5.47,5.47,0,0,1,595.06,42.74Z" transform="translate(99.68 68.37)"/>
        <path class="cls-2" d="M581.11,54.72a9.64,9.64,0,0,1,2.08,1.22q4.14,3.73,8.14,7.63c1.65,1.61,1.76,3.51.45,4.94s-3.25,1.49-4.94,0c-2.83-2.56-5.59-5.17-8.33-7.82a3.31,3.31,0,0,1-.88-4.09C578.25,55.37,579.26,54.73,581.11,54.72Z" transform="translate(99.68 68.37)"/>
      </g>
    </g>
    <g id="white" class="white">
      <g>
        <path class="cls-3" d="M78,414.68h3.33q62.57.24,125.11.48,110.49.27,221,.39c24.7,0,49.4-.1,74.11-.21,6.9,0,13.8-.36,20.71-.36a3.13,3.13,0,0,0,3.46-2.49c2-6.77,4.37-13.46,6.08-20.32,2.73-11,5.06-22.06,7.56-33.1.18-.78.3-1.57.53-2.33a3.27,3.27,0,0,1,4-2.52,3.13,3.13,0,0,1,2.43,3.83c-.49,3-1.13,5.9-1.77,8.84-3,13.66-5.93,27.32-10.07,40.68-1,3.37-2.42,6.65-3.79,9.9a6,6,0,0,1-6,4c-3.27,0-6.54.32-9.81.32-60.92.18-121.83.45-182.74.44-60.21,0-120.42-.33-180.62-.54-25.5-.08-51-.25-76.5-.37-.44,0-.88,0-1.32,0-2.69-.18-4-1.86-3.4-4.49.69-2.93,1.54-5.81,2.3-8.72.24-.92.41-1.85.73-3.3L16.83,437.44l.15.67h3.34q53.13.18,106.25.36L402,439.58q65.21.27,130.41.58c2.09,0,3.74-.58,4.8-2.22,1.72-2.66,3.63-5.32,4.7-8.25,2.21-6.06,4.17-12.23,5.78-18.47,4.44-17.12,8.64-34.3,12.93-51.46.13-.52.25-1,.39-1.54.64-2.28,2.05-3.33,4-3s3,2,2.49,4.49q-.5,2.6-1.16,5.18c-4.94,19.27-9.8,38.57-14.93,57.79a83.52,83.52,0,0,1-5.19,13.6,30.92,30.92,0,0,1-5,7.12,10.35,10.35,0,0,1-8.29,3.42q-94.83-.44-189.65-.75L68.1,445,5.68,444.7a19,19,0,0,1-2.92-.1,3.09,3.09,0,0,1-2.6-2.35,3.06,3.06,0,0,1,1-3.36,13.16,13.16,0,0,1,1.77-1.16l72.89-42.09.45-.27c1.45-.9,2.94-1.32,4.46-.23s1.51,2.67,1.08,4.31q-1.69,6.42-3.37,12.83C78.28,412.94,78.2,413.62,78,414.68Z" transform="translate(99.68 68.37)"/>
        <path class="cls-3" d="M635.65,8.25c-.65,4.58-1.33,9.4-2,14.21Q630.81,42,628,61.57q-2.43,16.8-4.83,33.61a5.73,5.73,0,0,1-2.34,4c-5.46,4.23-10.81,8.58-16.29,12.77a6,6,0,0,0-2.43,4.15c-1.43,9.26-2.93,18.51-4.42,27.76a9.52,9.52,0,0,1-.49,2.06,3.17,3.17,0,0,1-3.64,2,3.22,3.22,0,0,1-2.68-2.88,6.5,6.5,0,0,1,.07-1.59c1.69-10.38,3.42-20.76,5.05-31.15a5.77,5.77,0,0,1,2.35-3.94c5.51-4.29,10.95-8.68,16.48-13a5.22,5.22,0,0,0,2.09-3.75c2-14.18,4.08-28.35,6.13-42.53q2.79-19.29,5.55-38.59c.16-1.14.29-2.29.54-3.41a3.29,3.29,0,0,1,3.61-2.79C634.57,4.46,635.74,5.94,635.65,8.25Z" transform="translate(99.68 68.37)"/>
        <path class="cls-3" d="M580.3,5q-2.07,16.72-4.13,33.45-2,16.08-3.94,32.14c-.6,4.83-1.11,9.67-1.79,14.49a5.27,5.27,0,0,0,.71,3.51c3.11,5.66,6.15,11.36,9.3,17a6.89,6.89,0,0,1,.83,4.82c-2,11.67-4,23.36-6,35a5.77,5.77,0,0,1-1,2.41,3,3,0,0,1-3.34,1,3.14,3.14,0,0,1-2.39-2.86,10.52,10.52,0,0,1,.25-2.36q2.75-16.08,5.53-32.16a6.41,6.41,0,0,0-.75-4.54c-3.08-5.47-6-11-9.06-16.52a7.1,7.1,0,0,1-.9-4.56c1.41-11.14,2.75-22.3,4.12-33.45q2-16.06,3.95-32.13,1-8.31,2.07-16.59c.32-2.53,1.66-3.83,3.64-3.68s3.17,1.79,2.93,4.46c0,.18,0,.35-.06.53Z" transform="translate(99.68 68.37)"/>
        <path class="cls-3" d="M600.71,26.19c.77-.69,1.43-1.25,2-1.85L620.22,7.27A13.33,13.33,0,0,1,622,5.67a3.29,3.29,0,0,1,4.56,4.62,11.78,11.78,0,0,1-1.45,1.55L603.47,33a14.71,14.71,0,0,1-1.37,1.26,3.26,3.26,0,0,1-4.88-.68,10,10,0,0,1-.69-1.13L582.28,7.89a9.91,9.91,0,0,1-.85-1.65A3.3,3.3,0,0,1,587,3a12.12,12.12,0,0,1,1.29,2l10.94,18.82C599.67,24.51,600.14,25.25,600.71,26.19Z" transform="translate(99.68 68.37)"/>
        <path class="cls-3" d="M631.33,294h-.05c-.21,5.21-.46,10.43-.63,15.65-.23,7.4-3.75,12.58-10.52,15.47a28.13,28.13,0,0,1-14.81,2,16.51,16.51,0,0,1-12.12-7.3A23.55,23.55,0,0,1,589,306.7c0-4,0-8,0-11.95a11.72,11.72,0,0,0-.18-2.37,3.15,3.15,0,0,0-3.26-2.55,3.25,3.25,0,0,0-3.16,2.7,11.5,11.5,0,0,0-.09,2.12c0,3.81,0,7.61,0,11.42a30.67,30.67,0,0,0,4.16,15.71,23.25,23.25,0,0,0,14.68,11.41c7.21,1.95,14.26,1.05,21.06-1.67,9.24-3.69,14.51-10.59,15.07-20.58.6-10.6.81-21.22,1.16-31.84A16.73,16.73,0,0,0,634.85,268a81.49,81.49,0,0,0-7.25-8.45c-8-7.67-16.12-15.16-24.19-22.72-2.65-2.48-5.34-4.92-7.92-7.46a18.32,18.32,0,0,1-5.8-13.27c-.11-9.82-.29-19.65-.11-29.47.11-6.12,3.47-10.36,9.25-12.29a31.28,31.28,0,0,1,21.84.49c7,2.74,11,9,11,16.59,0,4.42,0,8.85,0,13.27a10,10,0,0,0,.12,2.12,3.27,3.27,0,0,0,3,2.55,3.16,3.16,0,0,0,3.34-2.45,10.41,10.41,0,0,0,.21-2.37c0-4.51.08-9,0-13.54-.2-9.71-4.69-16.88-13.21-21.44-5.62-3-11.76-3.7-18-3.47a30.83,30.83,0,0,0-13.09,3c-7,3.55-10.93,9.34-11.16,17.11-.29,9.91-.18,19.83,0,29.74a24.88,24.88,0,0,0,7.38,17.69c2.69,2.69,5.49,5.27,8.26,7.87,8,7.43,16,14.78,23.84,22.32a84.6,84.6,0,0,1,7.09,8.23,10.49,10.49,0,0,1,2.23,7.2C631.53,284.13,631.45,289.08,631.33,294Z" transform="translate(99.68 68.37)"/>
        <path class="cls-3" d="M631.33,294c.12-5,.2-9.91.39-14.86a10.49,10.49,0,0,0-2.23-7.2,84.6,84.6,0,0,0-7.09-8.23c-7.85-7.54-15.88-14.89-23.84-22.32-2.77-2.6-5.57-5.18-8.26-7.87a24.88,24.88,0,0,1-7.38-17.69c-.2-9.91-.31-19.83,0-29.74.23-7.77,4.16-13.56,11.16-17.11a30.83,30.83,0,0,1,13.09-3c6.27-.23,12.41.46,18,3.47,8.52,4.56,13,11.73,13.21,21.44.09,4.51,0,9,0,13.54a10.41,10.41,0,0,1-.21,2.37,3.16,3.16,0,0,1-3.34,2.45,3.27,3.27,0,0,1-3-2.55,10,10,0,0,1-.12-2.12c0-4.42,0-8.85,0-13.27,0-7.56-4.06-13.85-11-16.59a31.28,31.28,0,0,0-21.84-.49c-5.78,1.93-9.14,6.17-9.25,12.29-.18,9.82,0,19.65.11,29.47a18.32,18.32,0,0,0,5.8,13.27c2.58,2.54,5.27,5,7.92,7.46,8.07,7.56,16.22,15.05,24.19,22.72a81.49,81.49,0,0,1,7.25,8.45,16.73,16.73,0,0,1,3.57,11.15c-.35,10.62-.56,21.24-1.16,31.84-.56,10-5.83,16.89-15.07,20.58-6.8,2.72-13.85,3.62-21.06,1.67a23.25,23.25,0,0,1-14.68-11.41,30.67,30.67,0,0,1-4.16-15.71c.05-3.81,0-7.61,0-11.42a11.5,11.5,0,0,1,.09-2.12,3.25,3.25,0,0,1,3.16-2.7,3.15,3.15,0,0,1,3.26,2.55,11.72,11.72,0,0,1,.18,2.37c0,4,0,8,0,11.95a23.55,23.55,0,0,0,4.19,13.21,16.51,16.51,0,0,0,12.12,7.3,28.13,28.13,0,0,0,14.81-2c6.77-2.89,10.29-8.07,10.52-15.47.17-5.22.42-10.44.63-15.65Z" transform="translate(99.68 68.37)"/>
        <path class="cls-3" d="M410.46,263.24c-.53,1.36-.9,2.25-1.22,3.16q-10.44,30.06-20.86,60.13a15.34,15.34,0,0,1-1,2.46,3.25,3.25,0,0,1-4.1,1.48,3.21,3.21,0,0,1-2-3.64,11.48,11.48,0,0,1,.6-2q12.42-35.82,24.84-71.66c.63-1.83,1.27-3.57,3.58-3.69,1.81-.09,2.81.91,3.8,3.76q12.67,36.3,25.34,72.61a12.39,12.39,0,0,1,.6,2,3.16,3.16,0,0,1-2.19,3.74,3.22,3.22,0,0,1-4-1.73,17,17,0,0,1-.85-2.22q-10.67-30.56-21.32-61.09C411.38,265.58,411,264.63,410.46,263.24Z" transform="translate(99.68 68.37)"/>
        <path class="cls-3" d="M411.16,233.64q3-8.5,5.89-17l15.83-45.89a13.25,13.25,0,0,1,.86-2.22,3.27,3.27,0,0,1,3.87-1.54,3.34,3.34,0,0,1,2.26,3.75,12.43,12.43,0,0,1-.61,2Q427,208.36,414.71,244a12.16,12.16,0,0,1-.89,2.21,3.27,3.27,0,0,1-5.69,0,12.6,12.6,0,0,1-.92-2.2q-12.82-35.26-25.63-70.55a10.85,10.85,0,0,1-.68-2.54,3.25,3.25,0,0,1,6-2,13.81,13.81,0,0,1,1,2.44q10.83,29.79,21.67,59.57c.33.9,1,2.68,1,2.68Z" transform="translate(99.68 68.37)"/>
        <path class="cls-3" d="M301.52,175.63v70.23h3q13.95,0,27.89,0A15.47,15.47,0,0,1,335,246a3.26,3.26,0,0,1,0,6.4,12.33,12.33,0,0,1-2.11.1H299.42a11.53,11.53,0,0,1-1.86-.08,3.05,3.05,0,0,1-2.72-2.81,19,19,0,0,1-.07-2.39v-73c0-.62,0-1.24,0-1.85a3.28,3.28,0,0,1,3.36-3.37c.61-.05,1.24,0,1.86,0h39.3A14.47,14.47,0,0,1,342,169a3.26,3.26,0,0,1,2.6,3.26,3.12,3.12,0,0,1-2.42,3.1,13.31,13.31,0,0,1-2.9.22q-17.13,0-34.25,0Z" transform="translate(99.68 68.37)"/>
        <path class="cls-3" d="M301,322.47h3.35q17.26,0,34.53,0a13.58,13.58,0,0,1,2.39.09,3.25,3.25,0,0,1,2.7,3.17,3.15,3.15,0,0,1-2.55,3.25,10.48,10.48,0,0,1-2.38.19H299.24a14.07,14.07,0,0,1-1.59,0,3.34,3.34,0,0,1-3.29-3.46c-.05-.62,0-1.24,0-1.86V260.33c0-.62,0-1.25,0-1.86.15-2.11,1.43-3.43,3.28-3.45s3.16,1.28,3.36,3.39a23.83,23.83,0,0,1,0,2.39v61.67Z" transform="translate(99.68 68.37)"/>
        <path class="cls-3" d="M135.28,296.91v27.36a21,21,0,0,1-.05,2.38,3.32,3.32,0,0,1-6.63,0c-.06-.79,0-1.59,0-2.39,0-18,0-35.95,0-53.92a16.45,16.45,0,0,0-.67-4.68q-13.6-45.36-27.29-90.7a17.54,17.54,0,0,1-.62-2.31,3.3,3.3,0,0,1,6.24-2,12.51,12.51,0,0,1,.68,2q13.85,46,27.64,92a18.4,18.4,0,0,1,.72,4.95C135.31,278.67,135.28,287.79,135.28,296.91Z" transform="translate(99.68 68.37)"/>
        <path class="cls-3" d="M136.3,256.05a3.32,3.32,0,0,1-3.66-3.59,13.18,13.18,0,0,1,.65-2.56q11.78-38.43,23.56-76.86a13.11,13.11,0,0,1,.94-2.47,3.2,3.2,0,0,1,3.64-1.52,3.27,3.27,0,0,1,2.45,3.37,10.49,10.49,0,0,1-.55,2.31q-11.85,38.7-23.72,77.37a14.77,14.77,0,0,1-.7,2A3.11,3.11,0,0,1,136.3,256.05Z" transform="translate(99.68 68.37)"/>
        <path class="cls-3" d="M536.43,291.69H501.77a12.58,12.58,0,0,1-2.38-.11,3.25,3.25,0,0,1-2.61-3.24,3.1,3.1,0,0,1,2.41-3.1,12.1,12.1,0,0,1,2.89-.24q15.13,0,30.27,0h3.13c-5.17-34.91-10.27-69.44-15.4-104.14H510c-.29,1.63-.63,3.33-.88,5q-5.33,36-10.61,71.92-4.62,31.51-9.23,63l-1.08,7.35a2,2,0,0,1,0,.26c-.46,2.58-2,3.93-4.05,3.56s-2.95-2-2.62-4.49.68-4.72,1-7.09q4.15-27.95,8.29-55.9t8.2-55.92q2.25-15.36,4.58-30.7c.48-3.15,1.38-3.91,4.55-3.94q6.9-.06,13.81,0c3.09,0,4.06.93,4.52,4q4.6,31.25,9.19,62.48,4.36,29.52,8.78,59,1.94,13,3.83,26a15,15,0,0,1,.27,2.9,3.22,3.22,0,0,1-2.78,3.09,3.31,3.31,0,0,1-3.59-2.14,9,9,0,0,1-.34-1.81q-2.34-15.61-4.66-31.23C536.94,294.9,536.71,293.51,536.43,291.69Z" transform="translate(99.68 68.37)"/>
        <path class="cls-3" d="M226.88,175.34H205.23a12.46,12.46,0,0,1-2.12-.07,3.27,3.27,0,0,1-2.78-3.1,3.15,3.15,0,0,1,2.48-3.31,11.08,11.08,0,0,1,2.64-.21q11.42,0,22.83,0c4.45,0,5.29.84,5.3,5.27q.15,46.07.27,92.12.09,29,.24,57.88a19.81,19.81,0,0,1-.12,3.18,3.19,3.19,0,0,1-3.3,2.83,3.26,3.26,0,0,1-3.22-3,16.58,16.58,0,0,1-.06-2.12l-.51-146Z" transform="translate(99.68 68.37)"/>
        <path class="cls-3" d="M248.43,168.93c3.07,0,6.13,0,9.2,0a3.23,3.23,0,0,1,3,1.53,3.3,3.3,0,0,1-1.65,4.92,8.44,8.44,0,0,1-2.46.25c-5.3,0-10.61,0-15.91,0a11.21,11.21,0,0,1-1.74-.07,3.23,3.23,0,0,1-2.89-3.37,3.14,3.14,0,0,1,3-3.22c1.74-.12,3.48,0,5.22-.05h4.23Z" transform="translate(99.68 68.37)"/>
        <path class="cls-3" d="M12.23,250.53V176.46a19.43,19.43,0,0,1,.06-2.65,3.18,3.18,0,0,1,3-2.82,3.11,3.11,0,0,1,3.44,2.63,11.81,11.81,0,0,1,.15,2.38q0,74.59,0,149.2a11,11,0,0,1-.17,2.37,3.17,3.17,0,0,1-3.22,2.6,3.26,3.26,0,0,1-3.24-2.92,19.51,19.51,0,0,1-.06-2.65Z" transform="translate(99.68 68.37)"/>
        <path class="cls-3" d="M66.4,211.86c0,5.57.36,11.17-.08,16.71-.8,10.09-5.42,17.85-15.18,21.79A20.39,20.39,0,0,1,45,251.74c-5.38.35-10.78.44-16.18.63a7.58,7.58,0,0,1-1.58-.08,3.32,3.32,0,0,1-2.74-3.14A3.16,3.16,0,0,1,27,245.87a13.63,13.63,0,0,1,2.64-.2c5.12-.22,10.26-.28,15.37-.69,5.31-.43,9.25-3.28,11.93-7.83a19.33,19.33,0,0,0,2.71-8.79,286.13,286.13,0,0,0-.18-35c-.59-8.7-6.65-15.2-15.76-16.89a60,60,0,0,0-8.71-.57c-2.47-.08-4.95,0-7.43,0a3.25,3.25,0,0,1-3.35-3.09,3.15,3.15,0,0,1,3.2-3.49c6.18,0,12.41-.72,18.51.79,10.32,2.57,17.22,8.75,19.66,19.32a35.25,35.25,0,0,1,.78,7.1c.12,5.13,0,10.27,0,15.4Z" transform="translate(99.68 68.37)"/>
      </g>
    </g>
    <g id="orange" class="orange">
      <g>
        <path class="cls-4" d="M651.42,294.17c0,5.05.08,10.1,0,15.14a45,45,0,0,1-2.08,12.27c-3.63,11.91-11.5,19.5-23.5,22.65a58.51,58.51,0,0,1-28.92.19c-13.61-3.31-22-12-25.12-25.56A67.15,67.15,0,0,1,570.24,306c-.24-8.05-.09-16.11-.07-24.17,0-3.55,1-4.59,4.57-4.6q11.82,0,23.64,0c3.49,0,4.54,1.08,4.55,4.64,0,7.52,0,15,0,22.57a18,18,0,0,0,.65,5c1,3.15,3.41,4.32,8,4.17,3.87-.13,6-1.55,6.78-4.73a16.89,16.89,0,0,0,.51-3.94c.05-6.81,0-13.63,0-20.45a16.17,16.17,0,0,0-2.86-8.7,47.52,47.52,0,0,0-9.8-11.12c-3.5-3-7.14-5.81-10.83-8.56A73.11,73.11,0,0,1,580.69,242a49.45,49.45,0,0,1-10.53-30.82c0-5.84,0-11.69,0-17.53a56.61,56.61,0,0,1,2.12-15.47c3.5-11.8,11.12-19.57,23-22.86a58.35,58.35,0,0,1,29.69-.37c14.1,3.42,22.42,12.58,25.28,26.64a75.39,75.39,0,0,1,1.23,12.92c.19,7.61.06,15.22.06,22.84,0,.44,0,.89,0,1.33-.19,2.24-1.27,3.29-3.57,3.41-1.24.06-2.48,0-3.72,0-6.91,0-13.81,0-20.72,0-3.59,0-4.58-1-4.59-4.56,0-7.44,0-14.87,0-22.31a33,33,0,0,0-.41-4.21,6,6,0,0,0-.55-1.76c-1.55-3.31-4.56-3.65-7.65-3.58-3.92.1-5.86,1.37-6.75,4.4a15.9,15.9,0,0,0-.57,4.18c-.06,5.49,0,11,0,16.47a9.79,9.79,0,0,0,1.45,5.58,71.36,71.36,0,0,0,5.76,7.91,84.25,84.25,0,0,0,14.65,12.65,76,76,0,0,1,15.65,14.26c7.28,9.09,11.22,19.37,11.11,31.1,0,4,0,8,0,11.95ZM577.11,284c-.07.66-.17,1.17-.17,1.68,0,7.35-.1,14.7.09,22a47.72,47.72,0,0,0,1.18,9.45c2.52,11.14,9.29,18.24,20.53,20.85a53.09,53.09,0,0,0,24.72-.06c10.17-2.46,16.74-8.73,19.63-18.83a51.47,51.47,0,0,0,1.82-13.9c.05-7.62,0-15.23,0-22.84a41.59,41.59,0,0,0-8.79-25.9,72.28,72.28,0,0,0-13.8-13.15q-7.16-5.49-14-11.37a43.14,43.14,0,0,1-8.71-10.31,22.75,22.75,0,0,1-3.46-12.34c.08-4.87,0-9.74,0-14.61a25.73,25.73,0,0,1,.55-5.26c1.19-5.3,4.32-8.95,9.78-9.94a24.3,24.3,0,0,1,7.89-.16c5.74.89,9.35,4.4,10.58,10.11a29.43,29.43,0,0,1,.54,5.79c.07,5.66,0,11.33,0,17v3h19.15a18.3,18.3,0,0,0,.2-1.91c0-6.82.11-13.63,0-20.45a58,58,0,0,0-1-9.48c-2.3-11.85-9.16-19.49-21.12-22.15a53.19,53.19,0,0,0-25,.32c-9.93,2.55-16.29,8.86-19.08,18.73a46.84,46.84,0,0,0-1.72,12.85c0,6.28,0,12.57,0,18.85a41.46,41.46,0,0,0,7.44,23.69,60.71,60.71,0,0,0,13.7,14c3.24,2.46,6.52,4.88,9.68,7.45A68.23,68.23,0,0,1,620,269.56a26.48,26.48,0,0,1,5.58,17.05c-.19,5.65,0,11.32-.05,17a33,33,0,0,1-.24,4.77c-.79,5.41-3.43,9.44-8.87,11.16a18.28,18.28,0,0,1-11,0,11.56,11.56,0,0,1-8.19-8,26.33,26.33,0,0,1-1-6.78c-.14-5.92-.05-11.86-.05-17.79v-3Z" transform="translate(99.68 68.37)"/>
        <path class="cls-4" d="M410.56,300.56c-.32.88-.65,1.76-.95,2.65q-6,18-12,36c-1.2,3.57-1.72,3.93-5.55,3.94H369.47c-.54,0-1.07,0-1.6,0-2.65-.22-3.91-2-3.27-4.6a20.71,20.71,0,0,1,.66-2q14-42.3,28.13-84.59a6.82,6.82,0,0,0,0-4.59q-14.11-42.27-28.13-84.58a14.67,14.67,0,0,1-.78-2.81,3.17,3.17,0,0,1,2.91-3.71,12.8,12.8,0,0,1,1.86-.06h23.1c3.51,0,4.08.4,5.18,3.69q6.06,18.12,12.1,36.23c.3.9.64,1.77,1.16,3.19.49-1.35.8-2.14,1.06-2.93q6-18.14,12.06-36.25c1.18-3.56,1.67-3.93,5.26-3.94h23.11c.53,0,1.07,0,1.59,0a3.22,3.22,0,0,1,3.12,4,16.69,16.69,0,0,1-.74,2.54q-13.89,41.79-27.83,83.57a9.77,9.77,0,0,0,0,6.64q14,41.76,27.84,83.56c.22.68.48,1.34.63,2,.61,2.65-.64,4.35-3.32,4.56-.44,0-.88,0-1.33,0h-23.1c-3.43,0-4.09-.48-5.17-3.72q-6.08-18.26-12.12-36.51l-.76-2.25ZM372.48,163c.36,1.17.6,2,.88,2.84Q386.81,206.4,400.31,247a8,8,0,0,1,0,5.38q-13.51,40.53-26.95,81.09l-.93,2.85h19c.39-1,.79-2,1.12-3L407,290a13.91,13.91,0,0,1,.93-2.48,3.26,3.26,0,0,1,5.82,0,12.9,12.9,0,0,1,.82,2.23q7.34,22,14.65,44.07c.27.82.6,1.62.9,2.44h19c-.35-1.1-.64-2-.94-2.91Q434.79,293.19,421.38,253a10.3,10.3,0,0,1,.05-6.93q13.38-40,26.65-80.07c.3-.9.59-1.82,1-3H430c-.43,1.25-.84,2.41-1.23,3.58q-7.1,21.4-14.21,42.81a20.79,20.79,0,0,1-.7,2,3.19,3.19,0,0,1-3.12,2.06,3.24,3.24,0,0,1-3.06-2.16c-.28-.65-.47-1.34-.69-2q-7.22-21.65-14.43-43.3c-.33-1-.72-2-1.12-3Z" transform="translate(99.68 68.37)"/>
        <path class="cls-4" d="M314,188.52v44.72c.93,0,1.86.12,2.79.13h26.82c.62,0,1.24,0,1.86,0,2.83.14,4,1.3,4.05,4.13,0,4.16,0,8.32,0,12.48v10.36c0,4.71-.72,5.45-5.32,5.45H314.11v45H350c.7,0,1.42,0,2.12,0a3.35,3.35,0,0,1,3.19,3,11.45,11.45,0,0,1,.07,1.85q0,11.29,0,22.58c0,3.81-1.07,4.87-4.9,4.87-21.33,0-42.66-.05-64,.06-4.37,0-5.35-1.77-5.35-5.31q.09-70.9,0-141.81,0-17.13,0-34.26c0-.7,0-1.42,0-2.12a3.4,3.4,0,0,1,3.53-3.51c.53,0,1.07,0,1.6,0h64c.53,0,1.06,0,1.59,0a3.41,3.41,0,0,1,3.43,3.35,18.75,18.75,0,0,1,0,2.12c0,7.09-.12,14.17.05,21.25.1,4.56-1.45,5.71-5.55,5.66-10.88-.12-21.77,0-32.66,0Zm-25.94-25.47V336.19h60.36V317.51H312.79a19,19,0,0,1-2.39-.06,3.37,3.37,0,0,1-3.21-3.3c-.05-.52,0-1.06,0-1.59V264a11.53,11.53,0,0,1,.06-1.86,3.24,3.24,0,0,1,3-2.87,21.19,21.19,0,0,1,2.39-.05h30V240.13H312.79c-.62,0-1.24,0-1.86,0-2.48-.14-3.63-1.31-3.76-3.85,0-.44,0-.88,0-1.33V186.87a16.49,16.49,0,0,1,0-1.86,3.43,3.43,0,0,1,3.29-3.22,18.89,18.89,0,0,1,2.13,0h35.84V163.05Z" transform="translate(99.68 68.37)"/>
        <path class="cls-4" d="M132.16,215.49c.46-1.42.79-2.3,1-3.2q6.47-25.59,12.92-51.19c.06-.26.1-.52.16-.78,1-3.63,1.59-4.15,5.3-4.16H176c.54,0,1.07,0,1.6,0a3.23,3.23,0,0,1,3.11,4,13.38,13.38,0,0,1-.55,2q-15.32,49.69-30.6,99.4a20.11,20.11,0,0,0-.87,5.71q-.08,34.78,0,69.58c0,.8,0,1.6,0,2.39-.16,2.52-1.33,3.75-3.86,3.76q-12.48.09-25,0c-2.65,0-3.81-1.29-3.91-4,0-.8,0-1.6,0-2.39q0-34.26,0-68.53a22.52,22.52,0,0,0-1-6.75Q102,220.08,89.29,178.6l-5-16.24c-.16-.5-.32-1-.46-1.52-.7-2.74.58-4.63,3.38-4.65q13.41-.09,26.83,0c2.37,0,3.24.86,3.91,3.51q3.72,14.66,7.41,29.32,3,11.84,6,23.67C131.52,213.43,131.77,214.16,132.16,215.49Zm9.74,120.78v-3.43q0-33.33,0-66.66a17.91,17.91,0,0,1,.82-5.18q14.7-47.94,29.48-95.85c.2-.64.29-1.3.46-2.11H152.58c-.24.89-.47,1.64-.67,2.41q-8.06,31.89-16.11,63.79c-.69,2.76-1.8,3.91-3.62,3.89s-2.88-1.17-3.58-3.95q-6.41-25.47-12.83-50.94c-1.27-5-2.57-10.07-3.83-15-3.31-.6-18.37-.45-20.23.2.23.83.45,1.68.71,2.52q6.66,21.67,13.34,43.35c5.15,16.74,10.24,33.49,15.52,50.19a30.41,30.41,0,0,1,1.39,9.35q-.06,32.15,0,64.27v3.17Z" transform="translate(99.68 68.37)"/>
        <path class="cls-4" d="M525.35,305H504.89c-.34,2.22-.72,4.45-1,6.69-1.14,8.5-2.29,17-3.39,25.51-.63,4.84-.82,6-6.59,5.93-7.08-.13-14.16,0-21.24,0-.53,0-1.06,0-1.59,0-2.76-.14-4.08-1.6-3.74-4.29.82-6.49,1.68-13,2.54-19.46,1.51-11.31,3-22.63,4.57-33.92q2.18-15.37,4.57-30.71c2.17-14.07,4.42-28.12,6.63-42.19l6.66-42.19c.57-3.58,1.11-7.16,1.74-10.73.47-2.67,1.41-3.46,4.12-3.47q17,0,34,0c2.92,0,3.93.91,4.39,3.85q3.81,24.24,7.58,48.49c2.57,16.34,5.24,32.66,7.72,49,2,12.94,3.76,25.9,5.55,38.87,1.76,12.7,3.4,25.42,5.1,38.13.19,1.4.4,2.8.56,4.21.31,2.68-1,4.36-3.65,4.38q-12.75.09-25.49,0c-2.31,0-3.39-1-3.72-3.31-.91-6.39-1.74-12.8-2.59-19.2-.59-4.47-1.16-8.94-1.76-13.41C525.73,306.5,525.52,305.82,525.35,305Zm-25.16-142c-8.85,57.7-18.94,115.08-25.64,173.15h19.24c.29-2.06.59-4.05.86-6.05,1.27-9.47,2.51-18.94,3.81-28.4.35-2.54,1.49-3.57,4.1-3.58q12.6-.06,25.22,0c2.6,0,3.71,1.07,4.05,3.61,1.09,8.15,2.15,16.31,3.23,24.46.44,3.32.91,6.63,1.37,10h19.33c-6.66-58.08-16.71-115.46-25.55-173.16Z" transform="translate(99.68 68.37)"/>
        <path class="cls-4" d="M214.25,188.52h-18.2c-5.52,0-6.1-.57-6.1-6.05q0-10.36,0-20.71a19,19,0,0,1,.06-2.39,3.25,3.25,0,0,1,3.28-3.18c.7-.06,1.41,0,2.12,0h70.36c.71,0,1.42,0,2.12,0a3.42,3.42,0,0,1,3.47,3.32,11.81,11.81,0,0,1,0,1.33c0,7.61,0,15.22,0,22.83,0,3.8-1.08,4.85-4.93,4.86H247V337.05c0,.8,0,1.6,0,2.39-.15,2.35-1.32,3.57-3.66,3.68-1.77.08-3.54,0-5.31,0-6.29,0-12.57,0-18.86,0-3.85,0-4.92-1-4.92-4.85q0-15.79,0-31.59V188.52Zm-17.49-6.76H204c4.33,0,8.67,0,13,0,2.67,0,3.85,1.27,3.95,3.92,0,.79,0,1.59,0,2.39V336.18h19.24V309.73q0-61.35,0-122.71c0-4.33.94-5.26,5.32-5.26h16.2c.86,0,1.72-.08,2.54-.12.52-3.18.42-16.69-.12-18.56-4.24-.48-65.38-.28-67.44.25Z" transform="translate(99.68 68.37)"/>
        <path class="cls-4" d="M32.79,265.78V337c0,5.61-.57,6.16-6.28,6.16H5.26a15,15,0,0,1-2.12-.06,3.34,3.34,0,0,1-3.06-3.15,21,21,0,0,1,0-2.38q0-87.92,0-175.81c0-4.47,1.18-5.67,5.51-5.62,12.22.13,24.44.06,36.65.06A46.07,46.07,0,0,1,55,157.94c12.3,3.57,19.57,12,22.46,24.19a63.67,63.67,0,0,1,1.65,13.12c.24,10.44.1,20.89.08,31.34a42.08,42.08,0,0,1-1.92,12.55c-4.44,14.09-14.41,22.14-28.45,25.35-4.18.95-8.6.9-12.91,1.27C35,265.85,34,265.78,32.79,265.78Zm-6.74,70.59V289.26q0-12.88,0-25.76c0-3.21,1.1-4.27,4.31-4.31,2.12,0,4.25,0,6.37-.05,7.15-.19,14.06-1.26,20.44-4.87A27.55,27.55,0,0,0,71,236.61a34.47,34.47,0,0,0,1.29-8.1q.21-17.79,0-35.58a41.76,41.76,0,0,0-1.17-8.66c-2.47-10.94-8.94-18.12-20.14-20.4a55.22,55.22,0,0,0-10.28-.94c-10.27-.12-20.54-.05-30.81,0C9,162.89,8,163,7,163V336.37H26.05Z" transform="translate(99.68 68.37)"/>
        <path class="cls-4" d="M515,279.16c-3,0-6,0-9,0-3.2-.08-4.34-1.31-4-4.52.93-7.64,2-15.26,3-22.89q2.25-17.1,4.53-34.19c.73-5.52,1.44-11.05,2.19-16.57.3-2.23,1.52-3.4,3.37-3.42s3.12,1.16,3.42,3.35c1.28,9.56,2.52,19.12,3.79,28.67q2.25,17.1,4.53,34.19c.48,3.6,1,7.19,1.37,10.79.36,3.33-.75,4.53-4.15,4.59C521,279.2,518,279.16,515,279.16Zm6.18-6.83c-2-14.83-3.91-29.49-5.85-44.14l-.47,0c-1.94,14.67-3.88,29.34-5.84,44.12Z" transform="translate(99.68 68.37)"/>
        <path class="cls-4" d="M26.05,210.9q0-12.21,0-24.41c0-3.66,1.06-4.71,4.73-4.73,2.83,0,5.66-.06,8.48,0,8.21.25,13.32,5.21,13.87,13.41.07,1.06.06,2.12.06,3.18,0,8.75,0,17.51,0,26.26a16.36,16.36,0,0,1-1.54,7.46c-2.1,4.24-5.4,7.08-10.16,7.58a114.82,114.82,0,0,1-12.17.4c-2.11,0-3.24-1.41-3.28-3.71-.06-3.89,0-7.78,0-11.67Zm6.87,22.47c1.11,0,1.9,0,2.68,0,1.41,0,2.83,0,4.24-.16a6.82,6.82,0,0,0,6.4-6,25,25,0,0,0,.3-4q0-12.47,0-24.92a25.89,25.89,0,0,0-.38-4.48c-.51-2.79-2.15-4.77-5-5.06a80,80,0,0,0-8.21-.06Z" transform="translate(99.68 68.37)"/>
      </g>
    </g>
  </defs>
  <title>neon</title>
  <g id="Black">
    <rect width="100%" height="100%" fill="black"/>
  </g>
  <use href="#blue"/>
  <use href="#blue" filter="url(#shadow)" />
  <use
    href="#blue"
    fill="var(--color-neon-glow)"
    filter="url(#glow)"
    style="transition: 'fill 0.5s ease-in'"
  />
  <use
    href="#blue"
    fill="var(--color-neon-fill)"
    style="transition: 'fill 0.3s ease-in'"
  />

  <use href="#yellow"/>
  <use href="#yellow" filter="url(#shadow)" />
  <use
    href="#yellow"
    fill="var(--color-neon-glow)"
    filter="url(#glow)"
    style="transition: 'fill 0.5s ease-in'"
  />
  <use
    href="#yellow"
    fill="var(--color-neon-fill)"
    style="transition: 'fill 0.3s ease-in'"
  />

  <use href="#orange" class="orange"/>
  <use href="#orange" filter="url(#shadow)" class="orange"/>
  <use
    href="#orange"
    fill="var(--color-neon-glow)"
    filter="url(#glow)"
    style="transition: 'fill 0.5s ease-in'"
    class="orange"
  />
  <use
    href="#orange"
    fill="var(--color-neon-fill)"
    style="transition: 'fill 0.3s ease-in'"
    class="orange"
  />

  <use href="#white" class="white"/>
  <use href="#white" filter="url(#shadow)" class="white"/>
  <use
    href="#white"
    fill="var(--color-neon-glow)"
    filter="url(#glow)"
    style="transition: 'fill 0.5s ease-in'"
    class="white"
  />
  <use
    href="#white"
    fill="var(--color-neon-fill)"
    style="transition: 'fill 0.3s ease-in'"
    class="white"
  />

</svg>
