<svg version="1.1" viewBox="0.0 0.0 1046.0 647.0" fill="none" stroke="none" stroke-linecap="square" stroke-miterlimit="10" width="1046" height="647" xmlns:xlink="http://www.w3.org/1999/xlink" xmlns="http://www.w3.org/2000/svg"><path fill="#ffffff" d="M0 0L1046.0 0L1046.0 647.0L0 647.0L0 0Z" fill-rule="nonzero"/><path fill="#d77659" d="M523.0 32.35C594.2804 32.35 663.0843 58.498856 716.3724 105.841L619.6862 214.6705C593.0422 190.99944 558.6402 177.925 523.0 177.925Z" fill-rule="nonzero"/><path fill="#ab4028" d="M716.3724 105.841C835.8111 211.95259 847.4285 394.49097 742.40576 514.8882L632.7029 419.1941C685.2143 358.99548 679.4055 267.7263 619.6862 214.6705Z" fill-rule="nonzero"/><path fill="#50a6a6" d="M233.8759 289.21335C251.25003 142.70488 375.46494 32.35 523.0 32.35L523.0 177.925C449.23248 177.925 387.12503 233.10245 378.43796 306.3567Z" fill-rule="nonzero"/><path fill="#457d7c" d="M404.90073 589.62195C288.18326 537.8252 218.83824 416.01926 233.8759 289.21335L378.43796 306.3567C370.91913 369.7596 405.59164 430.6626 463.95035 456.56097Z" fill-rule="nonzero"/><path fill="#004552" d="M742.40576 514.8882C658.4655 611.1166 521.61816 641.41864 404.90073 589.62195L463.95035 456.56097C522.3091 482.45932 590.7328 467.3083 632.7029 419.1941Z" fill-rule="nonzero"/><path stroke="#ffffff" stroke-width="1.0" stroke-linejoin="round" stroke-linecap="round" d="M619.6862 214.6705C593.0422 190.99944 558.6402 177.925 523.0 177.925L523.0 32.35C594.2804 32.35 663.0843 58.498856 716.3724 105.841" fill-rule="nonzero"/><path stroke="#ffffff" stroke-width="1.0" stroke-linejoin="round" stroke-linecap="round" d="M632.7029 419.1941C685.2143 358.99548 679.4055 267.7263 619.6862 214.6705L716.3724 105.841C835.8111 211.95259 847.4285 394.49097 742.40576 514.8882" fill-rule="nonzero"/><path stroke="#ffffff" stroke-width="1.0" stroke-linejoin="round" stroke-linecap="round" d="M463.95035 456.56097C522.3091 482.45932 590.7328 467.3083 632.7029 419.1941L742.40576 514.8882C658.4655 611.1166 521.61816 641.41864 404.90073 589.62195" fill-rule="nonzero"/><path stroke="#ffffff" stroke-width="1.0" stroke-linejoin="round" stroke-linecap="round" d="M378.43796 306.3567C370.91913 369.7596 405.59164 430.6626 463.95035 456.56097L404.90073 589.62195C288.18326 537.8252 218.83824 416.01926 233.8759 289.21335" fill-rule="nonzero"/><path stroke="#ffffff" stroke-width="1.0" stroke-linejoin="round" stroke-linecap="round" d="M523.0 177.925C449.23248 177.925 387.12503 233.10245 378.43796 306.3567L233.8759 289.21335C251.25003 142.70488 375.46494 32.35 523.0 32.35" fill-rule="nonzero"/><path fill="#000000" d="M40.896873 109.22395L38.709373 109.22395L38.709373 94.77083L34.35 96.3802L34.35 94.41145L40.553123 92.08333L40.896873 92.08333L40.896873 109.22395ZM47.771873 100.66145L48.63125 92.16145L57.38125 92.16145L57.38125 94.16145L50.475 94.16145L49.959373 98.8177Q51.209373 98.08333 52.803123 98.08333Q55.13125 98.08333 56.50625 99.6302Q57.88125 101.16145 57.88125 103.78645Q57.88125 106.42708 56.459373 107.9427Q55.0375 109.45833 52.475 109.45833Q50.209373 109.45833 48.771873 108.20833Q47.35 106.9427 47.1625 104.73958L49.209373 104.73958Q49.4125 106.1927 50.25625 106.9427Q51.1 107.6927 52.475 107.6927Q53.990623 107.6927 54.85 106.66145Q55.709373 105.6302 55.709373 103.80208Q55.709373 102.09895 54.771873 101.0677Q53.85 100.02083 52.303123 100.02083Q50.88125 100.02083 50.06875 100.64583L49.50625 101.11458L47.771873 100.66145ZM66.20937 100.0677L70.95937 100.0677L70.95937 102.11458L66.20937 102.11458L66.20937 107.5052L64.02187 107.5052L64.02187 102.11458L59.271873 102.11458L59.271873 100.0677L64.02187 100.0677L64.02187 95.08333L66.20937 95.08333L66.20937 100.0677ZM84.14687 106.05208L87.1 96.53645L89.4125 96.53645L84.31875 111.17708Q83.13125 114.34895 80.55312 114.34895L80.14687 114.3177L79.33437 114.16145L79.33437 112.39583L79.92812 112.4427Q81.02187 112.4427 81.63125 111.98958Q82.25625 111.55208 82.64687 110.3802L83.13125 109.08333L78.61562 96.53645L80.975 96.53645L84.14687 106.05208ZM96.25625 109.45833Q93.67812 109.45833 92.05312 107.77083Q90.44375 106.0677 90.44375 103.23958L90.44375 102.83333Q90.44375 100.9427 91.1625 99.47395Q91.88125 97.98958 93.17812 97.14583Q94.475 96.30208 95.99062 96.30208Q98.45937 96.30208 99.81875 97.9427Q101.19375 99.5677 101.19375 102.59895L101.19375 103.5052L92.61562 103.5052Q92.6625 105.3802 93.70937 106.53645Q94.75625 107.6927 96.36562 107.6927Q97.52187 107.6927 98.31875 107.22395Q99.11562 106.7552 99.70937 105.97395L101.0375 107.0052Q99.44375 109.45833 96.25625 109.45833ZM95.99062 98.08333Q94.67812 98.08333 93.7875 99.05208Q92.89687 100.0052 92.67812 101.72395L99.0375 101.72395L99.0375 101.55208Q98.94375 99.91145 98.14687 99.0052Q97.35 98.08333 95.99062 98.08333ZM111.81875 109.22395Q111.63125 108.84895 111.52187 107.8802Q110.00625 109.45833 107.9125 109.45833Q106.0375 109.45833 104.83437 108.39583Q103.63125 107.33333 103.63125 105.70833Q103.63125 103.72395 105.13125 102.6302Q106.64687 101.53645 109.36562 101.53645L111.475 101.53645L111.475 100.53645Q111.475 99.39583 110.7875 98.72395Q110.11562 98.05208 108.80312 98.05208Q107.63125 98.05208 106.85 98.64583Q106.06875 99.22395 106.06875 100.05208L103.88125 100.05208Q103.88125 99.11458 104.55312 98.22395Q105.24062 97.33333 106.38125 96.8177Q107.5375 96.30208 108.92812 96.30208Q111.11562 96.30208 112.35 97.41145Q113.6 98.5052 113.64687 100.42708L113.64687 106.2552Q113.64687 108.0052 114.1 109.03645L114.1 109.22395L111.81875 109.22395ZM108.225 107.5677Q109.24062 107.5677 110.14687 107.05208Q111.06875 106.52083 111.475 105.67708L111.475 103.0677L109.7875 103.0677Q105.80312 103.0677 105.80312 105.39583Q105.80312 106.42708 106.475 107.0052Q107.1625 107.5677 108.225 107.5677ZM123.11562 98.48958Q122.63125 98.41145 122.05312 98.41145Q119.92812 98.41145 119.1625 100.22395L119.1625 109.22395L116.99062 109.22395L116.99062 96.53645L119.1 96.53645L119.13125 98.0052Q120.20937 96.30208 122.1625 96.30208Q122.7875 96.30208 123.11562 96.47395L123.11562 98.48958ZM132.38126 105.86458Q132.38126 104.97395 131.70938 104.48958Q131.05313 104.0052 129.39688 103.66145Q127.75625 103.30208 126.7875 102.8177Q125.81875 102.3177 125.35 101.64583Q124.89687 100.95833 124.89687 100.02083Q124.89687 98.45833 126.20937 97.3802Q127.5375 96.30208 129.58438 96.30208Q131.74063 96.30208 133.08438 97.42708Q134.42813 98.53645 134.42813 100.27083L132.24063 100.27083Q132.24063 99.3802 131.49063 98.73958Q130.74063 98.08333 129.58438 98.08333Q128.39688 98.08333 127.725 98.59895Q127.06875 99.11458 127.06875 99.95833Q127.06875 100.73958 127.67812 101.14583Q128.30313 101.53645 129.92813 101.89583Q131.55313 102.2552 132.55313 102.77083Q133.56876 103.27083 134.05313 103.98958Q134.5375 104.6927 134.5375 105.70833Q134.5375 107.41145 133.17813 108.4427Q131.81876 109.45833 129.6625 109.45833Q128.13126 109.45833 126.95937 108.92708Q125.7875 108.3802 125.11562 107.41145Q124.45937 106.4427 124.45937 105.3177L126.63125 105.3177Q126.69375 106.41145 127.50625 107.05208Q128.31876 107.6927 129.6625 107.6927Q130.88126 107.6927 131.63126 107.1927Q132.38126 106.6927 132.38126 105.86458Z" fill-rule="nonzero"/><path fill="#9e9e9e" d="M44.94375 141.22395L33.771873 141.22395L33.771873 139.66145L39.678123 133.09895Q40.990623 131.61458 41.490623 130.6927Q41.990623 129.7552 41.990623 128.7552Q41.990623 127.41145 41.178123 126.5677Q40.365623 125.70833 39.021873 125.70833Q37.396873 125.70833 36.50625 126.6302Q35.615623 127.55208 35.615623 129.1927L33.44375 129.1927Q33.44375 126.83333 34.959373 125.3802Q36.475 123.92708 39.021873 123.92708Q41.396873 123.92708 42.771873 125.17708Q44.1625 126.42708 44.1625 128.48958Q44.1625 131.02083 40.959373 134.48958L36.38125 139.45833L44.94375 139.45833L44.94375 141.22395ZM49.928123 131.6302L51.553123 131.6302Q53.084373 131.61458 53.959373 130.83333Q54.85 130.03645 54.85 128.70833Q54.85 125.70833 51.85 125.70833Q50.44375 125.70833 49.6 126.52083Q48.771873 127.3177 48.771873 128.6302L46.6 128.6302Q46.6 126.61458 48.084373 125.27083Q49.56875 123.92708 51.85 123.92708Q54.271873 123.92708 55.63125 125.20833Q57.00625 126.47395 57.00625 128.7552Q57.00625 129.86458 56.2875 130.91145Q55.56875 131.95833 54.334373 132.47395Q55.740623 132.91145 56.50625 133.9427Q57.271873 134.97395 57.271873 136.45833Q57.271873 138.7552 55.771873 140.11458Q54.271873 141.45833 51.865623 141.45833Q49.459373 141.45833 47.959373 140.16145Q46.459373 138.84895 46.459373 136.72395L48.63125 136.72395Q48.63125 138.0677 49.50625 138.8802Q50.396873 139.6927 51.865623 139.6927Q53.44375 139.6927 54.271873 138.8802Q55.1 138.05208 55.1 136.5052Q55.1 135.02083 54.178123 134.22395Q53.271873 133.42708 51.553123 133.41145L49.928123 133.41145L49.928123 131.6302ZM60.0375 140.08333Q60.0375 139.52083 60.365623 139.14583Q60.709373 138.77083 61.365623 138.77083Q62.0375 138.77083 62.38125 139.14583Q62.740623 139.52083 62.740623 140.08333Q62.740623 140.6302 62.38125 140.98958Q62.0375 141.34895 61.365623 141.34895Q60.709373 141.34895 60.365623 140.98958Q60.0375 140.6302 60.0375 140.08333ZM72.89687 141.22395L70.70937 141.22395L70.70937 126.77083L66.35 128.3802L66.35 126.41145L72.55312 124.08333L72.89687 124.08333L72.89687 141.22395ZM78.58437 127.4427Q78.58437 125.91145 79.55312 124.91145Q80.5375 123.91145 82.06875 123.91145Q83.63125 123.91145 84.6 124.91145Q85.56875 125.91145 85.56875 127.5052L85.56875 128.34895Q85.56875 129.89583 84.58437 130.8802Q83.61562 131.84895 82.1 131.84895Q80.56875 131.84895 79.56875 130.8802Q78.58437 129.89583 78.58437 128.2552L78.58437 127.4427ZM80.19375 128.34895Q80.19375 129.2552 80.70937 129.84895Q81.225 130.4427 82.1 130.4427Q82.92812 130.4427 83.42812 129.86458Q83.94375 129.28645 83.94375 128.30208L83.94375 127.4427Q83.94375 126.52083 83.44375 125.92708Q82.94375 125.33333 82.06875 125.33333Q81.20937 125.33333 80.69375 125.92708Q80.19375 126.52083 80.19375 127.48958L80.19375 128.34895ZM86.89687 137.03645Q86.89687 135.5052 87.86562 134.52083Q88.85 133.52083 90.38125 133.52083Q91.9125 133.52083 92.89687 134.5052Q93.88125 135.48958 93.88125 137.11458L93.88125 137.95833Q93.88125 139.48958 92.89687 140.48958Q91.92812 141.47395 90.39687 141.47395Q88.88125 141.47395 87.88125 140.48958Q86.89687 139.5052 86.89687 137.8802L86.89687 137.03645ZM88.50625 137.95833Q88.50625 138.8802 89.02187 139.47395Q89.5375 140.0677 90.4125 140.0677Q91.25625 140.0677 91.75625 139.48958Q92.25625 138.89583 92.25625 137.91145L92.25625 137.03645Q92.25625 136.11458 91.74062 135.53645Q91.24062 134.9427 90.38125 134.9427Q89.55312 134.9427 89.02187 135.52083Q88.50625 136.09895 88.50625 137.08333L88.50625 137.95833ZM82.58437 139.92708L81.36562 139.16145L89.69375 125.8177L90.92812 126.59895L82.58437 139.92708Z" fill-rule="nonzero"/><path stroke="#757575" stroke-width="1.0" stroke-linecap="butt" d="M32.35 116.72395L225.85 116.72395L339.29623 116.72395" fill-rule="nonzero"/><path fill="#9e9e9e" d="M341.29623 116.72395C341.29623 115.619385 340.4008 114.72395 339.29623 114.72395C338.19165 114.72395 337.29623 115.619385 337.29623 116.72395C337.29623 117.82852 338.19165 118.72395 339.29623 118.72395C340.4008 118.72395 341.29623 117.82852 341.29623 116.72395" fill-rule="nonzero"/><path fill="#000000" d="M44.7875 437.00003L37.725 452.84378L35.44375 452.84378L42.490623 437.56253L33.25625 437.56253L33.25625 435.78128L44.7875 435.78128L44.7875 437.00003ZM57.50625 446.4844L51.7875 446.4844L51.7875 444.70316L57.50625 444.70316L57.50625 446.4844ZM72.89687 452.84378L70.70937 452.84378L70.70937 438.39066L66.35 440.00003L66.35 438.03128L72.55312 435.70316L72.89687 435.70316L72.89687 452.84378ZM79.77187 444.28128L80.63125 435.78128L89.38125 435.78128L89.38125 437.78128L82.475 437.78128L81.95937 442.43753Q83.20937 441.70316 84.80312 441.70316Q87.13125 441.70316 88.50625 443.25003Q89.88125 444.78128 89.88125 447.40628Q89.88125 450.0469 88.45937 451.56253Q87.0375 453.07816 84.475 453.07816Q82.20937 453.07816 80.77187 451.82816Q79.35 450.56253 79.1625 448.3594L81.20937 448.3594Q81.4125 449.81253 82.25625 450.56253Q83.1 451.31253 84.475 451.31253Q85.99062 451.31253 86.85 450.28128Q87.70937 449.25003 87.70937 447.4219Q87.70937 445.71878 86.77187 444.68753Q85.85 443.64066 84.30312 443.64066Q82.88125 443.64066 82.06875 444.26566L81.50625 444.7344L79.77187 444.28128ZM102.14687 449.6719L105.1 440.15628L107.4125 440.15628L102.31875 454.7969Q101.13125 457.96878 98.55312 457.96878L98.14687 457.93753L97.33437 457.78128L97.33437 456.01566L97.92812 456.06253Q99.02187 456.06253 99.63125 455.6094Q100.25625 455.1719 100.64687 454.00003L101.13125 452.70316L96.61562 440.15628L98.975 440.15628L102.14687 449.6719ZM114.25625 453.07816Q111.67812 453.07816 110.05312 451.39066Q108.44375 449.68753 108.44375 446.8594L108.44375 446.45316Q108.44375 444.56253 109.1625 443.09378Q109.88125 441.6094 111.17812 440.76566Q112.475 439.9219 113.99062 439.9219Q116.45937 439.9219 117.81875 441.56253Q119.19375 443.18753 119.19375 446.21878L119.19375 447.12503L110.61562 447.12503Q110.6625 449.00003 111.70937 450.15628Q112.75625 451.31253 114.36562 451.31253Q115.52187 451.31253 116.31875 450.84378Q117.11562 450.37503 117.70937 449.59378L119.0375 450.62503Q117.44375 453.07816 114.25625 453.07816ZM113.99062 441.70316Q112.67812 441.70316 111.7875 442.6719Q110.89687 443.62503 110.67812 445.34378L117.0375 445.34378L117.0375 445.1719Q116.94375 443.53128 116.14687 442.62503Q115.35 441.70316 113.99062 441.70316ZM129.81876 452.84378Q129.63126 452.46878 129.52188 451.50003Q128.00626 453.07816 125.9125 453.07816Q124.0375 453.07816 122.83437 452.01566Q121.63125 450.95316 121.63125 449.32816Q121.63125 447.34378 123.13125 446.25003Q124.64687 445.15628 127.36562 445.15628L129.475 445.15628L129.475 444.15628Q129.475 443.01566 128.7875 442.34378Q128.11563 441.6719 126.80312 441.6719Q125.63125 441.6719 124.85 442.26566Q124.06875 442.84378 124.06875 443.6719L121.88125 443.6719Q121.88125 442.7344 122.55312 441.84378Q123.24062 440.95316 124.38125 440.43753Q125.5375 439.9219 126.92812 439.9219Q129.11563 439.9219 130.35 441.03128Q131.6 442.12503 131.64688 444.0469L131.64688 449.87503Q131.64688 451.62503 132.1 452.65628L132.1 452.84378L129.81876 452.84378ZM126.225 451.18753Q127.24062 451.18753 128.14688 450.6719Q129.06876 450.14066 129.475 449.2969L129.475 446.68753L127.7875 446.68753Q123.80312 446.68753 123.80312 449.01566Q123.80312 450.0469 124.475 450.62503Q125.1625 451.18753 126.225 451.18753ZM141.11563 442.1094Q140.63126 442.03128 140.05313 442.03128Q137.92813 442.03128 137.1625 443.84378L137.1625 452.84378L134.99063 452.84378L134.99063 440.15628L137.1 440.15628L137.13126 441.62503Q138.20938 439.9219 140.1625 439.9219Q140.7875 439.9219 141.11563 440.09378L141.11563 442.1094ZM150.38126 449.4844Q150.38126 448.59378 149.70938 448.1094Q149.05313 447.62503 147.39688 447.28128Q145.75626 446.9219 144.7875 446.43753Q143.81876 445.93753 143.35 445.26566Q142.89688 444.57816 142.89688 443.64066Q142.89688 442.07816 144.20938 441.00003Q145.5375 439.9219 147.58438 439.9219Q149.74063 439.9219 151.08438 441.0469Q152.42813 442.15628 152.42813 443.89066L150.24063 443.89066Q150.24063 443.00003 149.49063 442.3594Q148.74063 441.70316 147.58438 441.70316Q146.39688 441.70316 145.725 442.21878Q145.06876 442.7344 145.06876 443.57816Q145.06876 444.3594 145.67813 444.76566Q146.30313 445.15628 147.92813 445.51566Q149.55313 445.87503 150.55313 446.39066Q151.56876 446.89066 152.05313 447.6094Q152.5375 448.31253 152.5375 449.32816Q152.5375 451.03128 151.17813 452.06253Q149.81876 453.07816 147.6625 453.07816Q146.13126 453.07816 144.95938 452.5469Q143.7875 452.00003 143.11563 451.03128Q142.45938 450.06253 142.45938 448.93753L144.63126 448.93753Q144.69376 450.03128 145.50626 450.6719Q146.31876 451.31253 147.6625 451.31253Q148.88126 451.31253 149.63126 450.81253Q150.38126 450.31253 150.38126 449.4844Z" fill-rule="nonzero"/><path fill="#9e9e9e" d="M44.94375 484.84378L33.771873 484.84378L33.771873 483.28128L39.678123 476.71878Q40.990623 475.2344 41.490623 474.31253Q41.990623 473.37503 41.990623 472.37503Q41.990623 471.03128 41.178123 470.18753Q40.365623 469.32816 39.021873 469.32816Q37.396873 469.32816 36.50625 470.25003Q35.615623 471.1719 35.615623 472.81253L33.44375 472.81253Q33.44375 470.45316 34.959373 469.00003Q36.475 467.5469 39.021873 467.5469Q41.396873 467.5469 42.771873 468.7969Q44.1625 470.0469 44.1625 472.1094Q44.1625 474.64066 40.959373 478.1094L36.38125 483.07816L44.94375 483.07816L44.94375 484.84378ZM57.475 477.56253Q57.475 481.37503 56.1625 483.2344Q54.865623 485.07816 52.1 485.07816Q49.365623 485.07816 48.053123 483.26566Q46.740623 481.45316 46.69375 477.8594L46.69375 474.96878Q46.69375 471.20316 47.990623 469.37503Q49.303123 467.5469 52.084373 467.5469Q54.834373 467.5469 56.13125 469.31253Q57.428123 471.07816 57.475 474.75003L57.475 477.56253ZM55.303123 474.59378Q55.303123 471.84378 54.521873 470.59378Q53.75625 469.32816 52.084373 469.32816Q50.4125 469.32816 49.646873 470.57816Q48.896873 471.82816 48.865623 474.43753L48.865623 477.90628Q48.865623 480.6719 49.6625 482.00003Q50.475 483.31253 52.1 483.31253Q53.709373 483.31253 54.490623 482.07816Q55.271873 480.82816 55.303123 478.15628L55.303123 474.59378ZM60.0375 483.70316Q60.0375 483.14066 60.365623 482.76566Q60.709373 482.39066 61.365623 482.39066Q62.0375 482.39066 62.38125 482.76566Q62.740623 483.14066 62.740623 483.70316Q62.740623 484.25003 62.38125 484.6094Q62.0375 484.96878 61.365623 484.96878Q60.709373 484.96878 60.365623 484.6094Q60.0375 484.25003 60.0375 483.70316ZM76.94375 484.84378L65.77187 484.84378L65.77187 483.28128L71.67812 476.71878Q72.99062 475.2344 73.49062 474.31253Q73.99062 473.37503 73.99062 472.37503Q73.99062 471.03128 73.17812 470.18753Q72.36562 469.32816 71.02187 469.32816Q69.39687 469.32816 68.50625 470.25003Q67.61562 471.1719 67.61562 472.81253L65.44375 472.81253Q65.44375 470.45316 66.95937 469.00003Q68.475 467.5469 71.02187 467.5469Q73.39687 467.5469 74.77187 468.7969Q76.1625 470.0469 76.1625 472.1094Q76.1625 474.64066 72.95937 478.1094L68.38125 483.07816L76.94375 483.07816L76.94375 484.84378ZM78.58437 471.06253Q78.58437 469.53128 79.55312 468.53128Q80.5375 467.53128 82.06875 467.53128Q83.63125 467.53128 84.6 468.53128Q85.56875 469.53128 85.56875 471.12503L85.56875 471.96878Q85.56875 473.51566 84.58437 474.50003Q83.61562 475.46878 82.1 475.46878Q80.56875 475.46878 79.56875 474.50003Q78.58437 473.51566 78.58437 471.87503L78.58437 471.06253ZM80.19375 471.96878Q80.19375 472.87503 80.70937 473.46878Q81.225 474.06253 82.1 474.06253Q82.92812 474.06253 83.42812 473.4844Q83.94375 472.90628 83.94375 471.9219L83.94375 471.06253Q83.94375 470.14066 83.44375 469.5469Q82.94375 468.95316 82.06875 468.95316Q81.20937 468.95316 80.69375 469.5469Q80.19375 470.14066 80.19375 471.1094L80.19375 471.96878ZM86.89687 480.65628Q86.89687 479.12503 87.86562 478.14066Q88.85 477.14066 90.38125 477.14066Q91.9125 477.14066 92.89687 478.12503Q93.88125 479.1094 93.88125 480.7344L93.88125 481.57816Q93.88125 483.1094 92.89687 484.1094Q91.92812 485.09378 90.39687 485.09378Q88.88125 485.09378 87.88125 484.1094Q86.89687 483.12503 86.89687 481.50003L86.89687 480.65628ZM88.50625 481.57816Q88.50625 482.50003 89.02187 483.09378Q89.5375 483.68753 90.4125 483.68753Q91.25625 483.68753 91.75625 483.1094Q92.25625 482.51566 92.25625 481.53128L92.25625 480.65628Q92.25625 479.7344 91.74062 479.15628Q91.24062 478.56253 90.38125 478.56253Q89.55312 478.56253 89.02187 479.14066Q88.50625 479.71878 88.50625 480.70316L88.50625 481.57816ZM82.58437 483.5469L81.36562 482.78128L89.69375 469.43753L90.92812 470.21878L82.58437 483.5469Z" fill-rule="nonzero"/><path stroke="#757575" stroke-width="1.0" stroke-linecap="butt" d="M32.35 460.34378L225.85 460.34378L282.63113 460.34378" fill-rule="nonzero"/><path fill="#9e9e9e" d="M284.63113 460.34378C284.63113 459.2392 283.7357 458.34378 282.63113 458.34378C281.52655 458.34378 280.63113 459.2392 280.63113 460.34378C280.63113 461.44833 281.52655 462.34378 282.63113 462.34378C283.7357 462.34378 284.63113 461.44833 284.63113 460.34378" fill-rule="nonzero"/><path fill="#000000" d="M844.9 55.60634L852.97815 55.60634L852.97815 57.45009L842.6344 57.45009L842.6344 40.38759L844.9 40.38759L844.9 55.60634ZM860.5563 57.684464Q857.97815 57.684464 856.35315 55.996964Q854.7438 54.29384 854.7438 51.465714L854.7438 51.059464Q854.7438 49.16884 855.4625 47.70009Q856.1813 46.215714 857.47815 45.371964Q858.775 44.528214 860.29065 44.528214Q862.7594 44.528214 864.1188 46.16884Q865.4938 47.79384 865.4938 50.82509L865.4938 51.73134L856.91565 51.73134Q856.9625 53.60634 858.0094 54.76259Q859.0563 55.91884 860.66565 55.91884Q861.8219 55.91884 862.6188 55.45009Q863.41565 54.98134 864.0094 54.20009L865.3375 55.23134Q863.7438 57.684464 860.5563 57.684464ZM860.29065 46.309464Q858.97815 46.309464 858.0875 47.278214Q857.1969 48.23134 856.97815 49.95009L863.3375 49.95009L863.3375 49.778214Q863.2438 48.13759 862.4469 47.23134Q861.65 46.309464 860.29065 46.309464ZM875.6813 54.090714Q875.6813 53.20009 875.0094 52.715714Q874.35315 52.23134 872.6969 51.88759Q871.0563 51.528214 870.0875 51.04384Q869.1188 50.54384 868.65 49.871964Q868.1969 49.184464 868.1969 48.246964Q868.1969 46.684464 869.5094 45.60634Q870.8375 44.528214 872.8844 44.528214Q875.04065 44.528214 876.3844 45.653214Q877.72815 46.76259 877.72815 48.496964L875.54065 48.496964Q875.54065 47.60634 874.79065 46.965714Q874.04065 46.309464 872.8844 46.309464Q871.6969 46.309464 871.025 46.82509Q870.3688 47.340714 870.3688 48.184464Q870.3688 48.965714 870.97815 49.371964Q871.60315 49.76259 873.22815 50.121964Q874.85315 50.48134 875.85315 50.996964Q876.8688 51.496964 877.35315 52.215714Q877.8375 52.91884 877.8375 53.934464Q877.8375 55.63759 876.47815 56.66884Q875.1188 57.684464 872.9625 57.684464Q871.4313 57.684464 870.2594 57.153214Q869.0875 56.60634 868.41565 55.63759Q867.7594 54.66884 867.7594 53.54384L869.9313 53.54384Q869.9938 54.63759 870.8063 55.278214Q871.6188 55.91884 872.9625 55.91884Q874.1813 55.91884 874.9313 55.41884Q875.6813 54.91884 875.6813 54.090714ZM887.6813 54.090714Q887.6813 53.20009 887.0094 52.715714Q886.35315 52.23134 884.6969 51.88759Q883.0563 51.528214 882.0875 51.04384Q881.1188 50.54384 880.65 49.871964Q880.1969 49.184464 880.1969 48.246964Q880.1969 46.684464 881.5094 45.60634Q882.8375 44.528214 884.8844 44.528214Q887.04065 44.528214 888.3844 45.653214Q889.72815 46.76259 889.72815 48.496964L887.54065 48.496964Q887.54065 47.60634 886.79065 46.965714Q886.04065 46.309464 884.8844 46.309464Q883.6969 46.309464 883.025 46.82509Q882.3688 47.340714 882.3688 48.184464Q882.3688 48.965714 882.97815 49.371964Q883.60315 49.76259 885.22815 50.121964Q886.85315 50.48134 887.85315 50.996964Q888.8688 51.496964 889.35315 52.215714Q889.8375 52.91884 889.8375 53.934464Q889.8375 55.63759 888.47815 56.66884Q887.1188 57.684464 884.9625 57.684464Q883.4313 57.684464 882.2594 57.153214Q881.0875 56.60634 880.41565 55.63759Q879.7594 54.66884 879.7594 53.54384L881.9313 53.54384Q881.9938 54.63759 882.8063 55.278214Q883.6188 55.91884 884.9625 55.91884Q886.1813 55.91884 886.9313 55.41884Q887.6813 54.91884 887.6813 54.090714ZM901.22815 41.70009L901.22815 44.76259L903.60315 44.76259L903.60315 46.45009L901.22815 46.45009L901.22815 54.309464Q901.22815 55.07509 901.54065 55.45009Q901.8688 55.82509 902.6344 55.82509Q903.0094 55.82509 903.66565 55.684464L903.66565 57.45009Q902.8063 57.684464 901.9938 57.684464Q900.54065 57.684464 899.8063 56.809464Q899.0719 55.91884 899.0719 54.309464L899.0719 46.45009L896.7594 46.45009L896.7594 44.76259L899.0719 44.76259L899.0719 41.70009L901.22815 41.70009ZM908.4625 46.309464Q909.9 44.528214 912.2125 44.528214Q916.22815 44.528214 916.2594 49.07509L916.2594 57.45009L914.10315 57.45009L914.10315 49.059464Q914.0875 47.684464 913.4625 47.028214Q912.85315 46.371964 911.5563 46.371964Q910.4938 46.371964 909.6969 46.934464Q908.9 47.496964 908.4625 48.41884L908.4625 57.45009L906.29065 57.45009L906.29065 39.45009L908.4625 39.45009L908.4625 46.309464ZM927.1188 57.45009Q926.9313 57.07509 926.8219 56.10634Q925.3063 57.684464 923.2125 57.684464Q921.3375 57.684464 920.1344 56.621964Q918.9313 55.559464 918.9313 53.934464Q918.9313 51.95009 920.4313 50.85634Q921.9469 49.76259 924.66565 49.76259L926.775 49.76259L926.775 48.76259Q926.775 47.621964 926.0875 46.95009Q925.41565 46.278214 924.10315 46.278214Q922.9313 46.278214 922.15 46.871964Q921.3688 47.45009 921.3688 48.278214L919.1813 48.278214Q919.1813 47.340714 919.85315 46.45009Q920.54065 45.559464 921.6813 45.04384Q922.8375 44.528214 924.22815 44.528214Q926.41565 44.528214 927.65 45.63759Q928.9 46.73134 928.9469 48.653214L928.9469 54.48134Q928.9469 56.23134 929.4 57.26259L929.4 57.45009L927.1188 57.45009ZM923.525 55.79384Q924.54065 55.79384 925.4469 55.278214Q926.3688 54.746964 926.775 53.903214L926.775 51.29384L925.0875 51.29384Q921.10315 51.29384 921.10315 53.621964Q921.10315 54.653214 921.775 55.23134Q922.4625 55.79384 923.525 55.79384ZM934.3375 44.76259L934.41565 46.35634Q935.8688 44.528214 938.2125 44.528214Q942.22815 44.528214 942.2594 49.07509L942.2594 57.45009L940.10315 57.45009L940.10315 49.059464Q940.0875 47.684464 939.4625 47.028214Q938.85315 46.371964 937.5563 46.371964Q936.4938 46.371964 935.6969 46.934464Q934.9 47.496964 934.4625 48.41884L934.4625 57.45009L932.29065 57.45009L932.29065 44.76259L934.3375 44.76259ZM958.1969 57.45009L956.0094 57.45009L956.0094 42.996964L951.65 44.60634L951.65 42.63759L957.85315 40.309464L958.1969 40.309464L958.1969 57.45009ZM974.4469 54.278214L977.4 44.76259L979.7125 44.76259L974.6188 59.403214Q973.4313 62.57509 970.85315 62.57509L970.4469 62.54384L969.6344 62.38759L969.6344 60.621964L970.22815 60.66884Q971.3219 60.66884 971.9313 60.215714Q972.5563 59.778214 972.9469 58.60634L973.4313 57.309464L968.91565 44.76259L971.275 44.76259L974.4469 54.278214ZM986.5563 57.684464Q983.97815 57.684464 982.35315 55.996964Q980.7438 54.29384 980.7438 51.465714L980.7438 51.059464Q980.7438 49.16884 981.4625 47.70009Q982.1813 46.215714 983.47815 45.371964Q984.775 44.528214 986.29065 44.528214Q988.7594 44.528214 990.1188 46.16884Q991.4938 47.79384 991.4938 50.82509L991.4938 51.73134L982.91565 51.73134Q982.9625 53.60634 984.0094 54.76259Q985.0563 55.91884 986.66565 55.91884Q987.8219 55.91884 988.6188 55.45009Q989.41565 54.98134 990.0094 54.20009L991.3375 55.23134Q989.7438 57.684464 986.5563 57.684464ZM986.29065 46.309464Q984.97815 46.309464 984.0875 47.278214Q983.1969 48.23134 982.97815 49.95009L989.3375 49.95009L989.3375 49.778214Q989.2438 48.13759 988.4469 47.23134Q987.65 46.309464 986.29065 46.309464ZM1002.1188 57.45009Q1001.9313 57.07509 1001.8219 56.10634Q1000.3063 57.684464 998.2125 57.684464Q996.3375 57.684464 995.1344 56.621964Q993.9313 55.559464 993.9313 53.934464Q993.9313 51.95009 995.4313 50.85634Q996.9469 49.76259 999.66565 49.76259L1001.775 49.76259L1001.775 48.76259Q1001.775 47.621964 1001.0875 46.95009Q1000.41565 46.278214 999.10315 46.278214Q997.9313 46.278214 997.15 46.871964Q996.3688 47.45009 996.3688 48.278214L994.1813 48.278214Q994.1813 47.340714 994.85315 46.45009Q995.54065 45.559464 996.6813 45.04384Q997.8375 44.528214 999.22815 44.528214Q1001.41565 44.528214 1002.65 45.63759Q1003.9 46.73134 1003.9469 48.653214L1003.9469 54.48134Q1003.9469 56.23134 1004.4 57.26259L1004.4 57.45009L1002.1188 57.45009ZM998.525 55.79384Q999.54065 55.79384 1000.4469 55.278214Q1001.3688 54.746964 1001.775 53.903214L1001.775 51.29384L1000.0875 51.29384Q996.10315 51.29384 996.10315 53.621964Q996.10315 54.653214 996.775 55.23134Q997.4625 55.79384 998.525 55.79384ZM1013.41565 46.715714Q1012.9313 46.63759 1012.35315 46.63759Q1010.22815 46.63759 1009.4625 48.45009L1009.4625 57.45009L1007.29065 57.45009L1007.29065 44.76259L1009.4 44.76259L1009.4313 46.23134Q1010.5094 44.528214 1012.4625 44.528214Q1013.0875 44.528214 1013.41565 44.70009L1013.41565 46.715714Z" fill-rule="nonzero"/><path fill="#9e9e9e" d="M959.1969 89.45009L957.0094 89.45009L957.0094 74.99696L952.65 76.60634L952.65 74.63759L958.85315 72.30946L959.1969 72.30946L959.1969 89.45009ZM972.1969 89.45009L970.0094 89.45009L970.0094 74.99696L965.65 76.60634L965.65 74.63759L971.85315 72.30946L972.1969 72.30946L972.1969 89.45009ZM978.3375 88.30946Q978.3375 87.74696 978.66565 87.37196Q979.0094 86.99696 979.66565 86.99696Q980.3375 86.99696 980.6813 87.37196Q981.04065 87.74696 981.04065 88.30946Q981.04065 88.85634 980.6813 89.21571Q980.3375 89.57509 979.66565 89.57509Q979.0094 89.57509 978.66565 89.21571Q978.3375 88.85634 978.3375 88.30946ZM992.5719 72.37196L992.5719 74.21571L992.1813 74.21571Q989.65 74.26259 988.15 75.71571Q986.65 77.16884 986.41565 79.80946Q987.7594 78.26259 990.0875 78.26259Q992.3219 78.26259 993.65 79.84071Q994.97815 81.40321 994.97815 83.88759Q994.97815 86.51259 993.54065 88.10634Q992.10315 89.68446 989.6969 89.68446Q987.2438 89.68446 985.7125 87.80946Q984.1969 85.91884 984.1969 82.95009L984.1969 82.12196Q984.1969 77.41884 986.1969 74.93446Q988.2125 72.43446 992.1969 72.37196L992.5719 72.37196ZM989.72815 80.05946Q988.6188 80.05946 987.6813 80.73134Q986.7438 81.40321 986.3844 82.40321L986.3844 83.20009Q986.3844 85.30946 987.3219 86.60634Q988.275 87.88759 989.6969 87.88759Q991.16565 87.88759 991.9938 86.80946Q992.8375 85.73134 992.8375 83.98134Q992.8375 82.23134 991.97815 81.15321Q991.1344 80.05946 989.72815 80.05946ZM996.8844 75.66884Q996.8844 74.13759 997.85315 73.13759Q998.8375 72.13759 1000.3688 72.13759Q1001.9313 72.13759 1002.9 73.13759Q1003.8688 74.13759 1003.8688 75.73134L1003.8688 76.57509Q1003.8688 78.12196 1002.8844 79.10634Q1001.91565 80.07509 1000.4 80.07509Q998.8688 80.07509 997.8688 79.10634Q996.8844 78.12196 996.8844 76.48134L996.8844 75.66884ZM998.4938 76.57509Q998.4938 77.48134 999.0094 78.07509Q999.525 78.66884 1000.4 78.66884Q1001.22815 78.66884 1001.72815 78.09071Q1002.2438 77.51259 1002.2438 76.52821L1002.2438 75.66884Q1002.2438 74.74696 1001.7438 74.15321Q1001.2438 73.55946 1000.3688 73.55946Q999.5094 73.55946 998.9938 74.15321Q998.4938 74.74696 998.4938 75.71571L998.4938 76.57509ZM1005.1969 85.26259Q1005.1969 83.73134 1006.16565 82.74696Q1007.15 81.74696 1008.6813 81.74696Q1010.2125 81.74696 1011.1969 82.73134Q1012.1813 83.71571 1012.1813 85.34071L1012.1813 86.18446Q1012.1813 87.71571 1011.1969 88.71571Q1010.22815 89.70009 1008.6969 89.70009Q1007.1813 89.70009 1006.1813 88.71571Q1005.1969 87.73134 1005.1969 86.10634L1005.1969 85.26259ZM1006.8063 86.18446Q1006.8063 87.10634 1007.3219 87.70009Q1007.8375 88.29384 1008.7125 88.29384Q1009.5563 88.29384 1010.0563 87.71571Q1010.5563 87.12196 1010.5563 86.13759L1010.5563 85.26259Q1010.5563 84.34071 1010.04065 83.76259Q1009.54065 83.16884 1008.6813 83.16884Q1007.85315 83.16884 1007.3219 83.74696Q1006.8063 84.32509 1006.8063 85.30946L1006.8063 86.18446ZM1000.8844 88.15321L999.66565 87.38759L1007.9938 74.04384L1009.22815 74.82509L1000.8844 88.15321Z" fill-rule="nonzero"/><path stroke="#757575" stroke-width="1.0" stroke-linecap="butt" d="M1013.65 64.95009L820.15 64.95009L621.26166 64.95009" fill-rule="nonzero"/><path fill="#9e9e9e" d="M623.26166 64.95009C623.26166 63.845516 622.3662 62.95009 621.26166 62.95009C620.1571 62.95009 619.26166 63.845516 619.26166 64.95009C619.26166 66.05466 620.1571 66.95009 621.26166 66.95009C622.3662 66.95009 623.26166 66.05466 623.26166 64.95009" fill-rule="nonzero"/><path fill="#000000" d="M914.1969 298.4321L912.0094 298.4321L912.0094 283.97897L907.65 285.58835L907.65 283.6196L913.85315 281.29147L914.1969 281.29147L914.1969 298.4321ZM930.8063 292.07272L925.0875 292.07272L925.0875 290.29147L930.8063 290.29147L930.8063 292.07272ZM942.22815 288.83835L943.85315 288.83835Q945.3844 288.82272 946.2594 288.04147Q947.15 287.2446 947.15 285.91647Q947.15 282.91647 944.15 282.91647Q942.7438 282.91647 941.9 283.72897Q941.0719 284.52585 941.0719 285.83835L938.9 285.83835Q938.9 283.82272 940.3844 282.47897Q941.8688 281.13522 944.15 281.13522Q946.5719 281.13522 947.9313 282.41647Q949.3063 283.6821 949.3063 285.96335Q949.3063 287.07272 948.5875 288.1196Q947.8688 289.16647 946.6344 289.6821Q948.04065 290.1196 948.8063 291.15085Q949.5719 292.1821 949.5719 293.66647Q949.5719 295.96335 948.0719 297.32272Q946.5719 298.66647 944.16565 298.66647Q941.7594 298.66647 940.2594 297.3696Q938.7594 296.0571 938.7594 293.9321L940.9313 293.9321Q940.9313 295.27585 941.8063 296.08835Q942.6969 296.90085 944.16565 296.90085Q945.7438 296.90085 946.5719 296.08835Q947.4 295.26022 947.4 293.71335Q947.4 292.22897 946.47815 291.4321Q945.5719 290.63522 943.85315 290.6196L942.22815 290.6196L942.22815 288.83835ZM962.4469 295.26022L965.4 285.7446L967.7125 285.7446L962.6188 300.38522Q961.4313 303.5571 958.85315 303.5571L958.4469 303.52585L957.6344 303.3696L957.6344 301.60397L958.22815 301.65085Q959.3219 301.65085 959.9313 301.19772Q960.5563 300.76022 960.9469 299.58835L961.4313 298.29147L956.91565 285.7446L959.275 285.7446L962.4469 295.26022ZM974.5563 298.66647Q971.97815 298.66647 970.35315 296.97897Q968.7438 295.27585 968.7438 292.44772L968.7438 292.04147Q968.7438 290.15085 969.4625 288.6821Q970.1813 287.19772 971.47815 286.35397Q972.775 285.51022 974.29065 285.51022Q976.7594 285.51022 978.1188 287.15085Q979.4938 288.77585 979.4938 291.8071L979.4938 292.71335L970.91565 292.71335Q970.9625 294.58835 972.0094 295.7446Q973.0563 296.90085 974.66565 296.90085Q975.8219 296.90085 976.6188 296.4321Q977.41565 295.96335 978.0094 295.1821L979.3375 296.21335Q977.7438 298.66647 974.5563 298.66647ZM974.29065 287.29147Q972.97815 287.29147 972.0875 288.26022Q971.1969 289.21335 970.97815 290.9321L977.3375 290.9321L977.3375 290.76022Q977.2438 289.1196 976.4469 288.21335Q975.65 287.29147 974.29065 287.29147ZM990.1188 298.4321Q989.9313 298.0571 989.8219 297.08835Q988.3063 298.66647 986.2125 298.66647Q984.3375 298.66647 983.1344 297.60397Q981.9313 296.54147 981.9313 294.91647Q981.9313 292.9321 983.4313 291.83835Q984.9469 290.7446 987.66565 290.7446L989.775 290.7446L989.775 289.7446Q989.775 288.60397 989.0875 287.9321Q988.41565 287.26022 987.10315 287.26022Q985.9313 287.26022 985.15 287.85397Q984.3688 288.4321 984.3688 289.26022L982.1813 289.26022Q982.1813 288.32272 982.85315 287.4321Q983.54065 286.54147 984.6813 286.02585Q985.8375 285.51022 987.22815 285.51022Q989.41565 285.51022 990.65 286.6196Q991.9 287.71335 991.9469 289.63522L991.9469 295.46335Q991.9469 297.21335 992.4 298.2446L992.4 298.4321L990.1188 298.4321ZM986.525 296.77585Q987.54065 296.77585 988.4469 296.26022Q989.3688 295.72897 989.775 294.88522L989.775 292.27585L988.0875 292.27585Q984.10315 292.27585 984.10315 294.60397Q984.10315 295.63522 984.775 296.21335Q985.4625 296.77585 986.525 296.77585ZM1001.41565 287.69772Q1000.9313 287.6196 1000.35315 287.6196Q998.22815 287.6196 997.4625 289.4321L997.4625 298.4321L995.29065 298.4321L995.29065 285.7446L997.4 285.7446L997.4313 287.21335Q998.5094 285.51022 1000.4625 285.51022Q1001.0875 285.51022 1001.41565 285.6821L1001.41565 287.69772ZM1010.6813 295.07272Q1010.6813 294.1821 1010.0094 293.69772Q1009.35315 293.21335 1007.6969 292.8696Q1006.0563 292.51022 1005.0875 292.02585Q1004.1188 291.52585 1003.65 290.85397Q1003.1969 290.16647 1003.1969 289.22897Q1003.1969 287.66647 1004.5094 286.58835Q1005.8375 285.51022 1007.8844 285.51022Q1010.04065 285.51022 1011.3844 286.63522Q1012.72815 287.7446 1012.72815 289.47897L1010.54065 289.47897Q1010.54065 288.58835 1009.79065 287.94772Q1009.04065 287.29147 1007.8844 287.29147Q1006.6969 287.29147 1006.025 287.8071Q1005.3688 288.32272 1005.3688 289.16647Q1005.3688 289.94772 1005.97815 290.35397Q1006.60315 290.7446 1008.22815 291.10397Q1009.85315 291.46335 1010.85315 291.97897Q1011.8688 292.47897 1012.35315 293.19772Q1012.8375 293.90085 1012.8375 294.91647Q1012.8375 296.6196 1011.47815 297.65085Q1010.1188 298.66647 1007.9625 298.66647Q1006.4313 298.66647 1005.2594 298.13522Q1004.0875 297.58835 1003.41565 296.6196Q1002.7594 295.65085 1002.7594 294.52585L1004.9313 294.52585Q1004.9938 295.6196 1005.8063 296.26022Q1006.6188 296.90085 1007.9625 296.90085Q1009.1813 296.90085 1009.9313 296.40085Q1010.6813 295.90085 1010.6813 295.07272Z" fill-rule="nonzero"/><path fill="#9e9e9e" d="M963.2438 330.4321L952.0719 330.4321L952.0719 328.8696L957.97815 322.3071Q959.29065 320.82272 959.79065 319.90085Q960.29065 318.96335 960.29065 317.96335Q960.29065 316.6196 959.47815 315.77585Q958.66565 314.91647 957.3219 314.91647Q955.6969 314.91647 954.8063 315.83835Q953.91565 316.76022 953.91565 318.40085L951.7438 318.40085Q951.7438 316.04147 953.2594 314.58835Q954.775 313.13522 957.3219 313.13522Q959.6969 313.13522 961.0719 314.38522Q962.4625 315.63522 962.4625 317.69772Q962.4625 320.22897 959.2594 323.69772L954.6813 328.66647L963.2438 328.66647L963.2438 330.4321ZM974.22815 324.69772L976.5875 324.69772L976.5875 326.46335L974.22815 326.46335L974.22815 330.4321L972.04065 330.4321L972.04065 326.46335L964.275 326.46335L964.275 325.19772L971.91565 313.3696L974.22815 313.3696L974.22815 324.69772ZM966.72815 324.69772L972.04065 324.69772L972.04065 316.33835L971.79065 316.8071L966.72815 324.69772ZM978.3375 329.29147Q978.3375 328.72897 978.66565 328.35397Q979.0094 327.97897 979.66565 327.97897Q980.3375 327.97897 980.6813 328.35397Q981.04065 328.72897 981.04065 329.29147Q981.04065 329.83835 980.6813 330.19772Q980.3375 330.5571 979.66565 330.5571Q979.0094 330.5571 978.66565 330.19772Q978.3375 329.83835 978.3375 329.29147ZM992.3844 322.9321Q991.6969 323.7446 990.7438 324.2446Q989.8063 324.72897 988.6813 324.72897Q987.2125 324.72897 986.1188 324.01022Q985.025 323.27585 984.41565 321.96335Q983.8219 320.63522 983.8219 319.04147Q983.8219 317.32272 984.4625 315.96335Q985.1188 314.58835 986.3063 313.8696Q987.5094 313.13522 989.10315 313.13522Q991.6344 313.13522 993.0875 315.02585Q994.5563 316.91647 994.5563 320.1821L994.5563 320.82272Q994.5563 325.8071 992.5875 328.10397Q990.6188 330.38522 986.65 330.44772L986.22815 330.44772L986.22815 328.6196L986.6813 328.6196Q989.3688 328.57272 990.8063 327.21335Q992.2438 325.85397 992.3844 322.9321ZM989.04065 322.9321Q990.1344 322.9321 991.04065 322.26022Q991.9625 321.58835 992.3844 320.60397L992.3844 319.7446Q992.3844 317.60397 991.4625 316.27585Q990.54065 314.9321 989.1188 314.9321Q987.6969 314.9321 986.8219 316.04147Q985.9625 317.13522 985.9625 318.91647Q985.9625 320.66647 986.79065 321.8071Q987.6344 322.9321 989.04065 322.9321ZM996.8844 316.65085Q996.8844 315.1196 997.85315 314.1196Q998.8375 313.1196 1000.3688 313.1196Q1001.9313 313.1196 1002.9 314.1196Q1003.8688 315.1196 1003.8688 316.71335L1003.8688 317.5571Q1003.8688 319.10397 1002.8844 320.08835Q1001.91565 321.0571 1000.4 321.0571Q998.8688 321.0571 997.8688 320.08835Q996.8844 319.10397 996.8844 317.46335L996.8844 316.65085ZM998.4938 317.5571Q998.4938 318.46335 999.0094 319.0571Q999.525 319.65085 1000.4 319.65085Q1001.22815 319.65085 1001.72815 319.07272Q1002.2438 318.4946 1002.2438 317.51022L1002.2438 316.65085Q1002.2438 315.72897 1001.7438 315.13522Q1001.2438 314.54147 1000.3688 314.54147Q999.5094 314.54147 998.9938 315.13522Q998.4938 315.72897 998.4938 316.69772L998.4938 317.5571ZM1005.1969 326.2446Q1005.1969 324.71335 1006.16565 323.72897Q1007.15 322.72897 1008.6813 322.72897Q1010.2125 322.72897 1011.1969 323.71335Q1012.1813 324.69772 1012.1813 326.32272L1012.1813 327.16647Q1012.1813 328.69772 1011.1969 329.69772Q1010.22815 330.6821 1008.6969 330.6821Q1007.1813 330.6821 1006.1813 329.69772Q1005.1969 328.71335 1005.1969 327.08835L1005.1969 326.2446ZM1006.8063 327.16647Q1006.8063 328.08835 1007.3219 328.6821Q1007.8375 329.27585 1008.7125 329.27585Q1009.5563 329.27585 1010.0563 328.69772Q1010.5563 328.10397 1010.5563 327.1196L1010.5563 326.2446Q1010.5563 325.32272 1010.04065 324.7446Q1009.54065 324.15085 1008.6813 324.15085Q1007.85315 324.15085 1007.3219 324.72897Q1006.8063 325.3071 1006.8063 326.29147L1006.8063 327.16647ZM1000.8844 329.13522L999.66565 328.3696L1007.9938 315.02585L1009.22815 315.8071L1000.8844 329.13522Z" fill-rule="nonzero"/><path stroke="#757575" stroke-width="1.0" stroke-linecap="butt" d="M1013.65 305.9321L820.15 305.9321L799.034 305.9321" fill-rule="nonzero"/><path fill="#9e9e9e" d="M801.034 305.9321C801.034 304.82755 800.1386 303.9321 799.034 303.9321C797.92944 303.9321 797.034 304.82755 797.034 305.9321C797.034 307.03668 797.92944 307.9321 799.034 307.9321C800.1386 307.9321 801.034 307.03668 801.034 305.9321" fill-rule="nonzero"/><path fill="#000000" d="M916.22815 570.91565L918.5875 570.91565L918.5875 572.6813L916.22815 572.6813L916.22815 576.65L914.04065 576.65L914.04065 572.6813L906.275 572.6813L906.275 571.41565L913.91565 559.5875L916.22815 559.5875L916.22815 570.91565ZM908.72815 570.91565L914.04065 570.91565L914.04065 562.5563L913.79065 563.025L908.72815 570.91565ZM930.8063 570.29065L925.0875 570.29065L925.0875 568.5094L930.8063 568.5094L930.8063 570.29065ZM950.0875 560.8063L943.025 576.65L940.7438 576.65L947.79065 561.3688L938.5563 561.3688L938.5563 559.5875L950.0875 559.5875L950.0875 560.8063ZM962.4469 573.47815L965.4 563.9625L967.7125 563.9625L962.6188 578.60315Q961.4313 581.775 958.85315 581.775L958.4469 581.7438L957.6344 581.5875L957.6344 579.8219L958.22815 579.8688Q959.3219 579.8688 959.9313 579.41565Q960.5563 578.97815 960.9469 577.8063L961.4313 576.5094L956.91565 563.9625L959.275 563.9625L962.4469 573.47815ZM974.5563 576.8844Q971.97815 576.8844 970.35315 575.1969Q968.7438 573.4938 968.7438 570.66565L968.7438 570.2594Q968.7438 568.3688 969.4625 566.9Q970.1813 565.41565 971.47815 564.5719Q972.775 563.72815 974.29065 563.72815Q976.7594 563.72815 978.1188 565.3688Q979.4938 566.9938 979.4938 570.025L979.4938 570.9313L970.91565 570.9313Q970.9625 572.8063 972.0094 573.9625Q973.0563 575.1188 974.66565 575.1188Q975.8219 575.1188 976.6188 574.65Q977.41565 574.1813 978.0094 573.4L979.3375 574.4313Q977.7438 576.8844 974.5563 576.8844ZM974.29065 565.5094Q972.97815 565.5094 972.0875 566.47815Q971.1969 567.4313 970.97815 569.15L977.3375 569.15L977.3375 568.97815Q977.2438 567.3375 976.4469 566.4313Q975.65 565.5094 974.29065 565.5094ZM990.1188 576.65Q989.9313 576.275 989.8219 575.3063Q988.3063 576.8844 986.2125 576.8844Q984.3375 576.8844 983.1344 575.8219Q981.9313 574.7594 981.9313 573.1344Q981.9313 571.15 983.4313 570.0563Q984.9469 568.9625 987.66565 568.9625L989.775 568.9625L989.775 567.9625Q989.775 566.8219 989.0875 566.15Q988.41565 565.47815 987.10315 565.47815Q985.9313 565.47815 985.15 566.0719Q984.3688 566.65 984.3688 567.47815L982.1813 567.47815Q982.1813 566.54065 982.85315 565.65Q983.54065 564.7594 984.6813 564.2438Q985.8375 563.72815 987.22815 563.72815Q989.41565 563.72815 990.65 564.8375Q991.9 565.9313 991.9469 567.85315L991.9469 573.6813Q991.9469 575.4313 992.4 576.4625L992.4 576.65L990.1188 576.65ZM986.525 574.9938Q987.54065 574.9938 988.4469 574.47815Q989.3688 573.9469 989.775 573.10315L989.775 570.4938L988.0875 570.4938Q984.10315 570.4938 984.10315 572.8219Q984.10315 573.85315 984.775 574.4313Q985.4625 574.9938 986.525 574.9938ZM1001.41565 565.91565Q1000.9313 565.8375 1000.35315 565.8375Q998.22815 565.8375 997.4625 567.65L997.4625 576.65L995.29065 576.65L995.29065 563.9625L997.4 563.9625L997.4313 565.4313Q998.5094 563.72815 1000.4625 563.72815Q1001.0875 563.72815 1001.41565 563.9L1001.41565 565.91565ZM1010.6813 573.29065Q1010.6813 572.4 1010.0094 571.91565Q1009.35315 571.4313 1007.6969 571.0875Q1006.0563 570.72815 1005.0875 570.2438Q1004.1188 569.7438 1003.65 569.0719Q1003.1969 568.3844 1003.1969 567.4469Q1003.1969 565.8844 1004.5094 564.8063Q1005.8375 563.72815 1007.8844 563.72815Q1010.04065 563.72815 1011.3844 564.85315Q1012.72815 565.9625 1012.72815 567.6969L1010.54065 567.6969Q1010.54065 566.8063 1009.79065 566.16565Q1009.04065 565.5094 1007.8844 565.5094Q1006.6969 565.5094 1006.025 566.025Q1005.3688 566.54065 1005.3688 567.3844Q1005.3688 568.16565 1005.97815 568.5719Q1006.60315 568.9625 1008.22815 569.3219Q1009.85315 569.6813 1010.85315 570.1969Q1011.8688 570.6969 1012.35315 571.41565Q1012.8375 572.1188 1012.8375 573.1344Q1012.8375 574.8375 1011.47815 575.8688Q1010.1188 576.8844 1007.9625 576.8844Q1006.4313 576.8844 1005.2594 576.35315Q1004.0875 575.8063 1003.41565 574.8375Q1002.7594 573.8688 1002.7594 572.7438L1004.9313 572.7438Q1004.9938 573.8375 1005.8063 574.47815Q1006.6188 575.1188 1007.9625 575.1188Q1009.1813 575.1188 1009.9313 574.6188Q1010.6813 574.1188 1010.6813 573.29065Z" fill-rule="nonzero"/><path fill="#9e9e9e" d="M963.2438 608.65L952.0719 608.65L952.0719 607.0875L957.97815 600.525Q959.29065 599.04065 959.79065 598.1188Q960.29065 597.1813 960.29065 596.1813Q960.29065 594.8375 959.47815 593.9938Q958.66565 593.1344 957.3219 593.1344Q955.6969 593.1344 954.8063 594.0563Q953.91565 594.97815 953.91565 596.6188L951.7438 596.6188Q951.7438 594.2594 953.2594 592.8063Q954.775 591.35315 957.3219 591.35315Q959.6969 591.35315 961.0719 592.60315Q962.4625 593.85315 962.4625 595.91565Q962.4625 598.4469 959.2594 601.91565L954.6813 606.8844L963.2438 606.8844L963.2438 608.65ZM975.775 601.3688Q975.775 605.1813 974.4625 607.04065Q973.16565 608.8844 970.4 608.8844Q967.66565 608.8844 966.35315 607.0719Q965.04065 605.2594 964.9938 601.66565L964.9938 598.775Q964.9938 595.0094 966.29065 593.1813Q967.60315 591.35315 970.3844 591.35315Q973.1344 591.35315 974.4313 593.1188Q975.72815 594.8844 975.775 598.5563L975.775 601.3688ZM973.60315 598.4Q973.60315 595.65 972.8219 594.4Q972.0563 593.1344 970.3844 593.1344Q968.7125 593.1344 967.9469 594.3844Q967.1969 595.6344 967.16565 598.2438L967.16565 601.7125Q967.16565 604.47815 967.9625 605.8063Q968.775 607.1188 970.4 607.1188Q972.0094 607.1188 972.79065 605.8844Q973.5719 604.6344 973.60315 601.9625L973.60315 598.4ZM978.3375 607.5094Q978.3375 606.9469 978.66565 606.5719Q979.0094 606.1969 979.66565 606.1969Q980.3375 606.1969 980.6813 606.5719Q981.04065 606.9469 981.04065 607.5094Q981.04065 608.0563 980.6813 608.41565Q980.3375 608.775 979.66565 608.775Q979.0094 608.775 978.66565 608.41565Q978.3375 608.0563 978.3375 607.5094ZM995.2438 608.65L984.0719 608.65L984.0719 607.0875L989.97815 600.525Q991.29065 599.04065 991.79065 598.1188Q992.29065 597.1813 992.29065 596.1813Q992.29065 594.8375 991.47815 593.9938Q990.66565 593.1344 989.3219 593.1344Q987.6969 593.1344 986.8063 594.0563Q985.91565 594.97815 985.91565 596.6188L983.7438 596.6188Q983.7438 594.2594 985.2594 592.8063Q986.775 591.35315 989.3219 591.35315Q991.6969 591.35315 993.0719 592.60315Q994.4625 593.85315 994.4625 595.91565Q994.4625 598.4469 991.2594 601.91565L986.6813 606.8844L995.2438 606.8844L995.2438 608.65ZM996.8844 594.8688Q996.8844 593.3375 997.85315 592.3375Q998.8375 591.3375 1000.3688 591.3375Q1001.9313 591.3375 1002.9 592.3375Q1003.8688 593.3375 1003.8688 594.9313L1003.8688 595.775Q1003.8688 597.3219 1002.8844 598.3063Q1001.91565 599.275 1000.4 599.275Q998.8688 599.275 997.8688 598.3063Q996.8844 597.3219 996.8844 595.6813L996.8844 594.8688ZM998.4938 595.775Q998.4938 596.6813 999.0094 597.275Q999.525 597.8688 1000.4 597.8688Q1001.22815 597.8688 1001.72815 597.29065Q1002.2438 596.7125 1002.2438 595.72815L1002.2438 594.8688Q1002.2438 593.9469 1001.7438 593.35315Q1001.2438 592.7594 1000.3688 592.7594Q999.5094 592.7594 998.9938 593.35315Q998.4938 593.9469 998.4938 594.91565L998.4938 595.775ZM1005.1969 604.4625Q1005.1969 602.9313 1006.16565 601.9469Q1007.15 600.9469 1008.6813 600.9469Q1010.2125 600.9469 1011.1969 601.9313Q1012.1813 602.91565 1012.1813 604.54065L1012.1813 605.3844Q1012.1813 606.91565 1011.1969 607.91565Q1010.22815 608.9 1008.6969 608.9Q1007.1813 608.9 1006.1813 607.91565Q1005.1969 606.9313 1005.1969 605.3063L1005.1969 604.4625ZM1006.8063 605.3844Q1006.8063 606.3063 1007.3219 606.9Q1007.8375 607.4938 1008.7125 607.4938Q1009.5563 607.4938 1010.0563 606.91565Q1010.5563 606.3219 1010.5563 605.3375L1010.5563 604.4625Q1010.5563 603.54065 1010.04065 602.9625Q1009.54065 602.3688 1008.6813 602.3688Q1007.85315 602.3688 1007.3219 602.9469Q1006.8063 603.525 1006.8063 604.5094L1006.8063 605.3844ZM1000.8844 607.35315L999.66565 606.5875L1007.9938 593.2438L1009.22815 594.025L1000.8844 607.35315Z" fill-rule="nonzero"/><path stroke="#757575" stroke-width="1.0" stroke-linecap="butt" d="M1013.65 584.15L820.15 584.15L582.7975 593.5513" fill-rule="nonzero"/><path fill="#9e9e9e" d="M584.7975 593.5513C584.7975 592.44666 583.90204 591.5513 582.7975 591.5513C581.6929 591.5513 580.7975 592.44666 580.7975 593.5513C580.7975 594.6558 581.6929 595.5513 582.7975 595.5513C583.90204 595.5513 584.7975 594.6558 584.7975 593.5513" fill-rule="nonzero"/></svg>