<svg id="Layer_1" data-name="Layer 1" xmlns="http://www.w3.org/2000/svg" viewBox="0 0 122.8 122.8">
  <title>slack</title>
  <path d="M25.8,77.6A12.9,12.9,0,1,1,12.9,64.7H25.8Z"/>
  <path d="M32.3,77.6a12.9,12.9,0,0,1,25.8,0v32.3a12.9,12.9,0,0,1-25.8,0Z"/>
  <path d="M45.2,25.8A12.9,12.9,0,1,1,58.1,12.9V25.8Z"/>
  <path d="M45.2,32.3a12.9,12.9,0,0,1,0,25.8H12.9a12.9,12.9,0,0,1,0-25.8Z"/>
  <path d="M97,45.2a12.9,12.9,0,1,1,12.9,12.9H97Z"/>
  <path d="M90.5,45.2a12.9,12.9,0,0,1-25.8,0V12.9a12.9,12.9,0,0,1,25.8,0Z"/>
  <path d="M77.6,97a12.9,12.9,0,1,1-12.9,12.9V97Z"/>
  <path d="M77.6,90.5a12.9,12.9,0,1,1,0-25.8h32.3a12.9,12.9,0,0,1,0,25.8Z"/>
</svg>
