<svg version="1.1" viewBox="0.0 0.0 1055.0 653.0" fill="none" stroke="none" stroke-linecap="square" stroke-miterlimit="10" width="1055" height="653" xmlns:xlink="http://www.w3.org/1999/xlink" xmlns="http://www.w3.org/2000/svg"><path fill="#ffffff" d="M0 0L1055.0 0L1055.0 653.0L0 653.0L0 0Z" fill-rule="nonzero"/><path fill="#004552" d="M443.31754 44.966457C470.6323 36.79896 498.99026 32.65 527.5 32.65L527.5 179.575C513.2451 179.575 499.06616 181.64948 485.40878 185.73323Z" fill-rule="nonzero"/><path fill="#ab4028" d="M257.839 209.74911C292.30853 130.13438 360.19754 69.820496 443.31754 44.966457L485.40878 185.73323C443.8488 198.16025 409.90427 228.31718 392.6695 268.12457Z" fill-rule="nonzero"/><path fill="#50a6a6" d="M527.5 32.65C657.3649 32.65 771.8297 117.895775 809.03357 242.31754C846.23737 366.73932 797.3566 500.82767 688.80804 572.11664C580.2595 643.4056 437.7879 634.98737 338.38986 551.4115C238.9918 467.8356 206.24178 328.9239 257.839 209.74911L392.6695 268.12457C366.87088 327.71194 383.2459 397.1678 432.94492 438.95575C482.64395 480.74368 553.87976 484.9528 608.15405 449.30832C662.4283 413.66385 686.8687 346.61966 668.2668 284.40878C649.66486 222.19789 592.4325 179.575 527.5 179.575Z" fill-rule="nonzero"/><path stroke="#ffffff" stroke-width="1.0" stroke-linejoin="round" stroke-linecap="round" d="M392.6695 268.12457C366.87088 327.71194 383.2459 397.1678 432.94492 438.95575C482.64395 480.74368 553.87976 484.9528 608.15405 449.30832C662.4283 413.66385 686.8687 346.61966 668.2668 284.40878C649.66486 222.19789 592.4325 179.575 527.5 179.575L527.5 32.65C657.3649 32.65 771.8297 117.895775 809.03357 242.31754C846.23737 366.73932 797.3566 500.82767 688.80804 572.11664C580.2595 643.4056 437.7879 634.98737 338.38986 551.4115C238.9918 467.8356 206.24178 328.9239 257.839 209.74911" fill-rule="nonzero"/><path stroke="#ffffff" stroke-width="1.0" stroke-linejoin="round" stroke-linecap="round" d="M485.40878 185.73323C443.8488 198.16025 409.90427 228.31718 392.6695 268.12457L257.839 209.74911C292.30853 130.13438 360.19754 69.820496 443.31754 44.966457" fill-rule="nonzero"/><path stroke="#ffffff" stroke-width="1.0" stroke-linejoin="round" stroke-linecap="round" d="M527.5 179.575C513.2451 179.575 499.06616 181.64948 485.40878 185.73323L443.31754 44.966457C470.6323 36.79896 498.99026 32.65 527.5 32.65" fill-rule="nonzero"/><path fill="#000000" d="M37.040627 55.65L34.790627 55.65L34.790627 38.5875L37.040627 38.5875L37.040627 55.65ZM43.3375 42.9625L43.415627 44.55625Q44.86875 42.728127 47.2125 42.728127Q51.228127 42.728127 51.259377 47.275L51.259377 55.65L49.103127 55.65L49.103127 47.259377Q49.0875 45.884377 48.4625 45.228127Q47.853127 44.571877 46.55625 44.571877Q45.49375 44.571877 44.696877 45.134377Q43.9 45.696877 43.4625 46.61875L43.4625 55.65L41.290627 55.65L41.290627 42.9625L43.3375 42.9625ZM57.228127 39.9L57.228127 42.9625L59.603127 42.9625L59.603127 44.65L57.228127 44.65L57.228127 52.509377Q57.228127 53.275 57.540627 53.65Q57.86875 54.025 58.634377 54.025Q59.009377 54.025 59.665627 53.884377L59.665627 55.65Q58.80625 55.884377 57.99375 55.884377Q56.540627 55.884377 55.80625 55.009377Q55.071877 54.11875 55.071877 52.509377L55.071877 44.65L52.759377 44.65L52.759377 42.9625L55.071877 42.9625L55.071877 39.9L57.228127 39.9ZM67.55625 55.884377Q64.97813 55.884377 63.353127 54.196877Q61.74375 52.49375 61.74375 49.665627L61.74375 49.259377Q61.74375 47.36875 62.4625 45.9Q63.18125 44.415627 64.47813 43.571877Q65.775 42.728127 67.29063 42.728127Q69.75938 42.728127 71.11875 44.36875Q72.49375 45.99375 72.49375 49.025L72.49375 49.93125L63.915627 49.93125Q63.9625 51.80625 65.00938 52.9625Q66.05625 54.11875 67.66563 54.11875Q68.82188 54.11875 69.61875 53.65Q70.41563 53.18125 71.00938 52.4L72.3375 53.43125Q70.74375 55.884377 67.55625 55.884377ZM67.29063 44.509377Q65.97813 44.509377 65.0875 45.478127Q64.19688 46.43125 63.978127 48.15L70.3375 48.15L70.3375 47.978127Q70.24375 46.3375 69.44688 45.43125Q68.65 44.509377 67.29063 44.509377ZM81.41563 44.915627Q80.93125 44.8375 80.35313 44.8375Q78.22813 44.8375 77.4625 46.65L77.4625 55.65L75.29063 55.65L75.29063 42.9625L77.4 42.9625L77.43125 44.43125Q78.50938 42.728127 80.4625 42.728127Q81.0875 42.728127 81.41563 42.9L81.41563 44.915627ZM85.3375 42.9625L85.41563 44.55625Q86.86875 42.728127 89.2125 42.728127Q93.22813 42.728127 93.25938 47.275L93.25938 55.65L91.10313 55.65L91.10313 47.259377Q91.0875 45.884377 90.4625 45.228127Q89.85313 44.571877 88.55625 44.571877Q87.49375 44.571877 86.69688 45.134377Q85.9 45.696877 85.4625 46.61875L85.4625 55.65L83.29063 55.65L83.29063 42.9625L85.3375 42.9625ZM104.11875 55.65Q103.93125 55.275 103.82188 54.30625Q102.30625 55.884377 100.2125 55.884377Q98.3375 55.884377 97.13438 54.821877Q95.93125 53.759377 95.93125 52.134377Q95.93125 50.15 97.43125 49.05625Q98.94688 47.9625 101.66563 47.9625L103.775 47.9625L103.775 46.9625Q103.775 45.821877 103.0875 45.15Q102.41563 44.478127 101.10313 44.478127Q99.93125 44.478127 99.15 45.071877Q98.36875 45.65 98.36875 46.478127L96.18125 46.478127Q96.18125 45.540627 96.85313 44.65Q97.54063 43.759377 98.68125 43.24375Q99.8375 42.728127 101.22813 42.728127Q103.41563 42.728127 104.65 43.8375Q105.9 44.93125 105.94688 46.853127L105.94688 52.68125Q105.94688 54.43125 106.4 55.4625L106.4 55.65L104.11875 55.65ZM100.525 53.99375Q101.54063 53.99375 102.44688 53.478127Q103.36875 52.946877 103.775 52.103127L103.775 49.49375L102.0875 49.49375Q98.10313 49.49375 98.10313 51.821877Q98.10313 52.853127 98.775 53.43125Q99.4625 53.99375 100.525 53.99375ZM112.22813 39.9L112.22813 42.9625L114.60313 42.9625L114.60313 44.65L112.22813 44.65L112.22813 52.509377Q112.22813 53.275 112.54063 53.65Q112.86875 54.025 113.63438 54.025Q114.00938 54.025 114.66563 53.884377L114.66563 55.65Q113.80625 55.884377 112.99375 55.884377Q111.54063 55.884377 110.80625 55.009377Q110.07188 54.11875 110.07188 52.509377L110.07188 44.65L107.75938 44.65L107.75938 42.9625L110.07188 42.9625L110.07188 39.9L112.22813 39.9ZM119.65 55.65L117.47813 55.65L117.47813 42.9625L119.65 42.9625L119.65 55.65ZM117.30625 39.603127Q117.30625 39.071877 117.61875 38.7125Q117.94688 38.353127 118.57188 38.353127Q119.2125 38.353127 119.54063 38.7125Q119.86875 39.071877 119.86875 39.603127Q119.86875 40.134377 119.54063 40.49375Q119.2125 40.8375 118.57188 40.8375Q117.94688 40.8375 117.61875 40.49375Q117.30625 40.134377 117.30625 39.603127ZM122.7125 49.196877Q122.7125 47.321877 123.44688 45.8375Q124.18125 44.353127 125.47813 43.540627Q126.79063 42.728127 128.47812 42.728127Q131.05624 42.728127 132.65 44.525Q134.25937 46.321877 134.25937 49.290627L134.25937 49.446877Q134.25937 51.30625 133.54062 52.775Q132.8375 54.24375 131.525 55.071877Q130.2125 55.884377 128.49374 55.884377Q125.91563 55.884377 124.30625 54.0875Q122.7125 52.290627 122.7125 49.3375L122.7125 49.196877ZM124.9 49.446877Q124.9 51.55625 125.86875 52.8375Q126.85313 54.11875 128.49374 54.11875Q130.15 54.11875 131.11874 52.821877Q132.0875 51.525 132.0875 49.196877Q132.0875 47.103127 131.10312 45.80625Q130.11874 44.509377 128.47812 44.509377Q126.86875 44.509377 125.88438 45.790627Q124.9 47.071877 124.9 49.446877ZM139.3375 42.9625L139.41562 44.55625Q140.86874 42.728127 143.2125 42.728127Q147.22812 42.728127 147.25937 47.275L147.25937 55.65L145.10312 55.65L145.10312 47.259377Q145.0875 45.884377 144.4625 45.228127Q143.85312 44.571877 142.55624 44.571877Q141.49374 44.571877 140.69687 45.134377Q139.9 45.696877 139.4625 46.61875L139.4625 55.65L137.29062 55.65L137.29062 42.9625L139.3375 42.9625ZM158.11874 55.65Q157.93124 55.275 157.82187 54.30625Q156.30624 55.884377 154.2125 55.884377Q152.3375 55.884377 151.13437 54.821877Q149.93124 53.759377 149.93124 52.134377Q149.93124 50.15 151.43124 49.05625Q152.94687 47.9625 155.66562 47.9625L157.775 47.9625L157.775 46.9625Q157.775 45.821877 157.0875 45.15Q156.41562 44.478127 155.10312 44.478127Q153.93124 44.478127 153.15 45.071877Q152.36874 45.65 152.36874 46.478127L150.18124 46.478127Q150.18124 45.540627 150.85312 44.65Q151.54062 43.759377 152.68124 43.24375Q153.8375 42.728127 155.22812 42.728127Q157.41562 42.728127 158.65 43.8375Q159.9 44.93125 159.94687 46.853127L159.94687 52.68125Q159.94687 54.43125 160.4 55.4625L160.4 55.65L158.11874 55.65ZM154.525 53.99375Q155.54062 53.99375 156.44687 53.478127Q157.36874 52.946877 157.775 52.103127L157.775 49.49375L156.0875 49.49375Q152.10312 49.49375 152.10312 51.821877Q152.10312 52.853127 152.775 53.43125Q153.4625 53.99375 154.525 53.99375ZM165.65 55.65L163.47812 55.65L163.47812 37.65L165.65 37.65L165.65 55.65Z" fill-rule="nonzero"/><path fill="#9e9e9e" d="M43.228127 81.91563L45.5875 81.91563L45.5875 83.68125L43.228127 83.68125L43.228127 87.65L41.040627 87.65L41.040627 83.68125L33.275 83.68125L33.275 82.41563L40.915627 70.5875L43.228127 70.5875L43.228127 81.91563ZM35.728127 81.91563L41.040627 81.91563L41.040627 73.55625L40.790627 74.025L35.728127 81.91563ZM47.3375 86.50938Q47.3375 85.94688 47.665627 85.57188Q48.009377 85.19688 48.665627 85.19688Q49.3375 85.19688 49.68125 85.57188Q50.040627 85.94688 50.040627 86.50938Q50.040627 87.05625 49.68125 87.41563Q49.3375 87.775 48.665627 87.775Q48.009377 87.775 47.665627 87.41563Q47.3375 87.05625 47.3375 86.50938ZM61.571877 70.57188L61.571877 72.41563L61.18125 72.41563Q58.65 72.4625 57.15 73.91563Q55.65 75.36875 55.415627 78.00938Q56.759377 76.4625 59.0875 76.4625Q61.321877 76.4625 62.65 78.04063Q63.978127 79.60313 63.978127 82.0875Q63.978127 84.7125 62.540627 86.30625Q61.103127 87.88438 58.696877 87.88438Q56.24375 87.88438 54.7125 86.00938Q53.196877 84.11875 53.196877 81.15L53.196877 80.32188Q53.196877 75.61875 55.196877 73.13438Q57.2125 70.63438 61.196877 70.57188L61.571877 70.57188ZM58.728127 78.25938Q57.61875 78.25938 56.68125 78.93125Q55.74375 79.60313 55.384377 80.60313L55.384377 81.4Q55.384377 83.50938 56.321877 84.80625Q57.275 86.0875 58.696877 86.0875Q60.165627 86.0875 60.99375 85.00938Q61.8375 83.93125 61.8375 82.18125Q61.8375 80.43125 60.978127 79.35313Q60.134377 78.25938 58.728127 78.25938ZM65.88438 73.86875Q65.88438 72.3375 66.85313 71.3375Q67.8375 70.3375 69.36875 70.3375Q70.93125 70.3375 71.9 71.3375Q72.86875 72.3375 72.86875 73.93125L72.86875 74.775Q72.86875 76.32188 71.88438 77.30625Q70.91563 78.275 69.4 78.275Q67.86875 78.275 66.86875 77.30625Q65.88438 76.32188 65.88438 74.68125L65.88438 73.86875ZM67.49375 74.775Q67.49375 75.68125 68.00938 76.275Q68.525 76.86875 69.4 76.86875Q70.22813 76.86875 70.72813 76.29063Q71.24375 75.7125 71.24375 74.72813L71.24375 73.86875Q71.24375 72.94688 70.74375 72.35313Q70.24375 71.75938 69.36875 71.75938Q68.50938 71.75938 67.99375 72.35313Q67.49375 72.94688 67.49375 73.91563L67.49375 74.775ZM74.19688 83.4625Q74.19688 81.93125 75.16563 80.94688Q76.15 79.94688 77.68125 79.94688Q79.2125 79.94688 80.19688 80.93125Q81.18125 81.91563 81.18125 83.54063L81.18125 84.38438Q81.18125 85.91563 80.19688 86.91563Q79.22813 87.9 77.69688 87.9Q76.18125 87.9 75.18125 86.91563Q74.19688 85.93125 74.19688 84.30625L74.19688 83.4625ZM75.80625 84.38438Q75.80625 85.30625 76.32188 85.9Q76.8375 86.49375 77.7125 86.49375Q78.55625 86.49375 79.05625 85.91563Q79.55625 85.32188 79.55625 84.3375L79.55625 83.4625Q79.55625 82.54063 79.04063 81.9625Q78.54063 81.36875 77.68125 81.36875Q76.85313 81.36875 76.32188 81.94688Q75.80625 82.525 75.80625 83.50938L75.80625 84.38438ZM69.88438 86.35313L68.66563 85.5875L76.99375 72.24375L78.22813 73.025L69.88438 86.35313Z" fill-rule="nonzero"/><path stroke="#757575" stroke-width="1.0" stroke-linecap="butt" d="M32.65 63.15L227.65 63.15L487.08762 50.283146" fill-rule="nonzero"/><path fill="#9e9e9e" d="M489.08762 50.283146C489.08762 49.178577 488.1922 48.283146 487.08762 48.283146C485.98306 48.283146 485.08762 49.178577 485.08762 50.283146C485.08762 51.38772 485.98306 52.283146 487.08762 52.283146C488.1922 52.283146 489.08762 51.38772 489.08762 50.283146" fill-rule="nonzero"/><path fill="#000000" d="M46.65 99.5875L46.65 111.18125Q46.634377 113.60313 45.11875 115.15Q43.61875 116.68125 41.040627 116.86875L40.446877 116.88438Q37.65 116.88438 35.978127 115.36875Q34.321877 113.85313 34.290627 111.2125L34.290627 99.5875L36.525 99.5875L36.525 111.13438Q36.525 112.99375 37.540627 114.025Q38.55625 115.04063 40.446877 115.04063Q42.353127 115.04063 43.36875 114.025Q44.384377 113.00938 44.384377 111.15L44.384377 99.5875L46.65 99.5875ZM55.665627 109.04063Q52.759377 108.2125 51.446877 107.00938Q50.134377 105.79063 50.134377 104.00938Q50.134377 101.99375 51.74375 100.68125Q53.353127 99.35313 55.93125 99.35313Q57.68125 99.35313 59.05625 100.04063Q60.446877 100.7125 61.196877 101.91563Q61.946877 103.10313 61.946877 104.525L59.696877 104.525Q59.696877 102.97813 58.7125 102.0875Q57.728127 101.19688 55.93125 101.19688Q54.259377 101.19688 53.321877 101.93125Q52.4 102.66563 52.4 103.9625Q52.4 105.00938 53.275 105.72813Q54.165627 106.44688 56.290627 107.05625Q58.43125 107.65 59.61875 108.36875Q60.821877 109.0875 61.4 110.05625Q61.99375 111.00938 61.99375 112.30625Q61.99375 114.38438 60.36875 115.63438Q58.759377 116.88438 56.040627 116.88438Q54.290627 116.88438 52.759377 116.2125Q51.24375 115.54063 50.415627 114.36875Q49.5875 113.19688 49.5875 111.69688L51.853127 111.69688Q51.853127 113.24375 52.99375 114.15Q54.134377 115.04063 56.040627 115.04063Q57.821877 115.04063 58.775 114.32188Q59.728127 113.5875 59.728127 112.3375Q59.728127 111.0875 58.8375 110.4Q57.9625 109.7125 55.665627 109.04063ZM70.2125 109.72813Q70.2125 107.07188 70.91563 104.63438Q71.63438 102.19688 73.04063 100.2125Q74.44688 98.2125 75.94688 97.4L76.4 98.82188Q74.68125 100.13438 73.5875 102.8375Q72.49375 105.525 72.38438 108.86875L72.38438 109.86875Q72.38438 114.38438 74.025 117.7125Q75.025 119.7125 76.4 120.8375L75.94688 122.16563Q74.4 121.29063 72.97813 119.25938Q70.2125 115.25938 70.2125 109.72813ZM80.3375 103.9625L80.41563 105.55625Q81.86875 103.72813 84.2125 103.72813Q88.22813 103.72813 88.25938 108.275L88.25938 116.65L86.10313 116.65L86.10313 108.25938Q86.0875 106.88438 85.4625 106.22813Q84.85313 105.57188 83.55625 105.57188Q82.49375 105.57188 81.69688 106.13438Q80.9 106.69688 80.4625 107.61875L80.4625 116.65L78.29063 116.65L78.29063 103.9625L80.3375 103.9625ZM90.7125 110.19688Q90.7125 108.32188 91.44688 106.8375Q92.18125 105.35313 93.47813 104.54063Q94.79063 103.72813 96.47813 103.72813Q99.05625 103.72813 100.65 105.525Q102.25938 107.32188 102.25938 110.29063L102.25938 110.44688Q102.25938 112.30625 101.54063 113.775Q100.8375 115.24375 99.525 116.07188Q98.2125 116.88438 96.49375 116.88438Q93.91563 116.88438 92.30625 115.0875Q90.7125 113.29063 90.7125 110.3375L90.7125 110.19688ZM92.9 110.44688Q92.9 112.55625 93.86875 113.8375Q94.85313 115.11875 96.49375 115.11875Q98.15 115.11875 99.11875 113.82188Q100.0875 112.525 100.0875 110.19688Q100.0875 108.10313 99.10313 106.80625Q98.11875 105.50938 96.47813 105.50938Q94.86875 105.50938 93.88438 106.79063Q92.9 108.07188 92.9 110.44688ZM108.22813 100.9L108.22813 103.9625L110.60313 103.9625L110.60313 105.65L108.22813 105.65L108.22813 113.50938Q108.22813 114.275 108.54063 114.65Q108.86875 115.025 109.63438 115.025Q110.00938 115.025 110.66563 114.88438L110.66563 116.65Q109.80625 116.88438 108.99375 116.88438Q107.54063 116.88438 106.80625 116.00938Q106.07188 115.11875 106.07188 113.50938L106.07188 105.65L103.75938 105.65L103.75938 103.9625L106.07188 103.9625L106.07188 100.9L108.22813 100.9ZM131.41562 101.43125L125.93125 101.43125L125.93125 116.65L123.69688 116.65L123.69688 101.43125L118.22813 101.43125L118.22813 99.5875L131.41562 99.5875L131.41562 101.43125ZM138.55624 116.88438Q135.97812 116.88438 134.35312 115.19688Q132.74374 113.49375 132.74374 110.66563L132.74374 110.25938Q132.74374 108.36875 133.4625 106.9Q134.18124 105.41563 135.47812 104.57188Q136.775 103.72813 138.29062 103.72813Q140.75937 103.72813 142.11874 105.36875Q143.49374 106.99375 143.49374 110.025L143.49374 110.93125L134.91562 110.93125Q134.9625 112.80625 136.00937 113.9625Q137.05624 115.11875 138.66562 115.11875Q139.82187 115.11875 140.61874 114.65Q141.41562 114.18125 142.00937 113.4L143.3375 114.43125Q141.74374 116.88438 138.55624 116.88438ZM138.29062 105.50938Q136.97812 105.50938 136.0875 106.47813Q135.19687 107.43125 134.97812 109.15L141.3375 109.15L141.3375 108.97813Q141.24374 107.3375 140.44687 106.43125Q139.65 105.50938 138.29062 105.50938ZM150.54062 108.60313L153.35312 103.9625L155.88437 103.9625L151.74374 110.24375L156.025 116.65L153.50937 116.65L150.5875 111.9L147.65 116.65L145.13437 116.65L149.41562 110.24375L145.25937 103.9625L147.775 103.9625L150.54062 108.60313ZM166.11874 116.65Q165.93124 116.275 165.82187 115.30625Q164.30624 116.88438 162.2125 116.88438Q160.3375 116.88438 159.13437 115.82188Q157.93124 114.75938 157.93124 113.13438Q157.93124 111.15 159.43124 110.05625Q160.94687 108.9625 163.66562 108.9625L165.775 108.9625L165.775 107.9625Q165.775 106.82188 165.0875 106.15Q164.41562 105.47813 163.10312 105.47813Q161.93124 105.47813 161.15 106.07188Q160.36874 106.65 160.36874 107.47813L158.18124 107.47813Q158.18124 106.54063 158.85312 105.65Q159.54062 104.75938 160.68124 104.24375Q161.8375 103.72813 163.22812 103.72813Q165.41562 103.72813 166.65 104.8375Q167.9 105.93125 167.94687 107.85313L167.94687 113.68125Q167.94687 115.43125 168.4 116.4625L168.4 116.65L166.11874 116.65ZM162.525 114.99375Q163.54062 114.99375 164.44687 114.47813Q165.36874 113.94688 165.775 113.10313L165.775 110.49375L164.0875 110.49375Q160.10312 110.49375 160.10312 112.82188Q160.10312 113.85313 160.775 114.43125Q161.4625 114.99375 162.525 114.99375ZM178.68124 113.29063Q178.68124 112.4 178.00937 111.91563Q177.35312 111.43125 175.69687 111.0875Q174.05624 110.72813 173.0875 110.24375Q172.11874 109.74375 171.65 109.07188Q171.19687 108.38438 171.19687 107.44688Q171.19687 105.88438 172.50937 104.80625Q173.8375 103.72813 175.88437 103.72813Q178.04062 103.72813 179.38437 104.85313Q180.72812 105.9625 180.72812 107.69688L178.54062 107.69688Q178.54062 106.80625 177.79062 106.16563Q177.04062 105.50938 175.88437 105.50938Q174.69687 105.50938 174.025 106.025Q173.36874 106.54063 173.36874 107.38438Q173.36874 108.16563 173.97812 108.57188Q174.60312 108.9625 176.22812 109.32188Q177.85312 109.68125 178.85312 110.19688Q179.86874 110.69688 180.35312 111.41563Q180.8375 112.11875 180.8375 113.13438Q180.8375 114.8375 179.47812 115.86875Q178.11874 116.88438 175.9625 116.88438Q174.43124 116.88438 173.25937 116.35313Q172.0875 115.80625 171.41562 114.8375Q170.75937 113.86875 170.75937 112.74375L172.93124 112.74375Q172.99374 113.8375 173.80624 114.47813Q174.61874 115.11875 175.9625 115.11875Q177.18124 115.11875 177.93124 114.61875Q178.68124 114.11875 178.68124 113.29063ZM188.29062 109.8375Q188.29062 112.44688 187.60312 114.85313Q186.93124 117.24375 185.50937 119.275Q184.10312 121.30625 182.55624 122.16563L182.10312 120.8375Q183.9 119.44688 184.99374 116.54063Q186.0875 113.61875 186.11874 110.07188L186.11874 109.69688Q186.11874 107.24375 185.60312 105.13438Q185.0875 103.00938 184.16562 101.3375Q183.24374 99.65 182.10312 98.7125L182.55624 97.4Q184.10312 98.24375 185.49374 100.25938Q186.9 102.25938 187.5875 104.68125Q188.29062 107.0875 188.29062 109.8375Z" fill-rule="nonzero"/><path fill="#9e9e9e" d="M41.196877 148.65L39.009377 148.65L39.009377 134.19687L34.65 135.80624L34.65 133.8375L40.853127 131.50937L41.196877 131.50937L41.196877 148.65ZM50.228127 139.05624L51.853127 139.05624Q53.384377 139.04062 54.259377 138.25937Q55.15 137.4625 55.15 136.13437Q55.15 133.13437 52.15 133.13437Q50.74375 133.13437 49.9 133.94687Q49.071877 134.74374 49.071877 136.05624L46.9 136.05624Q46.9 134.04062 48.384377 132.69687Q49.86875 131.35312 52.15 131.35312Q54.571877 131.35312 55.93125 132.63437Q57.30625 133.9 57.30625 136.18124Q57.30625 137.29062 56.5875 138.3375Q55.86875 139.38437 54.634377 139.9Q56.040627 140.3375 56.80625 141.36874Q57.571877 142.4 57.571877 143.88437Q57.571877 146.18124 56.071877 147.54062Q54.571877 148.88437 52.165627 148.88437Q49.759377 148.88437 48.259377 147.5875Q46.759377 146.275 46.759377 144.15L48.93125 144.15Q48.93125 145.49374 49.80625 146.30624Q50.696877 147.11874 52.165627 147.11874Q53.74375 147.11874 54.571877 146.30624Q55.4 145.47812 55.4 143.93124Q55.4 142.44687 54.478127 141.65Q53.571877 140.85312 51.853127 140.8375L50.228127 140.8375L50.228127 139.05624ZM60.3375 147.50937Q60.3375 146.94687 60.665627 146.57187Q61.009377 146.19687 61.665627 146.19687Q62.3375 146.19687 62.68125 146.57187Q63.040627 146.94687 63.040627 147.50937Q63.040627 148.05624 62.68125 148.41562Q62.3375 148.775 61.665627 148.775Q61.009377 148.775 60.665627 148.41562Q60.3375 148.05624 60.3375 147.50937ZM74.38438 141.15Q73.69688 141.9625 72.74375 142.4625Q71.80625 142.94687 70.68125 142.94687Q69.2125 142.94687 68.11875 142.22812Q67.025 141.49374 66.41563 140.18124Q65.82188 138.85312 65.82188 137.25937Q65.82188 135.54062 66.4625 134.18124Q67.11875 132.80624 68.30625 132.0875Q69.50938 131.35312 71.10313 131.35312Q73.63438 131.35312 75.0875 133.24374Q76.55625 135.13437 76.55625 138.4L76.55625 139.04062Q76.55625 144.025 74.5875 146.32187Q72.61875 148.60312 68.65 148.66562L68.22813 148.66562L68.22813 146.8375L68.68125 146.8375Q71.36875 146.79062 72.80625 145.43124Q74.24375 144.07187 74.38438 141.15ZM71.04063 141.15Q72.13438 141.15 73.04063 140.47812Q73.9625 139.80624 74.38438 138.82187L74.38438 137.9625Q74.38438 135.82187 73.4625 134.49374Q72.54063 133.15 71.11875 133.15Q69.69688 133.15 68.82188 134.25937Q67.9625 135.35312 67.9625 137.13437Q67.9625 138.88437 68.79063 140.025Q69.63438 141.15 71.04063 141.15ZM78.88438 134.86874Q78.88438 133.3375 79.85313 132.3375Q80.8375 131.3375 82.36875 131.3375Q83.93125 131.3375 84.9 132.3375Q85.86875 133.3375 85.86875 134.93124L85.86875 135.775Q85.86875 137.32187 84.88438 138.30624Q83.91563 139.275 82.4 139.275Q80.86875 139.275 79.86875 138.30624Q78.88438 137.32187 78.88438 135.68124L78.88438 134.86874ZM80.49375 135.775Q80.49375 136.68124 81.00938 137.275Q81.525 137.86874 82.4 137.86874Q83.22813 137.86874 83.72813 137.29062Q84.24375 136.7125 84.24375 135.72812L84.24375 134.86874Q84.24375 133.94687 83.74375 133.35312Q83.24375 132.75937 82.36875 132.75937Q81.50938 132.75937 80.99375 133.35312Q80.49375 133.94687 80.49375 134.91562L80.49375 135.775ZM87.19688 144.4625Q87.19688 142.93124 88.16563 141.94687Q89.15 140.94687 90.68125 140.94687Q92.2125 140.94687 93.19688 141.93124Q94.18125 142.91562 94.18125 144.54062L94.18125 145.38437Q94.18125 146.91562 93.19688 147.91562Q92.22813 148.9 90.69688 148.9Q89.18125 148.9 88.18125 147.91562Q87.19688 146.93124 87.19688 145.30624L87.19688 144.4625ZM88.80625 145.38437Q88.80625 146.30624 89.32188 146.9Q89.8375 147.49374 90.7125 147.49374Q91.55625 147.49374 92.05625 146.91562Q92.55625 146.32187 92.55625 145.3375L92.55625 144.4625Q92.55625 143.54062 92.04063 142.9625Q91.54063 142.36874 90.68125 142.36874Q89.85313 142.36874 89.32188 142.94687Q88.80625 143.525 88.80625 144.50937L88.80625 145.38437ZM82.88438 147.35312L81.66563 146.5875L89.99375 133.24374L91.22813 134.025L82.88438 147.35312Z" fill-rule="nonzero"/><path stroke="#757575" stroke-width="1.0" stroke-linecap="butt" d="M32.65 124.15L227.65 124.15L342.09262 117.8064" fill-rule="nonzero"/><path fill="#9e9e9e" d="M344.09262 117.8064C344.09262 116.70183 343.1972 115.8064 342.09262 115.8064C340.98807 115.8064 340.09262 116.70183 340.09262 117.8064C340.09262 118.91097 340.98807 119.8064 342.09262 119.8064C343.1972 119.8064 344.09262 118.91097 344.09262 117.8064" fill-rule="nonzero"/><path fill="#000000" d="M972.1156 537.11707L966.6312 537.11707L966.6312 552.3358L964.39685 552.3358L964.39685 537.11707L958.9281 537.11707L958.9281 535.2733L972.1156 535.2733L972.1156 537.11707ZM979.2562 552.5702Q976.6781 552.5702 975.0531 550.8827Q973.4437 549.17957 973.4437 546.35144L973.4437 545.9452Q973.4437 544.05457 974.1625 542.5858Q974.8812 541.10144 976.1781 540.2577Q977.475 539.41394 978.9906 539.41394Q981.45935 539.41394 982.8187 541.05457Q984.1937 542.67957 984.1937 545.7108L984.1937 546.61707L975.6156 546.61707Q975.6625 548.49207 976.70935 549.6483Q977.7562 550.80457 979.3656 550.80457Q980.52185 550.80457 981.3187 550.3358Q982.1156 549.86707 982.70935 549.0858L984.0375 550.11707Q982.4437 552.5702 979.2562 552.5702ZM978.9906 541.1952Q977.6781 541.1952 976.7875 542.16394Q975.89685 543.11707 975.6781 544.8358L982.0375 544.8358L982.0375 544.66394Q981.9437 543.0233 981.14685 542.11707Q980.35 541.1952 978.9906 541.1952ZM991.2406 544.28894L994.0531 539.6483L996.58435 539.6483L992.4437 545.92957L996.725 552.3358L994.20935 552.3358L991.2875 547.5858L988.35 552.3358L985.83435 552.3358L990.1156 545.92957L985.95935 539.6483L988.475 539.6483L991.2406 544.28894ZM1006.8187 552.3358Q1006.6312 551.9608 1006.52185 550.99207Q1005.0062 552.5702 1002.9125 552.5702Q1001.0375 552.5702 999.83435 551.5077Q998.6312 550.4452 998.6312 548.8202Q998.6312 546.8358 1000.1312 545.74207Q1001.64685 544.6483 1004.3656 544.6483L1006.475 544.6483L1006.475 543.6483Q1006.475 542.5077 1005.7875 541.8358Q1005.1156 541.16394 1003.8031 541.16394Q1002.6312 541.16394 1001.85 541.7577Q1001.0687 542.3358 1001.0687 543.16394L998.8812 543.16394Q998.8812 542.22644 999.5531 541.3358Q1000.2406 540.4452 1001.3812 539.92957Q1002.5375 539.41394 1003.9281 539.41394Q1006.1156 539.41394 1007.35 540.5233Q1008.6 541.61707 1008.64685 543.53894L1008.64685 549.36707Q1008.64685 551.11707 1009.1 552.1483L1009.1 552.3358L1006.8187 552.3358ZM1003.225 550.67957Q1004.2406 550.67957 1005.14685 550.16394Q1006.0687 549.6327 1006.475 548.78894L1006.475 546.17957L1004.7875 546.17957Q1000.8031 546.17957 1000.8031 548.5077Q1000.8031 549.53894 1001.475 550.11707Q1002.1625 550.67957 1003.225 550.67957ZM1019.3812 548.97644Q1019.3812 548.0858 1018.70935 547.60144Q1018.0531 547.11707 1016.39685 546.7733Q1014.7562 546.41394 1013.7875 545.92957Q1012.8187 545.42957 1012.35 544.7577Q1011.89685 544.0702 1011.89685 543.1327Q1011.89685 541.5702 1013.20935 540.49207Q1014.5375 539.41394 1016.58435 539.41394Q1018.7406 539.41394 1020.08435 540.53894Q1021.4281 541.6483 1021.4281 543.3827L1019.2406 543.3827Q1019.2406 542.49207 1018.4906 541.85144Q1017.7406 541.1952 1016.58435 541.1952Q1015.39685 541.1952 1014.725 541.7108Q1014.0687 542.22644 1014.0687 543.0702Q1014.0687 543.85144 1014.6781 544.2577Q1015.3031 544.6483 1016.9281 545.0077Q1018.5531 545.36707 1019.5531 545.8827Q1020.5687 546.3827 1021.0531 547.10144Q1021.5375 547.80457 1021.5375 548.8202Q1021.5375 550.5233 1020.1781 551.55457Q1018.8187 552.5702 1016.6625 552.5702Q1015.1312 552.5702 1013.95935 552.03894Q1012.7875 551.49207 1012.1156 550.5233Q1011.45935 549.55457 1011.45935 548.42957L1013.6312 548.42957Q1013.6937 549.5233 1014.5062 550.16394Q1015.3187 550.80457 1016.6625 550.80457Q1017.8812 550.80457 1018.6312 550.30457Q1019.3812 549.80457 1019.3812 548.97644Z" fill-rule="nonzero"/><path fill="#9e9e9e" d="M971.1156 571.72644Q971.1156 573.0077 970.4437 574.0077Q969.77185 574.99207 968.6156 575.55457Q969.95935 576.1327 970.7406 577.24207Q971.52185 578.3358 971.52185 579.72644Q971.52185 581.9452 970.02185 583.2577Q968.52185 584.5702 966.08435 584.5702Q963.6312 584.5702 962.14685 583.2577Q960.6625 581.92957 960.6625 579.72644Q960.6625 578.35144 961.4125 577.24207Q962.1781 576.11707 963.5062 575.53894Q962.3812 574.97644 961.725 573.99207Q961.0687 572.99207 961.0687 571.72644Q961.0687 569.5702 962.4437 568.30457Q963.83435 567.03894 966.08435 567.03894Q968.33435 567.03894 969.725 568.30457Q971.1156 569.5702 971.1156 571.72644ZM969.35 579.67957Q969.35 578.2577 968.4437 577.35144Q967.5375 576.4452 966.0687 576.4452Q964.6 576.4452 963.70935 577.3358Q962.83435 578.22644 962.83435 579.67957Q962.83435 581.1327 963.6937 581.97644Q964.5531 582.80457 966.08435 582.80457Q967.6156 582.80457 968.475 581.9608Q969.35 581.11707 969.35 579.67957ZM966.08435 568.8202Q964.8187 568.8202 964.02185 569.61707Q963.225 570.3983 963.225 571.7577Q963.225 573.05457 964.0062 573.86707Q964.7875 574.66394 966.08435 574.66394Q967.39685 574.66394 968.1625 573.86707Q968.9437 573.05457 968.9437 571.7577Q968.9437 570.4608 968.1312 569.6483Q967.33435 568.8202 966.08435 568.8202ZM980.89685 584.3358L978.70935 584.3358L978.70935 569.8827L974.35 571.49207L974.35 569.5233L980.5531 567.1952L980.89685 567.1952L980.89685 584.3358ZM987.0375 583.1952Q987.0375 582.6327 987.3656 582.2577Q987.70935 581.8827 988.3656 581.8827Q989.0375 581.8827 989.3812 582.2577Q989.7406 582.6327 989.7406 583.1952Q989.7406 583.74207 989.3812 584.10144Q989.0375 584.4608 988.3656 584.4608Q987.70935 584.4608 987.3656 584.10144Q987.0375 583.74207 987.0375 583.1952ZM993.77185 575.7733L994.6312 567.2733L1003.3812 567.2733L1003.3812 569.2733L996.475 569.2733L995.95935 573.92957Q997.20935 573.1952 998.8031 573.1952Q1001.1312 573.1952 1002.5062 574.74207Q1003.8812 576.2733 1003.8812 578.8983Q1003.8812 581.53894 1002.45935 583.05457Q1001.0375 584.5702 998.475 584.5702Q996.20935 584.5702 994.77185 583.3202Q993.35 582.05457 993.1625 579.85144L995.20935 579.85144Q995.4125 581.30457 996.2562 582.05457Q997.1 582.80457 998.475 582.80457Q999.9906 582.80457 1000.85 581.7733Q1001.70935 580.74207 1001.70935 578.91394Q1001.70935 577.2108 1000.77185 576.17957Q999.85 575.1327 998.3031 575.1327Q996.8812 575.1327 996.0687 575.7577L995.5062 576.22644L993.77185 575.7733ZM1005.58435 570.55457Q1005.58435 569.0233 1006.5531 568.0233Q1007.5375 567.0233 1009.0687 567.0233Q1010.6312 567.0233 1011.6 568.0233Q1012.5687 569.0233 1012.5687 570.61707L1012.5687 571.4608Q1012.5687 573.0077 1011.58435 573.99207Q1010.6156 574.9608 1009.1 574.9608Q1007.5687 574.9608 1006.5687 573.99207Q1005.58435 573.0077 1005.58435 571.36707L1005.58435 570.55457ZM1007.1937 571.4608Q1007.1937 572.36707 1007.70935 572.9608Q1008.225 573.55457 1009.1 573.55457Q1009.9281 573.55457 1010.4281 572.97644Q1010.9437 572.3983 1010.9437 571.41394L1010.9437 570.55457Q1010.9437 569.6327 1010.4437 569.03894Q1009.9437 568.4452 1009.0687 568.4452Q1008.20935 568.4452 1007.6937 569.03894Q1007.1937 569.6327 1007.1937 570.60144L1007.1937 571.4608ZM1013.89685 580.1483Q1013.89685 578.61707 1014.8656 577.6327Q1015.85 576.6327 1017.3812 576.6327Q1018.9125 576.6327 1019.89685 577.61707Q1020.8812 578.60144 1020.8812 580.22644L1020.8812 581.0702Q1020.8812 582.60144 1019.89685 583.60144Q1018.9281 584.5858 1017.39685 584.5858Q1015.8812 584.5858 1014.8812 583.60144Q1013.89685 582.61707 1013.89685 580.99207L1013.89685 580.1483ZM1015.5062 581.0702Q1015.5062 581.99207 1016.02185 582.5858Q1016.5375 583.17957 1017.4125 583.17957Q1018.2562 583.17957 1018.7562 582.60144Q1019.2562 582.0077 1019.2562 581.0233L1019.2562 580.1483Q1019.2562 579.22644 1018.7406 578.6483Q1018.2406 578.05457 1017.3812 578.05457Q1016.5531 578.05457 1016.02185 578.6327Q1015.5062 579.2108 1015.5062 580.1952L1015.5062 581.0702ZM1009.58435 583.03894L1008.3656 582.2733L1016.6937 568.92957L1017.9281 569.7108L1009.58435 583.03894Z" fill-rule="nonzero"/><path stroke="#757575" stroke-width="1.0" stroke-linecap="butt" d="M1022.35 559.8358L827.35 559.8358L680.7427 559.8358" fill-rule="nonzero"/><path fill="#9e9e9e" d="M682.7427 559.8358C682.7427 558.73126 681.8472 557.8358 680.7427 557.8358C679.63806 557.8358 678.7427 558.73126 678.7427 559.8358C678.7427 560.94037 679.63806 561.8358 680.7427 561.8358C681.8472 561.8358 682.7427 560.94037 682.7427 559.8358" fill-rule="nonzero"/></svg>