<svg version="1.1" viewBox="0.0 0.0 1147.0 710.0" fill="none" stroke="none" stroke-linecap="square" stroke-miterlimit="10" width="1147" height="710" xmlns:xlink="http://www.w3.org/1999/xlink" xmlns="http://www.w3.org/2000/svg"><path fill="#ffffff" d="M0 0L1147.0 0L1147.0 710.0L0 710.0L0 0Z" fill-rule="nonzero"/><path fill="#50a6a6" d="M489.66992 46.69371C516.9938 39.264206 545.1841 35.5 573.5 35.5L573.5 195.25C559.34204 195.25 545.2469 197.13211 531.58496 200.84685Z" fill-rule="nonzero"/><path fill="#457d7c" d="M326.24313 152.65305C368.36295 101.18493 425.494 64.14348 489.66992 46.69371L531.58496 200.84685C499.49698 209.57175 470.9315 228.09247 449.87155 253.82652Z" fill-rule="nonzero"/><path fill="#004552" d="M255.95282 390.27087C246.46312 304.83423 271.8013 219.17795 326.24313 152.65305L449.87155 253.82652C422.65067 287.089 409.98157 329.9171 414.7264 372.63544Z" fill-rule="nonzero"/><path fill="#ab4028" d="M399.6855 623.0835C319.2888 570.9575 266.53033 485.50143 255.95282 390.27087L414.7264 372.63544C420.01517 420.25073 446.3944 462.97876 486.59274 489.04175Z" fill-rule="nonzero"/><path fill="#d77659" d="M573.5 35.5C709.83484 35.5 831.14966 122.01054 875.5676 250.90672C919.9856 379.8029 877.7196 522.6838 770.3276 606.67267C662.9356 690.6616 514.0802 697.25244 399.6855 623.0835L486.59274 489.04175C543.7901 526.1262 618.2178 522.8308 671.9138 480.83633C725.6098 438.8419 746.7428 367.40146 724.5338 302.95337C702.3248 238.50526 641.6674 195.25 573.5 195.25Z" fill-rule="nonzero"/><path stroke="#ffffff" stroke-width="1.0" stroke-linejoin="round" stroke-linecap="round" d="M486.59274 489.04175C543.7901 526.1262 618.2178 522.8308 671.9138 480.83633C725.6098 438.8419 746.7428 367.40146 724.5338 302.95337C702.3248 238.50526 641.6674 195.25 573.5 195.25L573.5 35.5C709.83484 35.5 831.14966 122.01054 875.5676 250.90672C919.9856 379.8029 877.7196 522.6838 770.3276 606.67267C662.9356 690.6616 514.0802 697.25244 399.6855 623.0835" fill-rule="nonzero"/><path stroke="#ffffff" stroke-width="1.0" stroke-linejoin="round" stroke-linecap="round" d="M414.7264 372.63544C420.01517 420.25073 446.3944 462.97876 486.59274 489.04175L399.6855 623.0835C319.2888 570.9575 266.53033 485.50143 255.95282 390.27087" fill-rule="nonzero"/><path stroke="#ffffff" stroke-width="1.0" stroke-linejoin="round" stroke-linecap="round" d="M449.87155 253.82652C422.65067 287.089 409.98157 329.9171 414.7264 372.63544L255.95282 390.27087C246.46312 304.83423 271.8013 219.17795 326.24313 152.65305" fill-rule="nonzero"/><path stroke="#ffffff" stroke-width="1.0" stroke-linejoin="round" stroke-linecap="round" d="M531.58496 200.84685C499.49698 209.57175 470.9315 228.09247 449.87155 253.82652L326.24313 152.65305C368.36295 101.18493 425.494 64.14348 489.66992 46.69371" fill-rule="nonzero"/><path stroke="#ffffff" stroke-width="1.0" stroke-linejoin="round" stroke-linecap="round" d="M573.5 195.25C559.34204 195.25 545.2469 197.13211 531.58496 200.84685L489.66992 46.69371C516.9938 39.264206 545.1841 35.5 573.5 35.5" fill-rule="nonzero"/><path fill="#000000" d="M50.609375 50.515625Q50.609375 53.03125 49.765625 54.90625Q48.921875 56.765625 47.375 57.75Q45.828125 58.734375 43.765625 58.734375Q41.75 58.734375 40.1875 57.75Q38.625 56.75 37.765625 54.921875Q36.90625 53.078125 36.890625 50.671875L36.890625 49.4375Q36.890625 46.984375 37.734375 45.09375Q38.59375 43.203125 40.15625 42.203125Q41.71875 41.203125 43.734375 41.203125Q45.796875 41.203125 47.359375 42.203125Q48.921875 43.1875 49.765625 45.0625Q50.609375 46.9375 50.609375 49.4375L50.609375 50.515625ZM48.375 49.421875Q48.375 46.375 47.15625 44.765625Q45.9375 43.140625 43.734375 43.140625Q41.609375 43.140625 40.375 44.765625Q39.15625 46.375 39.125 49.265625L39.125 50.515625Q39.125 53.453125 40.359375 55.140625Q41.59375 56.828125 43.765625 56.828125Q45.9375 56.828125 47.125 55.234375Q48.328125 53.640625 48.375 50.6875L48.375 49.421875ZM57.078125 42.75L57.078125 45.8125L59.453125 45.8125L59.453125 47.5L57.078125 47.5L57.078125 55.359375Q57.078125 56.125 57.390625 56.5Q57.71875 56.875 58.484375 56.875Q58.859375 56.875 59.515625 56.734375L59.515625 58.5Q58.65625 58.734375 57.84375 58.734375Q56.390625 58.734375 55.65625 57.859375Q54.921875 56.96875 54.921875 55.359375L54.921875 47.5L52.609375 47.5L52.609375 45.8125L54.921875 45.8125L54.921875 42.75L57.078125 42.75ZM64.3125 47.359375Q65.75 45.578125 68.0625 45.578125Q72.078125 45.578125 72.109375 50.125L72.109375 58.5L69.953125 58.5L69.953125 50.109375Q69.9375 48.734375 69.3125 48.078125Q68.703125 47.421875 67.40625 47.421875Q66.34375 47.421875 65.546875 47.984375Q64.75 48.546875 64.3125 49.46875L64.3125 58.5L62.140625 58.5L62.140625 40.5L64.3125 40.5L64.3125 47.359375ZM80.40625 58.734375Q77.828125 58.734375 76.203125 57.046875Q74.59375 55.34375 74.59375 52.515625L74.59375 52.109375Q74.59375 50.21875 75.3125 48.75Q76.03125 47.265625 77.328125 46.421875Q78.625 45.578125 80.140625 45.578125Q82.609375 45.578125 83.96875 47.21875Q85.34375 48.84375 85.34375 51.875L85.34375 52.78125L76.765625 52.78125Q76.8125 54.65625 77.859375 55.8125Q78.90625 56.96875 80.515625 56.96875Q81.671875 56.96875 82.46875 56.5Q83.265625 56.03125 83.859375 55.25L85.1875 56.28125Q83.59375 58.734375 80.40625 58.734375ZM80.140625 47.359375Q78.828125 47.359375 77.9375 48.328125Q77.046875 49.28125 76.828125 51.0L83.1875 51.0L83.1875 50.828125Q83.09375 49.1875 82.296875 48.28125Q81.5 47.359375 80.140625 47.359375ZM94.265625 47.765625Q93.78125 47.6875 93.203125 47.6875Q91.078125 47.6875 90.3125 49.5L90.3125 58.5L88.140625 58.5L88.140625 45.8125L90.25 45.8125L90.28125 47.28125Q91.359375 45.578125 93.3125 45.578125Q93.9375 45.578125 94.265625 45.75L94.265625 47.765625Z" fill-rule="nonzero"/><path fill="#9e9e9e" d="M46.078125 84.765625L48.4375 84.765625L48.4375 86.53125L46.078125 86.53125L46.078125 90.5L43.890625 90.5L43.890625 86.53125L36.125 86.53125L36.125 85.265625L43.765625 73.4375L46.078125 73.4375L46.078125 84.765625ZM38.578125 84.765625L43.890625 84.765625L43.890625 76.40625L43.640625 76.875L38.578125 84.765625ZM50.1875 89.359375Q50.1875 88.796875 50.515625 88.421875Q50.859375 88.046875 51.515625 88.046875Q52.1875 88.046875 52.53125 88.421875Q52.890625 88.796875 52.890625 89.359375Q52.890625 89.90625 52.53125 90.265625Q52.1875 90.625 51.515625 90.625Q50.859375 90.625 50.515625 90.265625Q50.1875 89.90625 50.1875 89.359375ZM67.09375 90.5L55.921875 90.5L55.921875 88.9375L61.828125 82.375Q63.140625 80.890625 63.640625 79.96875Q64.140625 79.03125 64.140625 78.03125Q64.140625 76.6875 63.328125 75.84375Q62.515625 74.984375 61.171875 74.984375Q59.546875 74.984375 58.65625 75.90625Q57.765625 76.828125 57.765625 78.46875L55.59375 78.46875Q55.59375 76.109375 57.109375 74.65625Q58.625 73.203125 61.171875 73.203125Q63.546875 73.203125 64.921875 74.453125Q66.3125 75.703125 66.3125 77.765625Q66.3125 80.296875 63.109375 83.765625L58.53125 88.734375L67.09375 88.734375L67.09375 90.5ZM68.734375 76.71875Q68.734375 75.1875 69.703125 74.1875Q70.6875 73.1875 72.21875 73.1875Q73.78125 73.1875 74.75 74.1875Q75.71875 75.1875 75.71875 76.78125L75.71875 77.625Q75.71875 79.171875 74.734375 80.15625Q73.765625 81.125 72.25 81.125Q70.71875 81.125 69.71875 80.15625Q68.734375 79.171875 68.734375 77.53125L68.734375 76.71875ZM70.34375 77.625Q70.34375 78.53125 70.859375 79.125Q71.375 79.71875 72.25 79.71875Q73.078125 79.71875 73.578125 79.140625Q74.09375 78.5625 74.09375 77.578125L74.09375 76.71875Q74.09375 75.796875 73.59375 75.203125Q73.09375 74.609375 72.21875 74.609375Q71.359375 74.609375 70.84375 75.203125Q70.34375 75.796875 70.34375 76.765625L70.34375 77.625ZM77.046875 86.3125Q77.046875 84.78125 78.015625 83.796875Q79.0 82.796875 80.53125 82.796875Q82.0625 82.796875 83.046875 83.78125Q84.03125 84.765625 84.03125 86.390625L84.03125 87.234375Q84.03125 88.765625 83.046875 89.765625Q82.078125 90.75 80.546875 90.75Q79.03125 90.75 78.03125 89.765625Q77.046875 88.78125 77.046875 87.15625L77.046875 86.3125ZM78.65625 87.234375Q78.65625 88.15625 79.171875 88.75Q79.6875 89.34375 80.5625 89.34375Q81.40625 89.34375 81.90625 88.765625Q82.40625 88.171875 82.40625 87.1875L82.40625 86.3125Q82.40625 85.390625 81.890625 84.8125Q81.390625 84.21875 80.53125 84.21875Q79.703125 84.21875 79.171875 84.796875Q78.65625 85.375 78.65625 86.359375L78.65625 87.234375ZM72.734375 89.203125L71.515625 88.4375L79.84375 75.09375L81.078125 75.875L72.734375 89.203125Z" fill-rule="nonzero"/><path stroke="#757575" stroke-width="1.0" stroke-linecap="butt" d="M35.5 66.0L248.0 66.0L533.3273 54.145252" fill-rule="nonzero"/><path fill="#9e9e9e" d="M535.3273 54.145252C535.3273 53.040684 534.4319 52.145252 533.3273 52.145252C532.2227 52.145252 531.3273 53.040684 531.3273 54.145252C531.3273 55.24982 532.2227 56.145252 533.3273 56.145252C534.4319 56.145252 535.3273 55.24982 535.3273 54.145252" fill-rule="nonzero"/><path fill="#000000" d="M42.515625 111.890625Q39.609375 111.0625 38.296875 109.859375Q36.984375 108.640625 36.984375 106.859375Q36.984375 104.84375 38.59375 103.53125Q40.203125 102.203125 42.78125 102.203125Q44.53125 102.203125 45.90625 102.890625Q47.296875 103.5625 48.046875 104.765625Q48.796875 105.953125 48.796875 107.375L46.546875 107.375Q46.546875 105.828125 45.5625 104.9375Q44.578125 104.046875 42.78125 104.046875Q41.109375 104.046875 40.171875 104.78125Q39.25 105.515625 39.25 106.8125Q39.25 107.859375 40.125 108.578125Q41.015625 109.296875 43.140625 109.90625Q45.28125 110.5 46.46875 111.21875Q47.671875 111.9375 48.25 112.90625Q48.84375 113.859375 48.84375 115.15625Q48.84375 117.234375 47.21875 118.484375Q45.609375 119.734375 42.890625 119.734375Q41.140625 119.734375 39.609375 119.0625Q38.09375 118.390625 37.265625 117.21875Q36.4375 116.046875 36.4375 114.546875L38.703125 114.546875Q38.703125 116.09375 39.84375 117.0Q40.984375 117.890625 42.890625 117.890625Q44.671875 117.890625 45.625 117.171875Q46.578125 116.4375 46.578125 115.1875Q46.578125 113.9375 45.6875 113.25Q44.8125 112.5625 42.515625 111.890625ZM58.96875 119.5Q58.78125 119.125 58.671875 118.15625Q57.15625 119.734375 55.0625 119.734375Q53.1875 119.734375 51.984375 118.671875Q50.78125 117.609375 50.78125 115.984375Q50.78125 114.0 52.28125 112.90625Q53.796875 111.8125 56.515625 111.8125L58.625 111.8125L58.625 110.8125Q58.625 109.671875 57.9375 109.0Q57.265625 108.328125 55.953125 108.328125Q54.78125 108.328125 54.0 108.921875Q53.21875 109.5 53.21875 110.328125L51.03125 110.328125Q51.03125 109.390625 51.703125 108.5Q52.390625 107.609375 53.53125 107.09375Q54.6875 106.578125 56.078125 106.578125Q58.265625 106.578125 59.5 107.6875Q60.75 108.78125 60.796875 110.703125L60.796875 116.53125Q60.796875 118.28125 61.25 119.3125L61.25 119.5L58.96875 119.5ZM55.375 117.84375Q56.390625 117.84375 57.296875 117.328125Q58.21875 116.796875 58.625 115.953125L58.625 113.34375L56.9375 113.34375Q52.953125 113.34375 52.953125 115.671875Q52.953125 116.703125 53.625 117.28125Q54.3125 117.84375 55.375 117.84375ZM66.1875 106.8125L66.265625 108.40625Q67.71875 106.578125 70.0625 106.578125Q74.078125 106.578125 74.109375 111.125L74.109375 119.5L71.953125 119.5L71.953125 111.109375Q71.9375 109.734375 71.3125 109.078125Q70.703125 108.421875 69.40625 108.421875Q68.34375 108.421875 67.546875 108.984375Q66.75 109.546875 66.3125 110.46875L66.3125 119.5L64.140625 119.5L64.140625 106.8125L66.1875 106.8125ZM92.90625 115.046875L85.75 115.046875L84.15625 119.5L81.828125 119.5L88.34375 102.4375L90.3125 102.4375L96.84375 119.5L94.53125 119.5L92.90625 115.046875ZM86.4375 113.1875L92.234375 113.1875L89.328125 105.21875L86.4375 113.1875ZM101.1875 106.8125L101.265625 108.40625Q102.71875 106.578125 105.0625 106.578125Q109.078125 106.578125 109.109375 111.125L109.109375 119.5L106.953125 119.5L106.953125 111.109375Q106.9375 109.734375 106.3125 109.078125Q105.703125 108.421875 104.40625 108.421875Q103.34375 108.421875 102.546875 108.984375Q101.75 109.546875 101.3125 110.46875L101.3125 119.5L99.140625 119.5L99.140625 106.8125L101.1875 106.8125ZM115.078125 103.75L115.078125 106.8125L117.453125 106.8125L117.453125 108.5L115.078125 108.5L115.078125 116.359375Q115.078125 117.125 115.390625 117.5Q115.71875 117.875 116.484375 117.875Q116.859375 117.875 117.515625 117.734375L117.515625 119.5Q116.65625 119.734375 115.84375 119.734375Q114.390625 119.734375 113.65625 118.859375Q112.921875 117.96875 112.921875 116.359375L112.921875 108.5L110.609375 108.5L110.609375 106.8125L112.921875 106.8125L112.921875 103.75L115.078125 103.75ZM119.5625 113.046875Q119.5625 111.171875 120.296875 109.6875Q121.03125 108.203125 122.328125 107.390625Q123.640625 106.578125 125.328125 106.578125Q127.90625 106.578125 129.5 108.375Q131.10938 110.171875 131.10938 113.140625L131.10938 113.296875Q131.10938 115.15625 130.39062 116.625Q129.6875 118.09375 128.375 118.921875Q127.0625 119.734375 125.34375 119.734375Q122.765625 119.734375 121.15625 117.9375Q119.5625 116.140625 119.5625 113.1875L119.5625 113.046875ZM121.75 113.296875Q121.75 115.40625 122.71875 116.6875Q123.703125 117.96875 125.34375 117.96875Q127.0 117.96875 127.96875 116.671875Q128.9375 115.375 128.9375 113.046875Q128.9375 110.953125 127.953125 109.65625Q126.96875 108.359375 125.328125 108.359375Q123.71875 108.359375 122.734375 109.640625Q121.75 110.921875 121.75 113.296875ZM136.1875 106.8125L136.26562 108.40625Q137.71875 106.578125 140.0625 106.578125Q144.07812 106.578125 144.10938 111.125L144.10938 119.5L141.95312 119.5L141.95312 111.109375Q141.9375 109.734375 141.3125 109.078125Q140.70312 108.421875 139.40625 108.421875Q138.34375 108.421875 137.54688 108.984375Q136.75 109.546875 136.3125 110.46875L136.3125 119.5L134.14062 119.5L134.14062 106.8125L136.1875 106.8125ZM149.5 119.5L147.32812 119.5L147.32812 106.8125L149.5 106.8125L149.5 119.5ZM147.15625 103.453125Q147.15625 102.921875 147.46875 102.5625Q147.79688 102.203125 148.42188 102.203125Q149.0625 102.203125 149.39062 102.5625Q149.71875 102.921875 149.71875 103.453125Q149.71875 103.984375 149.39062 104.34375Q149.0625 104.6875 148.42188 104.6875Q147.79688 104.6875 147.46875 104.34375Q147.15625 103.984375 147.15625 103.453125ZM152.5625 113.046875Q152.5625 111.171875 153.29688 109.6875Q154.03125 108.203125 155.32812 107.390625Q156.64062 106.578125 158.32812 106.578125Q160.90625 106.578125 162.5 108.375Q164.10938 110.171875 164.10938 113.140625L164.10938 113.296875Q164.10938 115.15625 163.39062 116.625Q162.6875 118.09375 161.375 118.921875Q160.0625 119.734375 158.34375 119.734375Q155.76562 119.734375 154.15625 117.9375Q152.5625 116.140625 152.5625 113.1875L152.5625 113.046875ZM154.75 113.296875Q154.75 115.40625 155.71875 116.6875Q156.70312 117.96875 158.34375 117.96875Q160.0 117.96875 160.96875 116.671875Q161.9375 115.375 161.9375 113.046875Q161.9375 110.953125 160.95312 109.65625Q159.96875 108.359375 158.32812 108.359375Q156.71875 108.359375 155.73438 109.640625Q154.75 110.921875 154.75 113.296875Z" fill-rule="nonzero"/><path fill="#9e9e9e" d="M45.234375 144.0Q44.546875 144.8125 43.59375 145.3125Q42.65625 145.79688 41.53125 145.79688Q40.0625 145.79688 38.96875 145.07812Q37.875 144.34375 37.265625 143.03125Q36.671875 141.70312 36.671875 140.10938Q36.671875 138.39062 37.3125 137.03125Q37.96875 135.65625 39.15625 134.9375Q40.359375 134.20312 41.953125 134.20312Q44.484375 134.20312 45.9375 136.09375Q47.40625 137.98438 47.40625 141.25L47.40625 141.89062Q47.40625 146.875 45.4375 149.17188Q43.46875 151.45312 39.5 151.51562L39.078125 151.51562L39.078125 149.6875L39.53125 149.6875Q42.21875 149.64062 43.65625 148.28125Q45.09375 146.92188 45.234375 144.0ZM41.890625 144.0Q42.984375 144.0 43.890625 143.32812Q44.8125 142.65625 45.234375 141.67188L45.234375 140.8125Q45.234375 138.67188 44.3125 137.34375Q43.390625 136.0 41.96875 136.0Q40.546875 136.0 39.671875 137.10938Q38.8125 138.20312 38.8125 139.98438Q38.8125 141.73438 39.640625 142.875Q40.484375 144.0 41.890625 144.0ZM50.1875 150.35938Q50.1875 149.79688 50.515625 149.42188Q50.859375 149.04688 51.515625 149.04688Q52.1875 149.04688 52.53125 149.42188Q52.890625 149.79688 52.890625 150.35938Q52.890625 150.90625 52.53125 151.26562Q52.1875 151.625 51.515625 151.625Q50.859375 151.625 50.515625 151.26562Q50.1875 150.90625 50.1875 150.35938ZM64.234375 144.0Q63.546875 144.8125 62.59375 145.3125Q61.65625 145.79688 60.53125 145.79688Q59.0625 145.79688 57.96875 145.07812Q56.875 144.34375 56.265625 143.03125Q55.671875 141.70312 55.671875 140.10938Q55.671875 138.39062 56.3125 137.03125Q56.96875 135.65625 58.15625 134.9375Q59.359375 134.20312 60.953125 134.20312Q63.484375 134.20312 64.9375 136.09375Q66.40625 137.98438 66.40625 141.25L66.40625 141.89062Q66.40625 146.875 64.4375 149.17188Q62.46875 151.45312 58.5 151.51562L58.078125 151.51562L58.078125 149.6875L58.53125 149.6875Q61.21875 149.64062 62.65625 148.28125Q64.09375 146.92188 64.234375 144.0ZM60.890625 144.0Q61.984375 144.0 62.890625 143.32812Q63.8125 142.65625 64.234375 141.67188L64.234375 140.8125Q64.234375 138.67188 63.3125 137.34375Q62.390625 136.0 60.96875 136.0Q59.546875 136.0 58.671875 137.10938Q57.8125 138.20312 57.8125 139.98438Q57.8125 141.73438 58.640625 142.875Q59.484375 144.0 60.890625 144.0ZM68.734375 137.71875Q68.734375 136.1875 69.703125 135.1875Q70.6875 134.1875 72.21875 134.1875Q73.78125 134.1875 74.75 135.1875Q75.71875 136.1875 75.71875 137.78125L75.71875 138.625Q75.71875 140.17188 74.734375 141.15625Q73.765625 142.125 72.25 142.125Q70.71875 142.125 69.71875 141.15625Q68.734375 140.17188 68.734375 138.53125L68.734375 137.71875ZM70.34375 138.625Q70.34375 139.53125 70.859375 140.125Q71.375 140.71875 72.25 140.71875Q73.078125 140.71875 73.578125 140.14062Q74.09375 139.5625 74.09375 138.57812L74.09375 137.71875Q74.09375 136.79688 73.59375 136.20312Q73.09375 135.60938 72.21875 135.60938Q71.359375 135.60938 70.84375 136.20312Q70.34375 136.79688 70.34375 137.76562L70.34375 138.625ZM77.046875 147.3125Q77.046875 145.78125 78.015625 144.79688Q79.0 143.79688 80.53125 143.79688Q82.0625 143.79688 83.046875 144.78125Q84.03125 145.76562 84.03125 147.39062L84.03125 148.23438Q84.03125 149.76562 83.046875 150.76562Q82.078125 151.75 80.546875 151.75Q79.03125 151.75 78.03125 150.76562Q77.046875 149.78125 77.046875 148.15625L77.046875 147.3125ZM78.65625 148.23438Q78.65625 149.15625 79.171875 149.75Q79.6875 150.34375 80.5625 150.34375Q81.40625 150.34375 81.90625 149.76562Q82.40625 149.17188 82.40625 148.1875L82.40625 147.3125Q82.40625 146.39062 81.890625 145.8125Q81.390625 145.21875 80.53125 145.21875Q79.703125 145.21875 79.171875 145.79688Q78.65625 146.375 78.65625 147.35938L78.65625 148.23438ZM72.734375 150.20312L71.515625 149.4375L79.84375 136.09375L81.078125 136.875L72.734375 150.20312Z" fill-rule="nonzero"/><path stroke="#757575" stroke-width="1.0" stroke-linecap="butt" d="M35.5 127.0L248.0 127.0L408.37622 100.32067" fill-rule="nonzero"/><path fill="#9e9e9e" d="M410.37622 100.32067C410.37622 99.2161 409.48077 98.32067 408.37622 98.32067C407.27164 98.32067 406.37622 99.2161 406.37622 100.32067C406.37622 101.42525 407.27164 102.32067 408.37622 102.32067C409.48077 102.32067 410.37622 101.42525 410.37622 100.32067" fill-rule="nonzero"/><path fill="#000000" d="M37.484375 261.40155L37.484375 244.33905L42.296875 244.33905Q44.53125 244.33905 46.234375 245.32343Q47.953125 246.3078 48.875 248.1203Q49.8125 249.9328 49.828125 252.29218L49.828125 253.38593Q49.828125 255.79218 48.890625 257.6203Q47.953125 259.4328 46.21875 260.40155Q44.5 261.3703 42.203125 261.40155L37.484375 261.40155ZM39.734375 246.1828L39.734375 259.5578L42.09375 259.5578Q44.703125 259.5578 46.140625 257.94843Q47.59375 256.32343 47.59375 253.33905L47.59375 252.33905Q47.59375 249.4328 46.21875 247.82343Q44.859375 246.21405 42.359375 246.1828L39.734375 246.1828ZM60.96875 261.40155Q60.78125 261.02655 60.671875 260.0578Q59.15625 261.63593 57.0625 261.63593Q55.1875 261.63593 53.984375 260.57343Q52.78125 259.51093 52.78125 257.88593Q52.78125 255.90155 54.28125 254.8078Q55.796875 253.71405 58.515625 253.71405L60.625 253.71405L60.625 252.71405Q60.625 251.57343 59.9375 250.90155Q59.265625 250.22968 57.953125 250.22968Q56.78125 250.22968 56.0 250.82343Q55.21875 251.40155 55.21875 252.22968L53.03125 252.22968Q53.03125 251.29218 53.703125 250.40155Q54.390625 249.51093 55.53125 248.9953Q56.6875 248.47968 58.078125 248.47968Q60.265625 248.47968 61.5 249.58905Q62.75 250.6828 62.796875 252.60468L62.796875 258.4328Q62.796875 260.1828 63.25 261.21405L63.25 261.40155L60.96875 261.40155ZM57.375 259.7453Q58.390625 259.7453 59.296875 259.22968Q60.21875 258.69843 60.625 257.85468L60.625 255.2453L58.9375 255.2453Q54.953125 255.2453 54.953125 257.57343Q54.953125 258.60468 55.625 259.1828Q56.3125 259.7453 57.375 259.7453ZM68.5 261.40155L66.328125 261.40155L66.328125 243.40155L68.5 243.40155L68.5 261.40155ZM74.5 261.40155L72.328125 261.40155L72.328125 243.40155L74.5 243.40155L74.5 261.40155ZM85.96875 261.40155Q85.78125 261.02655 85.671875 260.0578Q84.15625 261.63593 82.0625 261.63593Q80.1875 261.63593 78.984375 260.57343Q77.78125 259.51093 77.78125 257.88593Q77.78125 255.90155 79.28125 254.8078Q80.796875 253.71405 83.515625 253.71405L85.625 253.71405L85.625 252.71405Q85.625 251.57343 84.9375 250.90155Q84.265625 250.22968 82.953125 250.22968Q81.78125 250.22968 81.0 250.82343Q80.21875 251.40155 80.21875 252.22968L78.03125 252.22968Q78.03125 251.29218 78.703125 250.40155Q79.390625 249.51093 80.53125 248.9953Q81.6875 248.47968 83.078125 248.47968Q85.265625 248.47968 86.5 249.58905Q87.75 250.6828 87.796875 252.60468L87.796875 258.4328Q87.796875 260.1828 88.25 261.21405L88.25 261.40155L85.96875 261.40155ZM82.375 259.7453Q83.390625 259.7453 84.296875 259.22968Q85.21875 258.69843 85.625 257.85468L85.625 255.2453L83.9375 255.2453Q79.953125 255.2453 79.953125 257.57343Q79.953125 258.60468 80.625 259.1828Q81.3125 259.7453 82.375 259.7453ZM98.53125 258.04218Q98.53125 257.15155 97.859375 256.66718Q97.203125 256.1828 95.546875 255.83905Q93.90625 255.47968 92.9375 254.9953Q91.96875 254.4953 91.5 253.82343Q91.046875 253.13593 91.046875 252.19843Q91.046875 250.63593 92.359375 249.5578Q93.6875 248.47968 95.734375 248.47968Q97.890625 248.47968 99.234375 249.60468Q100.578125 250.71405 100.578125 252.44843L98.390625 252.44843Q98.390625 251.5578 97.640625 250.91718Q96.890625 250.26093 95.734375 250.26093Q94.546875 250.26093 93.875 250.77655Q93.21875 251.29218 93.21875 252.13593Q93.21875 252.91718 93.828125 253.32343Q94.453125 253.71405 96.078125 254.07343Q97.703125 254.4328 98.703125 254.94843Q99.71875 255.44843 100.203125 256.16718Q100.6875 256.8703 100.6875 257.88593Q100.6875 259.58905 99.328125 260.6203Q97.96875 261.63593 95.8125 261.63593Q94.28125 261.63593 93.109375 261.10468Q91.9375 260.5578 91.265625 259.58905Q90.609375 258.6203 90.609375 257.4953L92.78125 257.4953Q92.84375 258.58905 93.65625 259.22968Q94.46875 259.8703 95.8125 259.8703Q97.03125 259.8703 97.78125 259.3703Q98.53125 258.8703 98.53125 258.04218ZM113.65625 255.04218L107.9375 255.04218L107.9375 253.26093L113.65625 253.26093L113.65625 255.04218ZM131.89062 253.8703L124.734375 253.8703L124.734375 261.40155L122.484375 261.40155L122.484375 244.33905L133.04688 244.33905L133.04688 246.1828L124.734375 246.1828L124.734375 252.02655L131.89062 252.02655L131.89062 253.8703ZM134.5625 254.94843Q134.5625 253.07343 135.29688 251.58905Q136.03125 250.10468 137.32812 249.29218Q138.64062 248.47968 140.32812 248.47968Q142.90625 248.47968 144.5 250.27655Q146.10938 252.07343 146.10938 255.04218L146.10938 255.19843Q146.10938 257.0578 145.39062 258.52655Q144.6875 259.9953 143.375 260.82343Q142.0625 261.63593 140.34375 261.63593Q137.76562 261.63593 136.15625 259.83905Q134.5625 258.04218 134.5625 255.08905L134.5625 254.94843ZM136.75 255.19843Q136.75 257.3078 137.71875 258.58905Q138.70312 259.8703 140.34375 259.8703Q142.0 259.8703 142.96875 258.57343Q143.9375 257.27655 143.9375 254.94843Q143.9375 252.85468 142.95312 251.5578Q141.96875 250.26093 140.32812 250.26093Q138.71875 250.26093 137.73438 251.54218Q136.75 252.82343 136.75 255.19843ZM155.26562 250.66718Q154.78125 250.58905 154.20312 250.58905Q152.07812 250.58905 151.3125 252.40155L151.3125 261.40155L149.14062 261.40155L149.14062 248.71405L151.25 248.71405L151.28125 250.1828Q152.35938 248.47968 154.3125 248.47968Q154.9375 248.47968 155.26562 248.65155L155.26562 250.66718ZM160.07812 245.65155L160.07812 248.71405L162.45312 248.71405L162.45312 250.40155L160.07812 250.40155L160.07812 258.26093Q160.07812 259.02655 160.39062 259.40155Q160.71875 259.77655 161.48438 259.77655Q161.85938 259.77655 162.51562 259.63593L162.51562 261.40155Q161.65625 261.63593 160.84375 261.63593Q159.39062 261.63593 158.65625 260.76093Q157.92188 259.8703 157.92188 258.26093L157.92188 250.40155L155.60938 250.40155L155.60938 248.71405L157.92188 248.71405L157.92188 245.65155L160.07812 245.65155ZM175.15625 256.02655L175.48438 258.27655L175.96875 256.2453L179.34375 244.33905L181.25 244.33905L184.53125 256.2453L185.0 258.3078L185.375 256.01093L188.01562 244.33905L190.28125 244.33905L186.14062 261.40155L184.09375 261.40155L180.57812 248.96405L180.3125 247.66718L180.03125 248.96405L176.39062 261.40155L174.34375 261.40155L170.21875 244.33905L172.46875 244.33905L175.15625 256.02655ZM191.5625 254.94843Q191.5625 253.07343 192.29688 251.58905Q193.03125 250.10468 194.32812 249.29218Q195.64062 248.47968 197.32812 248.47968Q199.90625 248.47968 201.5 250.27655Q203.10938 252.07343 203.10938 255.04218L203.10938 255.19843Q203.10938 257.0578 202.39062 258.52655Q201.6875 259.9953 200.375 260.82343Q199.0625 261.63593 197.34375 261.63593Q194.76562 261.63593 193.15625 259.83905Q191.5625 258.04218 191.5625 255.08905L191.5625 254.94843ZM193.75 255.19843Q193.75 257.3078 194.71875 258.58905Q195.70312 259.8703 197.34375 259.8703Q199.0 259.8703 199.96875 258.57343Q200.9375 257.27655 200.9375 254.94843Q200.9375 252.85468 199.95312 251.5578Q198.96875 250.26093 197.32812 250.26093Q195.71875 250.26093 194.73438 251.54218Q193.75 252.82343 193.75 255.19843ZM212.26562 250.66718Q211.78125 250.58905 211.20312 250.58905Q209.07812 250.58905 208.3125 252.40155L208.3125 261.40155L206.14062 261.40155L206.14062 248.71405L208.25 248.71405L208.28125 250.1828Q209.35938 248.47968 211.3125 248.47968Q211.9375 248.47968 212.26562 248.65155L212.26562 250.66718ZM217.07812 245.65155L217.07812 248.71405L219.45312 248.71405L219.45312 250.40155L217.07812 250.40155L217.07812 258.26093Q217.07812 259.02655 217.39062 259.40155Q217.71875 259.77655 218.48438 259.77655Q218.85938 259.77655 219.51562 259.63593L219.51562 261.40155Q218.65625 261.63593 217.84375 261.63593Q216.39062 261.63593 215.65625 260.76093Q214.92188 259.8703 214.92188 258.26093L214.92188 250.40155L212.60938 250.40155L212.60938 248.71405L214.92188 248.71405L214.92188 245.65155L217.07812 245.65155ZM224.3125 250.26093Q225.75 248.47968 228.0625 248.47968Q232.07812 248.47968 232.10938 253.02655L232.10938 261.40155L229.95312 261.40155L229.95312 253.01093Q229.9375 251.63593 229.3125 250.97968Q228.70312 250.32343 227.40625 250.32343Q226.34375 250.32343 225.54688 250.88593Q224.75 251.44843 224.3125 252.3703L224.3125 261.40155L222.14062 261.40155L222.14062 243.40155L224.3125 243.40155L224.3125 250.26093Z" fill-rule="nonzero"/><path fill="#9e9e9e" d="M44.046875 293.40155L41.859375 293.40155L41.859375 278.94843L37.5 280.5578L37.5 278.58905L43.703125 276.26093L44.046875 276.26093L44.046875 293.40155ZM61.09375 293.40155L49.921875 293.40155L49.921875 291.83905L55.828125 285.27655Q57.140625 283.79218 57.640625 282.8703Q58.140625 281.9328 58.140625 280.9328Q58.140625 279.58905 57.328125 278.7453Q56.515625 277.88593 55.171875 277.88593Q53.546875 277.88593 52.65625 278.8078Q51.765625 279.72968 51.765625 281.3703L49.59375 281.3703Q49.59375 279.01093 51.109375 277.5578Q52.625 276.10468 55.171875 276.10468Q57.546875 276.10468 58.921875 277.35468Q60.3125 278.60468 60.3125 280.66718Q60.3125 283.19843 57.109375 286.66718L52.53125 291.63593L61.09375 291.63593L61.09375 293.40155ZM63.1875 292.26093Q63.1875 291.69843 63.515625 291.32343Q63.859375 290.94843 64.515625 290.94843Q65.1875 290.94843 65.53125 291.32343Q65.890625 291.69843 65.890625 292.26093Q65.890625 292.8078 65.53125 293.16718Q65.1875 293.52655 64.515625 293.52655Q63.859375 293.52655 63.515625 293.16718Q63.1875 292.8078 63.1875 292.26093ZM79.9375 277.5578L72.875 293.40155L70.59375 293.40155L77.640625 278.1203L68.40625 278.1203L68.40625 276.33905L79.9375 276.33905L79.9375 277.5578ZM81.734375 279.6203Q81.734375 278.08905 82.703125 277.08905Q83.6875 276.08905 85.21875 276.08905Q86.78125 276.08905 87.75 277.08905Q88.71875 278.08905 88.71875 279.6828L88.71875 280.52655Q88.71875 282.07343 87.734375 283.0578Q86.765625 284.02655 85.25 284.02655Q83.71875 284.02655 82.71875 283.0578Q81.734375 282.07343 81.734375 280.4328L81.734375 279.6203ZM83.34375 280.52655Q83.34375 281.4328 83.859375 282.02655Q84.375 282.6203 85.25 282.6203Q86.078125 282.6203 86.578125 282.04218Q87.09375 281.46405 87.09375 280.47968L87.09375 279.6203Q87.09375 278.69843 86.59375 278.10468Q86.09375 277.51093 85.21875 277.51093Q84.359375 277.51093 83.84375 278.10468Q83.34375 278.69843 83.34375 279.66718L83.34375 280.52655ZM90.046875 289.21405Q90.046875 287.6828 91.015625 286.69843Q92.0 285.69843 93.53125 285.69843Q95.0625 285.69843 96.046875 286.6828Q97.03125 287.66718 97.03125 289.29218L97.03125 290.13593Q97.03125 291.66718 96.046875 292.66718Q95.078125 293.65155 93.546875 293.65155Q92.03125 293.65155 91.03125 292.66718Q90.046875 291.6828 90.046875 290.0578L90.046875 289.21405ZM91.65625 290.13593Q91.65625 291.0578 92.171875 291.65155Q92.6875 292.2453 93.5625 292.2453Q94.40625 292.2453 94.90625 291.66718Q95.40625 291.07343 95.40625 290.08905L95.40625 289.21405Q95.40625 288.29218 94.890625 287.71405Q94.390625 287.1203 93.53125 287.1203Q92.703125 287.1203 92.171875 287.69843Q91.65625 288.27655 91.65625 289.26093L91.65625 290.13593ZM85.734375 292.10468L84.515625 291.33905L92.84375 277.9953L94.078125 278.77655L85.734375 292.10468Z" fill-rule="nonzero"/><path stroke="#757575" stroke-width="1.0" stroke-linecap="butt" d="M35.5 268.90155L248.0 268.90155L282.44247 268.90155" fill-rule="nonzero"/><path fill="#9e9e9e" d="M284.44247 268.90155C284.44247 267.797 283.54703 266.90155 282.44247 266.90155C281.3379 266.90155 280.44247 267.797 280.44247 268.90155C280.44247 270.00613 281.3379 270.90155 282.44247 270.90155C283.54703 270.90155 284.44247 270.00613 284.44247 268.90155" fill-rule="nonzero"/><path fill="#000000" d="M50.59375 506.94934L48.328125 506.94934L48.328125 499.05872L39.734375 499.05872L39.734375 506.94934L37.484375 506.94934L37.484375 489.88684L39.734375 489.88684L39.734375 497.21497L48.328125 497.21497L48.328125 489.88684L50.59375 489.88684L50.59375 506.94934ZM53.5625 500.49622Q53.5625 498.62122 54.296875 497.13684Q55.03125 495.65247 56.328125 494.83997Q57.640625 494.02747 59.328125 494.02747Q61.90625 494.02747 63.5 495.82434Q65.109375 497.62122 65.109375 500.58997L65.109375 500.74622Q65.109375 502.6056 64.390625 504.07434Q63.6875 505.5431 62.375 506.37122Q61.0625 507.18372 59.34375 507.18372Q56.765625 507.18372 55.15625 505.38684Q53.5625 503.58997 53.5625 500.63684L53.5625 500.49622ZM55.75 500.74622Q55.75 502.8556 56.71875 504.13684Q57.703125 505.4181 59.34375 505.4181Q61.0 505.4181 61.96875 504.12122Q62.9375 502.82434 62.9375 500.49622Q62.9375 498.40247 61.953125 497.1056Q60.96875 495.80872 59.328125 495.80872Q57.71875 495.80872 56.734375 497.08997Q55.75 498.37122 55.75 500.74622ZM75.96875 505.69934Q74.703125 507.18372 72.25 507.18372Q70.234375 507.18372 69.171875 506.01184Q68.109375 504.82434 68.09375 502.51184L68.09375 494.26184L70.265625 494.26184L70.265625 502.46497Q70.265625 505.33997 72.609375 505.33997Q75.09375 505.33997 75.90625 503.49622L75.90625 494.26184L78.078125 494.26184L78.078125 506.94934L76.015625 506.94934L75.96875 505.69934ZM88.53125 503.58997Q88.53125 502.69934 87.859375 502.21497Q87.203125 501.7306 85.546875 501.38684Q83.90625 501.02747 82.9375 500.5431Q81.96875 500.0431 81.5 499.37122Q81.046875 498.68372 81.046875 497.74622Q81.046875 496.18372 82.359375 495.1056Q83.6875 494.02747 85.734375 494.02747Q87.890625 494.02747 89.234375 495.15247Q90.578125 496.26184 90.578125 497.99622L88.390625 497.99622Q88.390625 497.1056 87.640625 496.46497Q86.890625 495.80872 85.734375 495.80872Q84.546875 495.80872 83.875 496.32434Q83.21875 496.83997 83.21875 497.68372Q83.21875 498.46497 83.828125 498.87122Q84.453125 499.26184 86.078125 499.62122Q87.703125 499.9806 88.703125 500.49622Q89.71875 500.99622 90.203125 501.71497Q90.6875 502.4181 90.6875 503.43372Q90.6875 505.13684 89.328125 506.1681Q87.96875 507.18372 85.8125 507.18372Q84.28125 507.18372 83.109375 506.65247Q81.9375 506.1056 81.265625 505.13684Q80.609375 504.1681 80.609375 503.0431L82.78125 503.0431Q82.84375 504.13684 83.65625 504.77747Q84.46875 505.4181 85.8125 505.4181Q87.03125 505.4181 87.78125 504.9181Q88.53125 504.4181 88.53125 503.58997ZM96.078125 491.19934L96.078125 494.26184L98.453125 494.26184L98.453125 495.94934L96.078125 495.94934L96.078125 503.80872Q96.078125 504.57434 96.390625 504.94934Q96.71875 505.32434 97.484375 505.32434Q97.859375 505.32434 98.515625 505.18372L98.515625 506.94934Q97.65625 507.18372 96.84375 507.18372Q95.390625 507.18372 94.65625 506.30872Q93.921875 505.4181 93.921875 503.80872L93.921875 495.94934L91.609375 495.94934L91.609375 494.26184L93.921875 494.26184L93.921875 491.19934L96.078125 491.19934ZM100.5625 500.49622Q100.5625 498.62122 101.296875 497.13684Q102.03125 495.65247 103.328125 494.83997Q104.640625 494.02747 106.328125 494.02747Q108.90625 494.02747 110.5 495.82434Q112.109375 497.62122 112.109375 500.58997L112.109375 500.74622Q112.109375 502.6056 111.390625 504.07434Q110.6875 505.5431 109.375 506.37122Q108.0625 507.18372 106.34375 507.18372Q103.765625 507.18372 102.15625 505.38684Q100.5625 503.58997 100.5625 500.63684L100.5625 500.49622ZM102.75 500.74622Q102.75 502.8556 103.71875 504.13684Q104.703125 505.4181 106.34375 505.4181Q108.0 505.4181 108.96875 504.12122Q109.9375 502.82434 109.9375 500.49622Q109.9375 498.40247 108.953125 497.1056Q107.96875 495.80872 106.328125 495.80872Q104.71875 495.80872 103.734375 497.08997Q102.75 498.37122 102.75 500.74622ZM117.1875 494.26184L117.265625 495.8556Q118.71875 494.02747 121.0625 494.02747Q125.078125 494.02747 125.109375 498.57434L125.109375 506.94934L122.953125 506.94934L122.953125 498.55872Q122.9375 497.18372 122.3125 496.52747Q121.703125 495.87122 120.40625 495.87122Q119.34375 495.87122 118.546875 496.43372Q117.75 496.99622 117.3125 497.9181L117.3125 506.94934L115.140625 506.94934L115.140625 494.26184L117.1875 494.26184Z" fill-rule="nonzero"/><path fill="#9e9e9e" d="M44.046875 538.94934L41.859375 538.94934L41.859375 524.4962L37.5 526.1056L37.5 524.13684L43.703125 521.8087L44.046875 521.8087L44.046875 538.94934ZM59.078125 533.21497L61.4375 533.21497L61.4375 534.9806L59.078125 534.9806L59.078125 538.94934L56.890625 538.94934L56.890625 534.9806L49.125 534.9806L49.125 533.71497L56.765625 521.88684L59.078125 521.88684L59.078125 533.21497ZM51.578125 533.21497L56.890625 533.21497L56.890625 524.8556L56.640625 525.32434L51.578125 533.21497ZM63.1875 537.8087Q63.1875 537.2462 63.515625 536.8712Q63.859375 536.4962 64.515625 536.4962Q65.1875 536.4962 65.53125 536.8712Q65.890625 537.2462 65.890625 537.8087Q65.890625 538.3556 65.53125 538.71497Q65.1875 539.07434 64.515625 539.07434Q63.859375 539.07434 63.515625 538.71497Q63.1875 538.3556 63.1875 537.8087ZM76.046875 538.94934L73.859375 538.94934L73.859375 524.4962L69.5 526.1056L69.5 524.13684L75.703125 521.8087L76.046875 521.8087L76.046875 538.94934ZM81.734375 525.1681Q81.734375 523.63684 82.703125 522.63684Q83.6875 521.63684 85.21875 521.63684Q86.78125 521.63684 87.75 522.63684Q88.71875 523.63684 88.71875 525.2306L88.71875 526.07434Q88.71875 527.6212 87.734375 528.6056Q86.765625 529.57434 85.25 529.57434Q83.71875 529.57434 82.71875 528.6056Q81.734375 527.6212 81.734375 525.9806L81.734375 525.1681ZM83.34375 526.07434Q83.34375 526.9806 83.859375 527.57434Q84.375 528.1681 85.25 528.1681Q86.078125 528.1681 86.578125 527.58997Q87.09375 527.01184 87.09375 526.02747L87.09375 525.1681Q87.09375 524.2462 86.59375 523.65247Q86.09375 523.0587 85.21875 523.0587Q84.359375 523.0587 83.84375 523.65247Q83.34375 524.2462 83.34375 525.21497L83.34375 526.07434ZM90.046875 534.76184Q90.046875 533.2306 91.015625 532.2462Q92.0 531.2462 93.53125 531.2462Q95.0625 531.2462 96.046875 532.2306Q97.03125 533.21497 97.03125 534.83997L97.03125 535.6837Q97.03125 537.21497 96.046875 538.21497Q95.078125 539.19934 93.546875 539.19934Q92.03125 539.19934 91.03125 538.21497Q90.046875 537.2306 90.046875 535.6056L90.046875 534.76184ZM91.65625 535.6837Q91.65625 536.6056 92.171875 537.19934Q92.6875 537.7931 93.5625 537.7931Q94.40625 537.7931 94.90625 537.21497Q95.40625 536.6212 95.40625 535.63684L95.40625 534.76184Q95.40625 533.83997 94.890625 533.26184Q94.390625 532.6681 93.53125 532.6681Q92.703125 532.6681 92.171875 533.2462Q91.65625 533.82434 91.65625 534.8087L91.65625 535.6837ZM85.734375 537.65247L84.515625 536.88684L92.84375 523.5431L94.078125 524.32434L85.734375 537.65247Z" fill-rule="nonzero"/><path stroke="#757575" stroke-width="1.0" stroke-linecap="butt" d="M35.5 514.44934L248.0 514.44934L315.2301 514.44934" fill-rule="nonzero"/><path fill="#9e9e9e" d="M317.2301 514.44934C317.2301 513.3448 316.3347 512.44934 315.2301 512.44934C314.12555 512.44934 313.2301 513.3448 313.2301 514.44934C313.2301 515.5539 314.12555 516.44934 315.2301 516.44934C316.3347 516.44934 317.2301 515.5539 317.2301 514.44934" fill-rule="nonzero"/><path fill="#000000" d="M1054.9062 429.14532L1047.75 429.14532L1046.1562 433.59845L1043.8281 433.59845L1050.3438 416.53595L1052.3125 416.53595L1058.8438 433.59845L1056.5312 433.59845L1054.9062 429.14532ZM1048.4375 427.28595L1054.2344 427.28595L1051.3281 419.3172L1048.4375 427.28595ZM1068.9688 432.34845Q1067.7031 433.83282 1065.25 433.83282Q1063.2344 433.83282 1062.1719 432.66095Q1061.1094 431.47345 1061.0938 429.16095L1061.0938 420.91095L1063.2656 420.91095L1063.2656 429.11407Q1063.2656 431.98907 1065.6094 431.98907Q1068.0938 431.98907 1068.9062 430.14532L1068.9062 420.91095L1071.0781 420.91095L1071.0781 433.59845L1069.0156 433.59845L1068.9688 432.34845ZM1081.5312 430.23907Q1081.5312 429.34845 1080.8594 428.86407Q1080.2031 428.3797 1078.5469 428.03595Q1076.9062 427.67657 1075.9375 427.1922Q1074.9688 426.6922 1074.5 426.02032Q1074.0469 425.33282 1074.0469 424.39532Q1074.0469 422.83282 1075.3594 421.7547Q1076.6875 420.67657 1078.7344 420.67657Q1080.8906 420.67657 1082.2344 421.80157Q1083.5781 422.91095 1083.5781 424.64532L1081.3906 424.64532Q1081.3906 423.7547 1080.6406 423.11407Q1079.8906 422.45782 1078.7344 422.45782Q1077.5469 422.45782 1076.875 422.97345Q1076.2188 423.48907 1076.2188 424.33282Q1076.2188 425.11407 1076.8281 425.52032Q1077.4531 425.91095 1079.0781 426.27032Q1080.7031 426.6297 1081.7031 427.14532Q1082.7188 427.64532 1083.2031 428.36407Q1083.6875 429.0672 1083.6875 430.08282Q1083.6875 431.78595 1082.3281 432.8172Q1080.9688 433.83282 1078.8125 433.83282Q1077.2812 433.83282 1076.1094 433.30157Q1074.9375 432.7547 1074.2656 431.78595Q1073.6094 430.8172 1073.6094 429.6922L1075.7812 429.6922Q1075.8438 430.78595 1076.6562 431.42657Q1077.4688 432.0672 1078.8125 432.0672Q1080.0312 432.0672 1080.7812 431.5672Q1081.5312 431.0672 1081.5312 430.23907ZM1089.0781 417.84845L1089.0781 420.91095L1091.4531 420.91095L1091.4531 422.59845L1089.0781 422.59845L1089.0781 430.45782Q1089.0781 431.22345 1089.3906 431.59845Q1089.7188 431.97345 1090.4844 431.97345Q1090.8594 431.97345 1091.5156 431.83282L1091.5156 433.59845Q1090.6562 433.83282 1089.8438 433.83282Q1088.3906 433.83282 1087.6562 432.95782Q1086.9219 432.0672 1086.9219 430.45782L1086.9219 422.59845L1084.6094 422.59845L1084.6094 420.91095L1086.9219 420.91095L1086.9219 417.84845L1089.0781 417.84845ZM1096.5 433.59845L1094.3281 433.59845L1094.3281 420.91095L1096.5 420.91095L1096.5 433.59845ZM1094.1562 417.55157Q1094.1562 417.02032 1094.4688 416.66095Q1094.7969 416.30157 1095.4219 416.30157Q1096.0625 416.30157 1096.3906 416.66095Q1096.7188 417.02032 1096.7188 417.55157Q1096.7188 418.08282 1096.3906 418.4422Q1096.0625 418.78595 1095.4219 418.78595Q1094.7969 418.78595 1094.4688 418.4422Q1094.1562 418.08282 1094.1562 417.55157ZM1102.1875 420.91095L1102.2656 422.5047Q1103.7188 420.67657 1106.0625 420.67657Q1110.0781 420.67657 1110.1094 425.22345L1110.1094 433.59845L1107.9531 433.59845L1107.9531 425.20782Q1107.9375 423.83282 1107.3125 423.17657Q1106.7031 422.52032 1105.4062 422.52032Q1104.3438 422.52032 1103.5469 423.08282Q1102.75 423.64532 1102.3125 424.5672L1102.3125 433.59845L1100.1406 433.59845L1100.1406 420.91095L1102.1875 420.91095Z" fill-rule="nonzero"/><path fill="#9e9e9e" d="M1050.9219 457.03595L1051.7812 448.53595L1060.5312 448.53595L1060.5312 450.53595L1053.625 450.53595L1053.1094 455.1922Q1054.3594 454.45782 1055.9531 454.45782Q1058.2812 454.45782 1059.6562 456.0047Q1061.0312 457.53595 1061.0312 460.16095Q1061.0312 462.80157 1059.6094 464.3172Q1058.1875 465.83282 1055.625 465.83282Q1053.3594 465.83282 1051.9219 464.58282Q1050.5 463.3172 1050.3125 461.11407L1052.3594 461.11407Q1052.5625 462.5672 1053.4062 463.3172Q1054.25 464.0672 1055.625 464.0672Q1057.1406 464.0672 1058.0 463.03595Q1058.8594 462.0047 1058.8594 460.17657Q1058.8594 458.47345 1057.9219 457.4422Q1057.0 456.39532 1055.4531 456.39532Q1054.0312 456.39532 1053.2188 457.02032L1052.6562 457.48907L1050.9219 457.03595ZM1071.2344 458.09845Q1070.5469 458.91095 1069.5938 459.41095Q1068.6562 459.89532 1067.5312 459.89532Q1066.0625 459.89532 1064.9688 459.17657Q1063.875 458.4422 1063.2656 457.1297Q1062.6719 455.80157 1062.6719 454.20782Q1062.6719 452.48907 1063.3125 451.1297Q1063.9688 449.7547 1065.1562 449.03595Q1066.3594 448.30157 1067.9531 448.30157Q1070.4844 448.30157 1071.9375 450.1922Q1073.4062 452.08282 1073.4062 455.34845L1073.4062 455.98907Q1073.4062 460.97345 1071.4375 463.27032Q1069.4688 465.55157 1065.5 465.61407L1065.0781 465.61407L1065.0781 463.78595L1065.5312 463.78595Q1068.2188 463.73907 1069.6562 462.3797Q1071.0938 461.02032 1071.2344 458.09845ZM1067.8906 458.09845Q1068.9844 458.09845 1069.8906 457.42657Q1070.8125 456.7547 1071.2344 455.77032L1071.2344 454.91095Q1071.2344 452.77032 1070.3125 451.4422Q1069.3906 450.09845 1067.9688 450.09845Q1066.5469 450.09845 1065.6719 451.20782Q1064.8125 452.30157 1064.8125 454.08282Q1064.8125 455.83282 1065.6406 456.97345Q1066.4844 458.09845 1067.8906 458.09845ZM1076.1875 464.45782Q1076.1875 463.89532 1076.5156 463.52032Q1076.8594 463.14532 1077.5156 463.14532Q1078.1875 463.14532 1078.5312 463.52032Q1078.8906 463.89532 1078.8906 464.45782Q1078.8906 465.0047 1078.5312 465.36407Q1078.1875 465.72345 1077.5156 465.72345Q1076.8594 465.72345 1076.5156 465.36407Q1076.1875 465.0047 1076.1875 464.45782ZM1093.0938 465.59845L1081.9219 465.59845L1081.9219 464.03595L1087.8281 457.47345Q1089.1406 455.98907 1089.6406 455.0672Q1090.1406 454.1297 1090.1406 453.1297Q1090.1406 451.78595 1089.3281 450.9422Q1088.5156 450.08282 1087.1719 450.08282Q1085.5469 450.08282 1084.6562 451.0047Q1083.7656 451.92657 1083.7656 453.5672L1081.5938 453.5672Q1081.5938 451.20782 1083.1094 449.7547Q1084.625 448.30157 1087.1719 448.30157Q1089.5469 448.30157 1090.9219 449.55157Q1092.3125 450.80157 1092.3125 452.86407Q1092.3125 455.39532 1089.1094 458.86407L1084.5312 463.83282L1093.0938 463.83282L1093.0938 465.59845ZM1094.7344 451.8172Q1094.7344 450.28595 1095.7031 449.28595Q1096.6875 448.28595 1098.2188 448.28595Q1099.7812 448.28595 1100.75 449.28595Q1101.7188 450.28595 1101.7188 451.8797L1101.7188 452.72345Q1101.7188 454.27032 1100.7344 455.2547Q1099.7656 456.22345 1098.25 456.22345Q1096.7188 456.22345 1095.7188 455.2547Q1094.7344 454.27032 1094.7344 452.6297L1094.7344 451.8172ZM1096.3438 452.72345Q1096.3438 453.6297 1096.8594 454.22345Q1097.375 454.8172 1098.25 454.8172Q1099.0781 454.8172 1099.5781 454.23907Q1100.0938 453.66095 1100.0938 452.67657L1100.0938 451.8172Q1100.0938 450.89532 1099.5938 450.30157Q1099.0938 449.70782 1098.2188 449.70782Q1097.3594 449.70782 1096.8438 450.30157Q1096.3438 450.89532 1096.3438 451.86407L1096.3438 452.72345ZM1103.0469 461.41095Q1103.0469 459.8797 1104.0156 458.89532Q1105.0 457.89532 1106.5312 457.89532Q1108.0625 457.89532 1109.0469 458.8797Q1110.0312 459.86407 1110.0312 461.48907L1110.0312 462.33282Q1110.0312 463.86407 1109.0469 464.86407Q1108.0781 465.84845 1106.5469 465.84845Q1105.0312 465.84845 1104.0312 464.86407Q1103.0469 463.8797 1103.0469 462.2547L1103.0469 461.41095ZM1104.6562 462.33282Q1104.6562 463.2547 1105.1719 463.84845Q1105.6875 464.4422 1106.5625 464.4422Q1107.4062 464.4422 1107.9062 463.86407Q1108.4062 463.27032 1108.4062 462.28595L1108.4062 461.41095Q1108.4062 460.48907 1107.8906 459.91095Q1107.3906 459.3172 1106.5312 459.3172Q1105.7031 459.3172 1105.1719 459.89532Q1104.6562 460.47345 1104.6562 461.45782L1104.6562 462.33282ZM1098.7344 464.30157L1097.5156 463.53595L1105.8438 450.1922L1107.0781 450.97345L1098.7344 464.30157Z" fill-rule="nonzero"/><path stroke="#757575" stroke-width="1.0" stroke-linecap="butt" d="M1111.5 441.09845L899.0 441.09845L864.55756 441.09845" fill-rule="nonzero"/><path fill="#9e9e9e" d="M866.55756 441.09845C866.55756 439.99387 865.6621 439.09845 864.55756 439.09845C863.45294 439.09845 862.55756 439.99387 862.55756 441.09845C862.55756 442.203 863.45294 443.09845 864.55756 443.09845C865.6621 443.09845 866.55756 442.203 866.55756 441.09845" fill-rule="nonzero"/></svg>